%TF.GenerationSoftware,KiCad,Pcbnew,(5.1.7)-1*%
%TF.CreationDate,2021-12-08T22:40:21+02:00*%
%TF.ProjectId,single_transistor_amp,73696e67-6c65-45f7-9472-616e73697374,V1.0*%
%TF.SameCoordinates,Original*%
%TF.FileFunction,Copper,L2,Bot*%
%TF.FilePolarity,Positive*%
%FSLAX46Y46*%
G04 Gerber Fmt 4.6, Leading zero omitted, Abs format (unit mm)*
G04 Created by KiCad (PCBNEW (5.1.7)-1) date 2021-12-08 22:40:21*
%MOMM*%
%LPD*%
G01*
G04 APERTURE LIST*
%TA.AperFunction,ComponentPad*%
%ADD10C,10.160000*%
%TD*%
%TA.AperFunction,ComponentPad*%
%ADD11C,1.600000*%
%TD*%
%TA.AperFunction,ComponentPad*%
%ADD12R,3.960000X1.980000*%
%TD*%
%TA.AperFunction,ComponentPad*%
%ADD13O,3.960000X1.980000*%
%TD*%
%TA.AperFunction,ComponentPad*%
%ADD14O,1.050000X1.500000*%
%TD*%
%TA.AperFunction,ComponentPad*%
%ADD15R,1.050000X1.500000*%
%TD*%
%TA.AperFunction,ComponentPad*%
%ADD16O,1.600000X1.600000*%
%TD*%
%TA.AperFunction,Conductor*%
%ADD17C,0.250000*%
%TD*%
%TA.AperFunction,Conductor*%
%ADD18C,0.300000*%
%TD*%
%TA.AperFunction,Conductor*%
%ADD19C,0.254000*%
%TD*%
%TA.AperFunction,Conductor*%
%ADD20C,0.100000*%
%TD*%
G04 APERTURE END LIST*
D10*
%TO.P,J4,1*%
%TO.N,GNDREF*%
X149860000Y-127000000D03*
%TD*%
%TO.P,J3,1*%
%TO.N,+12V*%
X104140000Y-127000000D03*
%TD*%
D11*
%TO.P,C1,1*%
%TO.N,Net-(C1-Pad1)*%
X120650000Y-125730000D03*
%TO.P,C1,2*%
%TO.N,Net-(C1-Pad2)*%
X115650000Y-125730000D03*
%TD*%
%TO.P,C2,2*%
%TO.N,Net-(C2-Pad2)*%
X133430000Y-125730000D03*
%TO.P,C2,1*%
%TO.N,Net-(C2-Pad1)*%
X138430000Y-125730000D03*
%TD*%
%TO.P,C3,1*%
%TO.N,GNDREF*%
X129540000Y-133350000D03*
%TO.P,C3,2*%
%TO.N,Net-(C3-Pad2)*%
X124540000Y-133350000D03*
%TD*%
D12*
%TO.P,J1,1*%
%TO.N,GNDREF*%
X104140000Y-106680000D03*
D13*
%TO.P,J1,2*%
%TO.N,Net-(C1-Pad2)*%
X104140000Y-111680000D03*
%TD*%
%TO.P,J2,2*%
%TO.N,GNDREF*%
X149860000Y-106760000D03*
D12*
%TO.P,J2,1*%
%TO.N,Net-(C2-Pad1)*%
X149860000Y-111760000D03*
%TD*%
D14*
%TO.P,Q1,2*%
%TO.N,Net-(C1-Pad1)*%
X127000000Y-125730000D03*
%TO.P,Q1,3*%
%TO.N,Net-(C3-Pad2)*%
X125730000Y-125730000D03*
D15*
%TO.P,Q1,1*%
%TO.N,Net-(C2-Pad2)*%
X128270000Y-125730000D03*
%TD*%
D16*
%TO.P,R1,2*%
%TO.N,Net-(C1-Pad1)*%
X115570000Y-119380000D03*
D11*
%TO.P,R1,1*%
%TO.N,+12V*%
X115570000Y-104140000D03*
%TD*%
%TO.P,R2,1*%
%TO.N,Net-(C1-Pad1)*%
X130810000Y-119380000D03*
D16*
%TO.P,R2,2*%
%TO.N,GNDREF*%
X130810000Y-104140000D03*
%TD*%
D11*
%TO.P,R3,1*%
%TO.N,+12V*%
X123190000Y-104140000D03*
D16*
%TO.P,R3,2*%
%TO.N,Net-(C2-Pad2)*%
X123190000Y-119380000D03*
%TD*%
%TO.P,R4,2*%
%TO.N,GNDREF*%
X138430000Y-104140000D03*
D11*
%TO.P,R4,1*%
%TO.N,Net-(C3-Pad2)*%
X138430000Y-119380000D03*
%TD*%
D17*
%TO.N,Net-(C1-Pad1)*%
X130810000Y-120920000D02*
X130810000Y-119380000D01*
X127000000Y-124730000D02*
X130810000Y-120920000D01*
X127000000Y-125730000D02*
X127000000Y-124730000D01*
X127000000Y-124730000D02*
X127000000Y-124460000D01*
X127000000Y-124460000D02*
X125730000Y-123190000D01*
X123190000Y-123190000D02*
X120650000Y-125730000D01*
X125730000Y-123190000D02*
X123190000Y-123190000D01*
D18*
%TO.N,GNDREF*%
X143510000Y-133350000D02*
X129540000Y-133350000D01*
X149860000Y-127000000D02*
X143510000Y-133350000D01*
X149860000Y-127000000D02*
X143510000Y-120650000D01*
X143510000Y-113110000D02*
X149860000Y-106760000D01*
X143510000Y-120650000D02*
X143510000Y-113110000D01*
D17*
%TO.N,Net-(C3-Pad2)*%
X125730000Y-126730000D02*
X127000000Y-128000000D01*
X125730000Y-125730000D02*
X125730000Y-126730000D01*
X127000000Y-128000000D02*
X129270000Y-128000000D01*
X137890000Y-119380000D02*
X138430000Y-119380000D01*
X129270000Y-128000000D02*
X137890000Y-119380000D01*
D18*
%TO.N,+12V*%
X115570000Y-104140000D02*
X113030000Y-104140000D01*
X113030000Y-104140000D02*
X111760000Y-105410000D01*
X111760000Y-119380000D02*
X104140000Y-127000000D01*
X111760000Y-105410000D02*
X111760000Y-119380000D01*
%TD*%
D19*
%TO.N,GNDREF*%
X150948277Y-98523738D02*
X152017438Y-98739318D01*
X153048689Y-99094407D01*
X154023924Y-99582768D01*
X154926001Y-100195819D01*
X155739072Y-100922790D01*
X156448855Y-101750907D01*
X157042880Y-102665627D01*
X157510709Y-103650871D01*
X157844123Y-104689332D01*
X158037879Y-105766186D01*
X158090001Y-106698456D01*
X158090000Y-128248105D01*
X158016262Y-129358279D01*
X157800682Y-130427438D01*
X157445594Y-131458687D01*
X156957232Y-132433924D01*
X156344185Y-133335996D01*
X155617210Y-134149072D01*
X154789096Y-134858852D01*
X153874373Y-135452880D01*
X152889129Y-135920709D01*
X151850668Y-136254123D01*
X150773814Y-136447879D01*
X149841563Y-136500000D01*
X104161895Y-136500000D01*
X103051721Y-136426262D01*
X101982562Y-136210682D01*
X100951313Y-135855594D01*
X99976076Y-135367232D01*
X99074004Y-134754185D01*
X98260928Y-134027210D01*
X97559350Y-133208665D01*
X123105000Y-133208665D01*
X123105000Y-133491335D01*
X123160147Y-133768574D01*
X123268320Y-134029727D01*
X123425363Y-134264759D01*
X123625241Y-134464637D01*
X123860273Y-134621680D01*
X124121426Y-134729853D01*
X124398665Y-134785000D01*
X124681335Y-134785000D01*
X124958574Y-134729853D01*
X125219727Y-134621680D01*
X125454759Y-134464637D01*
X125576694Y-134342702D01*
X128726903Y-134342702D01*
X128798486Y-134586671D01*
X129053996Y-134707571D01*
X129328184Y-134776300D01*
X129610512Y-134790217D01*
X129890130Y-134748787D01*
X130156292Y-134653603D01*
X130281514Y-134586671D01*
X130353097Y-134342702D01*
X129540000Y-133529605D01*
X128726903Y-134342702D01*
X125576694Y-134342702D01*
X125654637Y-134264759D01*
X125811680Y-134029727D01*
X125919853Y-133768574D01*
X125975000Y-133491335D01*
X125975000Y-133420512D01*
X128099783Y-133420512D01*
X128141213Y-133700130D01*
X128236397Y-133966292D01*
X128303329Y-134091514D01*
X128547298Y-134163097D01*
X129360395Y-133350000D01*
X129719605Y-133350000D01*
X130532702Y-134163097D01*
X130776671Y-134091514D01*
X130897571Y-133836004D01*
X130966300Y-133561816D01*
X130980217Y-133279488D01*
X130938787Y-132999870D01*
X130843603Y-132733708D01*
X130776671Y-132608486D01*
X130532702Y-132536903D01*
X129719605Y-133350000D01*
X129360395Y-133350000D01*
X128547298Y-132536903D01*
X128303329Y-132608486D01*
X128182429Y-132863996D01*
X128113700Y-133138184D01*
X128099783Y-133420512D01*
X125975000Y-133420512D01*
X125975000Y-133208665D01*
X125919853Y-132931426D01*
X125811680Y-132670273D01*
X125654637Y-132435241D01*
X125576694Y-132357298D01*
X128726903Y-132357298D01*
X129540000Y-133170395D01*
X130353097Y-132357298D01*
X130281514Y-132113329D01*
X130026004Y-131992429D01*
X129751816Y-131923700D01*
X129469488Y-131909783D01*
X129189870Y-131951213D01*
X128923708Y-132046397D01*
X128798486Y-132113329D01*
X128726903Y-132357298D01*
X125576694Y-132357298D01*
X125454759Y-132235363D01*
X125219727Y-132078320D01*
X124958574Y-131970147D01*
X124681335Y-131915000D01*
X124398665Y-131915000D01*
X124121426Y-131970147D01*
X123860273Y-132078320D01*
X123625241Y-132235363D01*
X123425363Y-132435241D01*
X123268320Y-132670273D01*
X123160147Y-132931426D01*
X123105000Y-133208665D01*
X97559350Y-133208665D01*
X97551148Y-133199096D01*
X96957120Y-132284373D01*
X96489291Y-131299129D01*
X96155877Y-130260668D01*
X95962121Y-129183814D01*
X95910000Y-128251563D01*
X95910000Y-126437122D01*
X98425000Y-126437122D01*
X98425000Y-127562878D01*
X98644625Y-128667004D01*
X99075433Y-129707067D01*
X99700870Y-130643100D01*
X100496900Y-131439130D01*
X101432933Y-132064567D01*
X102472996Y-132495375D01*
X103577122Y-132715000D01*
X104702878Y-132715000D01*
X105807004Y-132495375D01*
X106847067Y-132064567D01*
X107783100Y-131439130D01*
X108185034Y-131037196D01*
X146002409Y-131037196D01*
X146588124Y-131719416D01*
X147571704Y-132267045D01*
X148643223Y-132612265D01*
X149761501Y-132741808D01*
X150883565Y-132650697D01*
X151966294Y-132342433D01*
X152968079Y-131828863D01*
X153131876Y-131719416D01*
X153717591Y-131037196D01*
X149860000Y-127179605D01*
X146002409Y-131037196D01*
X108185034Y-131037196D01*
X108579130Y-130643100D01*
X109204567Y-129707067D01*
X109635375Y-128667004D01*
X109855000Y-127562878D01*
X109855000Y-126437122D01*
X109686231Y-125588665D01*
X114215000Y-125588665D01*
X114215000Y-125871335D01*
X114270147Y-126148574D01*
X114378320Y-126409727D01*
X114535363Y-126644759D01*
X114735241Y-126844637D01*
X114970273Y-127001680D01*
X115231426Y-127109853D01*
X115508665Y-127165000D01*
X115791335Y-127165000D01*
X116068574Y-127109853D01*
X116329727Y-127001680D01*
X116564759Y-126844637D01*
X116764637Y-126644759D01*
X116921680Y-126409727D01*
X117029853Y-126148574D01*
X117085000Y-125871335D01*
X117085000Y-125588665D01*
X119215000Y-125588665D01*
X119215000Y-125871335D01*
X119270147Y-126148574D01*
X119378320Y-126409727D01*
X119535363Y-126644759D01*
X119735241Y-126844637D01*
X119970273Y-127001680D01*
X120231426Y-127109853D01*
X120508665Y-127165000D01*
X120791335Y-127165000D01*
X121068574Y-127109853D01*
X121329727Y-127001680D01*
X121564759Y-126844637D01*
X121764637Y-126644759D01*
X121921680Y-126409727D01*
X122029853Y-126148574D01*
X122085000Y-125871335D01*
X122085000Y-125588665D01*
X122048688Y-125406114D01*
X123504803Y-123950000D01*
X125415199Y-123950000D01*
X125812735Y-124347537D01*
X125730000Y-124339388D01*
X125502601Y-124361785D01*
X125283941Y-124428115D01*
X125082422Y-124535829D01*
X124905789Y-124680788D01*
X124760830Y-124857421D01*
X124653115Y-125058940D01*
X124586785Y-125277600D01*
X124570000Y-125448021D01*
X124570000Y-126011978D01*
X124586785Y-126182399D01*
X124653115Y-126401059D01*
X124760829Y-126602578D01*
X124905788Y-126779212D01*
X124976921Y-126837589D01*
X124980998Y-126878985D01*
X125024454Y-127022246D01*
X125095026Y-127154276D01*
X125165379Y-127240000D01*
X125190000Y-127270001D01*
X125218998Y-127293799D01*
X126436201Y-128511003D01*
X126459999Y-128540001D01*
X126575724Y-128634974D01*
X126707753Y-128705546D01*
X126851014Y-128749003D01*
X126962667Y-128760000D01*
X126962676Y-128760000D01*
X126999999Y-128763676D01*
X127037322Y-128760000D01*
X129232678Y-128760000D01*
X129270000Y-128763676D01*
X129307322Y-128760000D01*
X129307333Y-128760000D01*
X129418986Y-128749003D01*
X129562247Y-128705546D01*
X129694276Y-128634974D01*
X129810001Y-128540001D01*
X129833804Y-128510997D01*
X132092933Y-126251868D01*
X132158320Y-126409727D01*
X132315363Y-126644759D01*
X132515241Y-126844637D01*
X132750273Y-127001680D01*
X133011426Y-127109853D01*
X133288665Y-127165000D01*
X133571335Y-127165000D01*
X133848574Y-127109853D01*
X134109727Y-127001680D01*
X134344759Y-126844637D01*
X134544637Y-126644759D01*
X134701680Y-126409727D01*
X134809853Y-126148574D01*
X134865000Y-125871335D01*
X134865000Y-125588665D01*
X136995000Y-125588665D01*
X136995000Y-125871335D01*
X137050147Y-126148574D01*
X137158320Y-126409727D01*
X137315363Y-126644759D01*
X137515241Y-126844637D01*
X137750273Y-127001680D01*
X138011426Y-127109853D01*
X138288665Y-127165000D01*
X138571335Y-127165000D01*
X138848574Y-127109853D01*
X139109727Y-127001680D01*
X139259655Y-126901501D01*
X144118192Y-126901501D01*
X144209303Y-128023565D01*
X144517567Y-129106294D01*
X145031137Y-130108079D01*
X145140584Y-130271876D01*
X145822804Y-130857591D01*
X149680395Y-127000000D01*
X150039605Y-127000000D01*
X153897196Y-130857591D01*
X154579416Y-130271876D01*
X155127045Y-129288296D01*
X155472265Y-128216777D01*
X155601808Y-127098499D01*
X155510697Y-125976435D01*
X155202433Y-124893706D01*
X154688863Y-123891921D01*
X154579416Y-123728124D01*
X153897196Y-123142409D01*
X150039605Y-127000000D01*
X149680395Y-127000000D01*
X145822804Y-123142409D01*
X145140584Y-123728124D01*
X144592955Y-124711704D01*
X144247735Y-125783223D01*
X144118192Y-126901501D01*
X139259655Y-126901501D01*
X139344759Y-126844637D01*
X139544637Y-126644759D01*
X139701680Y-126409727D01*
X139809853Y-126148574D01*
X139865000Y-125871335D01*
X139865000Y-125588665D01*
X139809853Y-125311426D01*
X139701680Y-125050273D01*
X139544637Y-124815241D01*
X139344759Y-124615363D01*
X139109727Y-124458320D01*
X138848574Y-124350147D01*
X138571335Y-124295000D01*
X138288665Y-124295000D01*
X138011426Y-124350147D01*
X137750273Y-124458320D01*
X137515241Y-124615363D01*
X137315363Y-124815241D01*
X137158320Y-125050273D01*
X137050147Y-125311426D01*
X136995000Y-125588665D01*
X134865000Y-125588665D01*
X134809853Y-125311426D01*
X134701680Y-125050273D01*
X134544637Y-124815241D01*
X134344759Y-124615363D01*
X134109727Y-124458320D01*
X133951869Y-124392933D01*
X135381998Y-122962804D01*
X146002409Y-122962804D01*
X149860000Y-126820395D01*
X153717591Y-122962804D01*
X153131876Y-122280584D01*
X152148296Y-121732955D01*
X151076777Y-121387735D01*
X149958499Y-121258192D01*
X148836435Y-121349303D01*
X147753706Y-121657567D01*
X146751921Y-122171137D01*
X146588124Y-122280584D01*
X146002409Y-122962804D01*
X135381998Y-122962804D01*
X137716013Y-120628789D01*
X137750273Y-120651680D01*
X138011426Y-120759853D01*
X138288665Y-120815000D01*
X138571335Y-120815000D01*
X138848574Y-120759853D01*
X139109727Y-120651680D01*
X139344759Y-120494637D01*
X139544637Y-120294759D01*
X139701680Y-120059727D01*
X139809853Y-119798574D01*
X139865000Y-119521335D01*
X139865000Y-119238665D01*
X139809853Y-118961426D01*
X139701680Y-118700273D01*
X139544637Y-118465241D01*
X139344759Y-118265363D01*
X139109727Y-118108320D01*
X138848574Y-118000147D01*
X138571335Y-117945000D01*
X138288665Y-117945000D01*
X138011426Y-118000147D01*
X137750273Y-118108320D01*
X137515241Y-118265363D01*
X137315363Y-118465241D01*
X137158320Y-118700273D01*
X137050147Y-118961426D01*
X137004552Y-119190646D01*
X128955199Y-127240000D01*
X127314802Y-127240000D01*
X127177893Y-127103091D01*
X127227399Y-127098215D01*
X127436098Y-127034907D01*
X127500820Y-127069502D01*
X127620518Y-127105812D01*
X127745000Y-127118072D01*
X128795000Y-127118072D01*
X128919482Y-127105812D01*
X129039180Y-127069502D01*
X129149494Y-127010537D01*
X129246185Y-126931185D01*
X129325537Y-126834494D01*
X129384502Y-126724180D01*
X129420812Y-126604482D01*
X129433072Y-126480000D01*
X129433072Y-124980000D01*
X129420812Y-124855518D01*
X129384502Y-124735820D01*
X129325537Y-124625506D01*
X129246185Y-124528815D01*
X129149494Y-124449463D01*
X129039180Y-124390498D01*
X128919482Y-124354188D01*
X128795000Y-124341928D01*
X128462873Y-124341928D01*
X131321004Y-121483798D01*
X131350001Y-121460001D01*
X131444974Y-121344276D01*
X131515546Y-121212247D01*
X131559003Y-121068986D01*
X131570000Y-120957333D01*
X131570000Y-120957325D01*
X131573676Y-120920000D01*
X131570000Y-120882675D01*
X131570000Y-120598043D01*
X131724759Y-120494637D01*
X131924637Y-120294759D01*
X132081680Y-120059727D01*
X132189853Y-119798574D01*
X132245000Y-119521335D01*
X132245000Y-119238665D01*
X132189853Y-118961426D01*
X132081680Y-118700273D01*
X131924637Y-118465241D01*
X131724759Y-118265363D01*
X131489727Y-118108320D01*
X131228574Y-118000147D01*
X130951335Y-117945000D01*
X130668665Y-117945000D01*
X130391426Y-118000147D01*
X130130273Y-118108320D01*
X129895241Y-118265363D01*
X129695363Y-118465241D01*
X129538320Y-118700273D01*
X129430147Y-118961426D01*
X129375000Y-119238665D01*
X129375000Y-119521335D01*
X129430147Y-119798574D01*
X129538320Y-120059727D01*
X129695363Y-120294759D01*
X129895241Y-120494637D01*
X130050000Y-120598044D01*
X130050000Y-120605198D01*
X127135000Y-123520199D01*
X126293804Y-122679003D01*
X126270001Y-122649999D01*
X126154276Y-122555026D01*
X126022247Y-122484454D01*
X125878986Y-122440997D01*
X125767333Y-122430000D01*
X125767322Y-122430000D01*
X125730000Y-122426324D01*
X125692678Y-122430000D01*
X123227322Y-122430000D01*
X123189999Y-122426324D01*
X123152676Y-122430000D01*
X123152667Y-122430000D01*
X123041014Y-122440997D01*
X122897753Y-122484454D01*
X122765724Y-122555026D01*
X122765722Y-122555027D01*
X122765723Y-122555027D01*
X122678996Y-122626201D01*
X122678992Y-122626205D01*
X122649999Y-122649999D01*
X122626205Y-122678992D01*
X120973886Y-124331312D01*
X120791335Y-124295000D01*
X120508665Y-124295000D01*
X120231426Y-124350147D01*
X119970273Y-124458320D01*
X119735241Y-124615363D01*
X119535363Y-124815241D01*
X119378320Y-125050273D01*
X119270147Y-125311426D01*
X119215000Y-125588665D01*
X117085000Y-125588665D01*
X117029853Y-125311426D01*
X116921680Y-125050273D01*
X116764637Y-124815241D01*
X116564759Y-124615363D01*
X116329727Y-124458320D01*
X116068574Y-124350147D01*
X115791335Y-124295000D01*
X115508665Y-124295000D01*
X115231426Y-124350147D01*
X114970273Y-124458320D01*
X114735241Y-124615363D01*
X114535363Y-124815241D01*
X114378320Y-125050273D01*
X114270147Y-125311426D01*
X114215000Y-125588665D01*
X109686231Y-125588665D01*
X109635375Y-125332996D01*
X109204567Y-124292933D01*
X108704952Y-123545206D01*
X112287816Y-119962342D01*
X112317764Y-119937764D01*
X112356141Y-119891003D01*
X112366450Y-119878441D01*
X112415862Y-119818233D01*
X112488754Y-119681860D01*
X112533641Y-119533887D01*
X112545000Y-119418561D01*
X112545000Y-119418554D01*
X112548797Y-119380001D01*
X112545000Y-119341448D01*
X112545000Y-119238665D01*
X114135000Y-119238665D01*
X114135000Y-119521335D01*
X114190147Y-119798574D01*
X114298320Y-120059727D01*
X114455363Y-120294759D01*
X114655241Y-120494637D01*
X114890273Y-120651680D01*
X115151426Y-120759853D01*
X115428665Y-120815000D01*
X115711335Y-120815000D01*
X115988574Y-120759853D01*
X116249727Y-120651680D01*
X116484759Y-120494637D01*
X116684637Y-120294759D01*
X116841680Y-120059727D01*
X116949853Y-119798574D01*
X117005000Y-119521335D01*
X117005000Y-119238665D01*
X121755000Y-119238665D01*
X121755000Y-119521335D01*
X121810147Y-119798574D01*
X121918320Y-120059727D01*
X122075363Y-120294759D01*
X122275241Y-120494637D01*
X122510273Y-120651680D01*
X122771426Y-120759853D01*
X123048665Y-120815000D01*
X123331335Y-120815000D01*
X123608574Y-120759853D01*
X123869727Y-120651680D01*
X124104759Y-120494637D01*
X124304637Y-120294759D01*
X124461680Y-120059727D01*
X124569853Y-119798574D01*
X124625000Y-119521335D01*
X124625000Y-119238665D01*
X124569853Y-118961426D01*
X124461680Y-118700273D01*
X124304637Y-118465241D01*
X124104759Y-118265363D01*
X123869727Y-118108320D01*
X123608574Y-118000147D01*
X123331335Y-117945000D01*
X123048665Y-117945000D01*
X122771426Y-118000147D01*
X122510273Y-118108320D01*
X122275241Y-118265363D01*
X122075363Y-118465241D01*
X121918320Y-118700273D01*
X121810147Y-118961426D01*
X121755000Y-119238665D01*
X117005000Y-119238665D01*
X116949853Y-118961426D01*
X116841680Y-118700273D01*
X116684637Y-118465241D01*
X116484759Y-118265363D01*
X116249727Y-118108320D01*
X115988574Y-118000147D01*
X115711335Y-117945000D01*
X115428665Y-117945000D01*
X115151426Y-118000147D01*
X114890273Y-118108320D01*
X114655241Y-118265363D01*
X114455363Y-118465241D01*
X114298320Y-118700273D01*
X114190147Y-118961426D01*
X114135000Y-119238665D01*
X112545000Y-119238665D01*
X112545000Y-110770000D01*
X147241928Y-110770000D01*
X147241928Y-112750000D01*
X147254188Y-112874482D01*
X147290498Y-112994180D01*
X147349463Y-113104494D01*
X147428815Y-113201185D01*
X147525506Y-113280537D01*
X147635820Y-113339502D01*
X147755518Y-113375812D01*
X147880000Y-113388072D01*
X151840000Y-113388072D01*
X151964482Y-113375812D01*
X152084180Y-113339502D01*
X152194494Y-113280537D01*
X152291185Y-113201185D01*
X152370537Y-113104494D01*
X152429502Y-112994180D01*
X152465812Y-112874482D01*
X152478072Y-112750000D01*
X152478072Y-110770000D01*
X152465812Y-110645518D01*
X152429502Y-110525820D01*
X152370537Y-110415506D01*
X152291185Y-110318815D01*
X152194494Y-110239463D01*
X152084180Y-110180498D01*
X151964482Y-110144188D01*
X151840000Y-110131928D01*
X147880000Y-110131928D01*
X147755518Y-110144188D01*
X147635820Y-110180498D01*
X147525506Y-110239463D01*
X147428815Y-110318815D01*
X147349463Y-110415506D01*
X147290498Y-110525820D01*
X147254188Y-110645518D01*
X147241928Y-110770000D01*
X112545000Y-110770000D01*
X112545000Y-107138865D01*
X147289782Y-107138865D01*
X147320095Y-107264528D01*
X147448304Y-107557205D01*
X147631148Y-107819246D01*
X147861601Y-108040581D01*
X148130806Y-108212704D01*
X148428418Y-108329000D01*
X148743000Y-108385000D01*
X149733000Y-108385000D01*
X149733000Y-106887000D01*
X149987000Y-106887000D01*
X149987000Y-108385000D01*
X150977000Y-108385000D01*
X151291582Y-108329000D01*
X151589194Y-108212704D01*
X151858399Y-108040581D01*
X152088852Y-107819246D01*
X152271696Y-107557205D01*
X152399905Y-107264528D01*
X152430218Y-107138865D01*
X152310740Y-106887000D01*
X149987000Y-106887000D01*
X149733000Y-106887000D01*
X147409260Y-106887000D01*
X147289782Y-107138865D01*
X112545000Y-107138865D01*
X112545000Y-106381135D01*
X147289782Y-106381135D01*
X147409260Y-106633000D01*
X149733000Y-106633000D01*
X149733000Y-105135000D01*
X149987000Y-105135000D01*
X149987000Y-106633000D01*
X152310740Y-106633000D01*
X152430218Y-106381135D01*
X152399905Y-106255472D01*
X152271696Y-105962795D01*
X152088852Y-105700754D01*
X151858399Y-105479419D01*
X151589194Y-105307296D01*
X151291582Y-105191000D01*
X150977000Y-105135000D01*
X149987000Y-105135000D01*
X149733000Y-105135000D01*
X148743000Y-105135000D01*
X148428418Y-105191000D01*
X148130806Y-105307296D01*
X147861601Y-105479419D01*
X147631148Y-105700754D01*
X147448304Y-105962795D01*
X147320095Y-106255472D01*
X147289782Y-106381135D01*
X112545000Y-106381135D01*
X112545000Y-105735157D01*
X113355158Y-104925000D01*
X114368661Y-104925000D01*
X114455363Y-105054759D01*
X114655241Y-105254637D01*
X114890273Y-105411680D01*
X115151426Y-105519853D01*
X115428665Y-105575000D01*
X115711335Y-105575000D01*
X115988574Y-105519853D01*
X116249727Y-105411680D01*
X116484759Y-105254637D01*
X116684637Y-105054759D01*
X116841680Y-104819727D01*
X116949853Y-104558574D01*
X117005000Y-104281335D01*
X117005000Y-103998665D01*
X121755000Y-103998665D01*
X121755000Y-104281335D01*
X121810147Y-104558574D01*
X121918320Y-104819727D01*
X122075363Y-105054759D01*
X122275241Y-105254637D01*
X122510273Y-105411680D01*
X122771426Y-105519853D01*
X123048665Y-105575000D01*
X123331335Y-105575000D01*
X123608574Y-105519853D01*
X123869727Y-105411680D01*
X124104759Y-105254637D01*
X124304637Y-105054759D01*
X124461680Y-104819727D01*
X124569853Y-104558574D01*
X124583684Y-104489040D01*
X129418091Y-104489040D01*
X129512930Y-104753881D01*
X129657615Y-104995131D01*
X129846586Y-105203519D01*
X130072580Y-105371037D01*
X130326913Y-105491246D01*
X130460961Y-105531904D01*
X130683000Y-105409915D01*
X130683000Y-104267000D01*
X130937000Y-104267000D01*
X130937000Y-105409915D01*
X131159039Y-105531904D01*
X131293087Y-105491246D01*
X131547420Y-105371037D01*
X131773414Y-105203519D01*
X131962385Y-104995131D01*
X132107070Y-104753881D01*
X132201909Y-104489040D01*
X137038091Y-104489040D01*
X137132930Y-104753881D01*
X137277615Y-104995131D01*
X137466586Y-105203519D01*
X137692580Y-105371037D01*
X137946913Y-105491246D01*
X138080961Y-105531904D01*
X138303000Y-105409915D01*
X138303000Y-104267000D01*
X138557000Y-104267000D01*
X138557000Y-105409915D01*
X138779039Y-105531904D01*
X138913087Y-105491246D01*
X139167420Y-105371037D01*
X139393414Y-105203519D01*
X139582385Y-104995131D01*
X139727070Y-104753881D01*
X139821909Y-104489040D01*
X139700624Y-104267000D01*
X138557000Y-104267000D01*
X138303000Y-104267000D01*
X137159376Y-104267000D01*
X137038091Y-104489040D01*
X132201909Y-104489040D01*
X132080624Y-104267000D01*
X130937000Y-104267000D01*
X130683000Y-104267000D01*
X129539376Y-104267000D01*
X129418091Y-104489040D01*
X124583684Y-104489040D01*
X124625000Y-104281335D01*
X124625000Y-103998665D01*
X124583685Y-103790960D01*
X129418091Y-103790960D01*
X129539376Y-104013000D01*
X130683000Y-104013000D01*
X130683000Y-102870085D01*
X130937000Y-102870085D01*
X130937000Y-104013000D01*
X132080624Y-104013000D01*
X132201909Y-103790960D01*
X137038091Y-103790960D01*
X137159376Y-104013000D01*
X138303000Y-104013000D01*
X138303000Y-102870085D01*
X138557000Y-102870085D01*
X138557000Y-104013000D01*
X139700624Y-104013000D01*
X139821909Y-103790960D01*
X139727070Y-103526119D01*
X139582385Y-103284869D01*
X139393414Y-103076481D01*
X139167420Y-102908963D01*
X138913087Y-102788754D01*
X138779039Y-102748096D01*
X138557000Y-102870085D01*
X138303000Y-102870085D01*
X138080961Y-102748096D01*
X137946913Y-102788754D01*
X137692580Y-102908963D01*
X137466586Y-103076481D01*
X137277615Y-103284869D01*
X137132930Y-103526119D01*
X137038091Y-103790960D01*
X132201909Y-103790960D01*
X132107070Y-103526119D01*
X131962385Y-103284869D01*
X131773414Y-103076481D01*
X131547420Y-102908963D01*
X131293087Y-102788754D01*
X131159039Y-102748096D01*
X130937000Y-102870085D01*
X130683000Y-102870085D01*
X130460961Y-102748096D01*
X130326913Y-102788754D01*
X130072580Y-102908963D01*
X129846586Y-103076481D01*
X129657615Y-103284869D01*
X129512930Y-103526119D01*
X129418091Y-103790960D01*
X124583685Y-103790960D01*
X124569853Y-103721426D01*
X124461680Y-103460273D01*
X124304637Y-103225241D01*
X124104759Y-103025363D01*
X123869727Y-102868320D01*
X123608574Y-102760147D01*
X123331335Y-102705000D01*
X123048665Y-102705000D01*
X122771426Y-102760147D01*
X122510273Y-102868320D01*
X122275241Y-103025363D01*
X122075363Y-103225241D01*
X121918320Y-103460273D01*
X121810147Y-103721426D01*
X121755000Y-103998665D01*
X117005000Y-103998665D01*
X116949853Y-103721426D01*
X116841680Y-103460273D01*
X116684637Y-103225241D01*
X116484759Y-103025363D01*
X116249727Y-102868320D01*
X115988574Y-102760147D01*
X115711335Y-102705000D01*
X115428665Y-102705000D01*
X115151426Y-102760147D01*
X114890273Y-102868320D01*
X114655241Y-103025363D01*
X114455363Y-103225241D01*
X114368661Y-103355000D01*
X113068552Y-103355000D01*
X113029999Y-103351203D01*
X112991446Y-103355000D01*
X112991439Y-103355000D01*
X112890490Y-103364943D01*
X112876112Y-103366359D01*
X112841672Y-103376806D01*
X112728140Y-103411246D01*
X112591767Y-103484138D01*
X112542894Y-103524248D01*
X112502187Y-103557655D01*
X112502184Y-103557658D01*
X112472236Y-103582236D01*
X112447658Y-103612185D01*
X111232190Y-104827653D01*
X111202236Y-104852236D01*
X111104138Y-104971768D01*
X111031246Y-105108141D01*
X110986359Y-105256114D01*
X110975000Y-105371440D01*
X110975000Y-105371447D01*
X110971203Y-105410000D01*
X110975000Y-105448553D01*
X110975001Y-119054841D01*
X107594794Y-122435048D01*
X106847067Y-121935433D01*
X105807004Y-121504625D01*
X104702878Y-121285000D01*
X103577122Y-121285000D01*
X102472996Y-121504625D01*
X101432933Y-121935433D01*
X100496900Y-122560870D01*
X99700870Y-123356900D01*
X99075433Y-124292933D01*
X98644625Y-125332996D01*
X98425000Y-126437122D01*
X95910000Y-126437122D01*
X95910000Y-111680000D01*
X101517138Y-111680000D01*
X101548513Y-111998556D01*
X101641432Y-112304869D01*
X101792325Y-112587170D01*
X101995392Y-112834608D01*
X102242830Y-113037675D01*
X102525131Y-113188568D01*
X102831444Y-113281487D01*
X103070176Y-113305000D01*
X105209824Y-113305000D01*
X105448556Y-113281487D01*
X105754869Y-113188568D01*
X106037170Y-113037675D01*
X106284608Y-112834608D01*
X106487675Y-112587170D01*
X106638568Y-112304869D01*
X106731487Y-111998556D01*
X106762862Y-111680000D01*
X106731487Y-111361444D01*
X106638568Y-111055131D01*
X106487675Y-110772830D01*
X106284608Y-110525392D01*
X106037170Y-110322325D01*
X105754869Y-110171432D01*
X105448556Y-110078513D01*
X105209824Y-110055000D01*
X103070176Y-110055000D01*
X102831444Y-110078513D01*
X102525131Y-110171432D01*
X102242830Y-110322325D01*
X101995392Y-110525392D01*
X101792325Y-110772830D01*
X101641432Y-111055131D01*
X101548513Y-111361444D01*
X101517138Y-111680000D01*
X95910000Y-111680000D01*
X95910000Y-107670000D01*
X101521928Y-107670000D01*
X101534188Y-107794482D01*
X101570498Y-107914180D01*
X101629463Y-108024494D01*
X101708815Y-108121185D01*
X101805506Y-108200537D01*
X101915820Y-108259502D01*
X102035518Y-108295812D01*
X102160000Y-108308072D01*
X103854250Y-108305000D01*
X104013000Y-108146250D01*
X104013000Y-106807000D01*
X104267000Y-106807000D01*
X104267000Y-108146250D01*
X104425750Y-108305000D01*
X106120000Y-108308072D01*
X106244482Y-108295812D01*
X106364180Y-108259502D01*
X106474494Y-108200537D01*
X106571185Y-108121185D01*
X106650537Y-108024494D01*
X106709502Y-107914180D01*
X106745812Y-107794482D01*
X106758072Y-107670000D01*
X106755000Y-106965750D01*
X106596250Y-106807000D01*
X104267000Y-106807000D01*
X104013000Y-106807000D01*
X101683750Y-106807000D01*
X101525000Y-106965750D01*
X101521928Y-107670000D01*
X95910000Y-107670000D01*
X95910000Y-106701895D01*
X95977210Y-105690000D01*
X101521928Y-105690000D01*
X101525000Y-106394250D01*
X101683750Y-106553000D01*
X104013000Y-106553000D01*
X104013000Y-105213750D01*
X104267000Y-105213750D01*
X104267000Y-106553000D01*
X106596250Y-106553000D01*
X106755000Y-106394250D01*
X106758072Y-105690000D01*
X106745812Y-105565518D01*
X106709502Y-105445820D01*
X106650537Y-105335506D01*
X106571185Y-105238815D01*
X106474494Y-105159463D01*
X106364180Y-105100498D01*
X106244482Y-105064188D01*
X106120000Y-105051928D01*
X104425750Y-105055000D01*
X104267000Y-105213750D01*
X104013000Y-105213750D01*
X103854250Y-105055000D01*
X102160000Y-105051928D01*
X102035518Y-105064188D01*
X101915820Y-105100498D01*
X101805506Y-105159463D01*
X101708815Y-105238815D01*
X101629463Y-105335506D01*
X101570498Y-105445820D01*
X101534188Y-105565518D01*
X101521928Y-105690000D01*
X95977210Y-105690000D01*
X95983738Y-105591723D01*
X96199318Y-104522562D01*
X96554407Y-103491311D01*
X97042768Y-102516076D01*
X97655819Y-101613999D01*
X98382790Y-100800928D01*
X99210907Y-100091145D01*
X100125627Y-99497120D01*
X101110871Y-99029291D01*
X102149332Y-98695877D01*
X103226186Y-98502121D01*
X104158438Y-98450000D01*
X149838105Y-98450000D01*
X150948277Y-98523738D01*
%TA.AperFunction,Conductor*%
D20*
G36*
X150948277Y-98523738D02*
G01*
X152017438Y-98739318D01*
X153048689Y-99094407D01*
X154023924Y-99582768D01*
X154926001Y-100195819D01*
X155739072Y-100922790D01*
X156448855Y-101750907D01*
X157042880Y-102665627D01*
X157510709Y-103650871D01*
X157844123Y-104689332D01*
X158037879Y-105766186D01*
X158090001Y-106698456D01*
X158090000Y-128248105D01*
X158016262Y-129358279D01*
X157800682Y-130427438D01*
X157445594Y-131458687D01*
X156957232Y-132433924D01*
X156344185Y-133335996D01*
X155617210Y-134149072D01*
X154789096Y-134858852D01*
X153874373Y-135452880D01*
X152889129Y-135920709D01*
X151850668Y-136254123D01*
X150773814Y-136447879D01*
X149841563Y-136500000D01*
X104161895Y-136500000D01*
X103051721Y-136426262D01*
X101982562Y-136210682D01*
X100951313Y-135855594D01*
X99976076Y-135367232D01*
X99074004Y-134754185D01*
X98260928Y-134027210D01*
X97559350Y-133208665D01*
X123105000Y-133208665D01*
X123105000Y-133491335D01*
X123160147Y-133768574D01*
X123268320Y-134029727D01*
X123425363Y-134264759D01*
X123625241Y-134464637D01*
X123860273Y-134621680D01*
X124121426Y-134729853D01*
X124398665Y-134785000D01*
X124681335Y-134785000D01*
X124958574Y-134729853D01*
X125219727Y-134621680D01*
X125454759Y-134464637D01*
X125576694Y-134342702D01*
X128726903Y-134342702D01*
X128798486Y-134586671D01*
X129053996Y-134707571D01*
X129328184Y-134776300D01*
X129610512Y-134790217D01*
X129890130Y-134748787D01*
X130156292Y-134653603D01*
X130281514Y-134586671D01*
X130353097Y-134342702D01*
X129540000Y-133529605D01*
X128726903Y-134342702D01*
X125576694Y-134342702D01*
X125654637Y-134264759D01*
X125811680Y-134029727D01*
X125919853Y-133768574D01*
X125975000Y-133491335D01*
X125975000Y-133420512D01*
X128099783Y-133420512D01*
X128141213Y-133700130D01*
X128236397Y-133966292D01*
X128303329Y-134091514D01*
X128547298Y-134163097D01*
X129360395Y-133350000D01*
X129719605Y-133350000D01*
X130532702Y-134163097D01*
X130776671Y-134091514D01*
X130897571Y-133836004D01*
X130966300Y-133561816D01*
X130980217Y-133279488D01*
X130938787Y-132999870D01*
X130843603Y-132733708D01*
X130776671Y-132608486D01*
X130532702Y-132536903D01*
X129719605Y-133350000D01*
X129360395Y-133350000D01*
X128547298Y-132536903D01*
X128303329Y-132608486D01*
X128182429Y-132863996D01*
X128113700Y-133138184D01*
X128099783Y-133420512D01*
X125975000Y-133420512D01*
X125975000Y-133208665D01*
X125919853Y-132931426D01*
X125811680Y-132670273D01*
X125654637Y-132435241D01*
X125576694Y-132357298D01*
X128726903Y-132357298D01*
X129540000Y-133170395D01*
X130353097Y-132357298D01*
X130281514Y-132113329D01*
X130026004Y-131992429D01*
X129751816Y-131923700D01*
X129469488Y-131909783D01*
X129189870Y-131951213D01*
X128923708Y-132046397D01*
X128798486Y-132113329D01*
X128726903Y-132357298D01*
X125576694Y-132357298D01*
X125454759Y-132235363D01*
X125219727Y-132078320D01*
X124958574Y-131970147D01*
X124681335Y-131915000D01*
X124398665Y-131915000D01*
X124121426Y-131970147D01*
X123860273Y-132078320D01*
X123625241Y-132235363D01*
X123425363Y-132435241D01*
X123268320Y-132670273D01*
X123160147Y-132931426D01*
X123105000Y-133208665D01*
X97559350Y-133208665D01*
X97551148Y-133199096D01*
X96957120Y-132284373D01*
X96489291Y-131299129D01*
X96155877Y-130260668D01*
X95962121Y-129183814D01*
X95910000Y-128251563D01*
X95910000Y-126437122D01*
X98425000Y-126437122D01*
X98425000Y-127562878D01*
X98644625Y-128667004D01*
X99075433Y-129707067D01*
X99700870Y-130643100D01*
X100496900Y-131439130D01*
X101432933Y-132064567D01*
X102472996Y-132495375D01*
X103577122Y-132715000D01*
X104702878Y-132715000D01*
X105807004Y-132495375D01*
X106847067Y-132064567D01*
X107783100Y-131439130D01*
X108185034Y-131037196D01*
X146002409Y-131037196D01*
X146588124Y-131719416D01*
X147571704Y-132267045D01*
X148643223Y-132612265D01*
X149761501Y-132741808D01*
X150883565Y-132650697D01*
X151966294Y-132342433D01*
X152968079Y-131828863D01*
X153131876Y-131719416D01*
X153717591Y-131037196D01*
X149860000Y-127179605D01*
X146002409Y-131037196D01*
X108185034Y-131037196D01*
X108579130Y-130643100D01*
X109204567Y-129707067D01*
X109635375Y-128667004D01*
X109855000Y-127562878D01*
X109855000Y-126437122D01*
X109686231Y-125588665D01*
X114215000Y-125588665D01*
X114215000Y-125871335D01*
X114270147Y-126148574D01*
X114378320Y-126409727D01*
X114535363Y-126644759D01*
X114735241Y-126844637D01*
X114970273Y-127001680D01*
X115231426Y-127109853D01*
X115508665Y-127165000D01*
X115791335Y-127165000D01*
X116068574Y-127109853D01*
X116329727Y-127001680D01*
X116564759Y-126844637D01*
X116764637Y-126644759D01*
X116921680Y-126409727D01*
X117029853Y-126148574D01*
X117085000Y-125871335D01*
X117085000Y-125588665D01*
X119215000Y-125588665D01*
X119215000Y-125871335D01*
X119270147Y-126148574D01*
X119378320Y-126409727D01*
X119535363Y-126644759D01*
X119735241Y-126844637D01*
X119970273Y-127001680D01*
X120231426Y-127109853D01*
X120508665Y-127165000D01*
X120791335Y-127165000D01*
X121068574Y-127109853D01*
X121329727Y-127001680D01*
X121564759Y-126844637D01*
X121764637Y-126644759D01*
X121921680Y-126409727D01*
X122029853Y-126148574D01*
X122085000Y-125871335D01*
X122085000Y-125588665D01*
X122048688Y-125406114D01*
X123504803Y-123950000D01*
X125415199Y-123950000D01*
X125812735Y-124347537D01*
X125730000Y-124339388D01*
X125502601Y-124361785D01*
X125283941Y-124428115D01*
X125082422Y-124535829D01*
X124905789Y-124680788D01*
X124760830Y-124857421D01*
X124653115Y-125058940D01*
X124586785Y-125277600D01*
X124570000Y-125448021D01*
X124570000Y-126011978D01*
X124586785Y-126182399D01*
X124653115Y-126401059D01*
X124760829Y-126602578D01*
X124905788Y-126779212D01*
X124976921Y-126837589D01*
X124980998Y-126878985D01*
X125024454Y-127022246D01*
X125095026Y-127154276D01*
X125165379Y-127240000D01*
X125190000Y-127270001D01*
X125218998Y-127293799D01*
X126436201Y-128511003D01*
X126459999Y-128540001D01*
X126575724Y-128634974D01*
X126707753Y-128705546D01*
X126851014Y-128749003D01*
X126962667Y-128760000D01*
X126962676Y-128760000D01*
X126999999Y-128763676D01*
X127037322Y-128760000D01*
X129232678Y-128760000D01*
X129270000Y-128763676D01*
X129307322Y-128760000D01*
X129307333Y-128760000D01*
X129418986Y-128749003D01*
X129562247Y-128705546D01*
X129694276Y-128634974D01*
X129810001Y-128540001D01*
X129833804Y-128510997D01*
X132092933Y-126251868D01*
X132158320Y-126409727D01*
X132315363Y-126644759D01*
X132515241Y-126844637D01*
X132750273Y-127001680D01*
X133011426Y-127109853D01*
X133288665Y-127165000D01*
X133571335Y-127165000D01*
X133848574Y-127109853D01*
X134109727Y-127001680D01*
X134344759Y-126844637D01*
X134544637Y-126644759D01*
X134701680Y-126409727D01*
X134809853Y-126148574D01*
X134865000Y-125871335D01*
X134865000Y-125588665D01*
X136995000Y-125588665D01*
X136995000Y-125871335D01*
X137050147Y-126148574D01*
X137158320Y-126409727D01*
X137315363Y-126644759D01*
X137515241Y-126844637D01*
X137750273Y-127001680D01*
X138011426Y-127109853D01*
X138288665Y-127165000D01*
X138571335Y-127165000D01*
X138848574Y-127109853D01*
X139109727Y-127001680D01*
X139259655Y-126901501D01*
X144118192Y-126901501D01*
X144209303Y-128023565D01*
X144517567Y-129106294D01*
X145031137Y-130108079D01*
X145140584Y-130271876D01*
X145822804Y-130857591D01*
X149680395Y-127000000D01*
X150039605Y-127000000D01*
X153897196Y-130857591D01*
X154579416Y-130271876D01*
X155127045Y-129288296D01*
X155472265Y-128216777D01*
X155601808Y-127098499D01*
X155510697Y-125976435D01*
X155202433Y-124893706D01*
X154688863Y-123891921D01*
X154579416Y-123728124D01*
X153897196Y-123142409D01*
X150039605Y-127000000D01*
X149680395Y-127000000D01*
X145822804Y-123142409D01*
X145140584Y-123728124D01*
X144592955Y-124711704D01*
X144247735Y-125783223D01*
X144118192Y-126901501D01*
X139259655Y-126901501D01*
X139344759Y-126844637D01*
X139544637Y-126644759D01*
X139701680Y-126409727D01*
X139809853Y-126148574D01*
X139865000Y-125871335D01*
X139865000Y-125588665D01*
X139809853Y-125311426D01*
X139701680Y-125050273D01*
X139544637Y-124815241D01*
X139344759Y-124615363D01*
X139109727Y-124458320D01*
X138848574Y-124350147D01*
X138571335Y-124295000D01*
X138288665Y-124295000D01*
X138011426Y-124350147D01*
X137750273Y-124458320D01*
X137515241Y-124615363D01*
X137315363Y-124815241D01*
X137158320Y-125050273D01*
X137050147Y-125311426D01*
X136995000Y-125588665D01*
X134865000Y-125588665D01*
X134809853Y-125311426D01*
X134701680Y-125050273D01*
X134544637Y-124815241D01*
X134344759Y-124615363D01*
X134109727Y-124458320D01*
X133951869Y-124392933D01*
X135381998Y-122962804D01*
X146002409Y-122962804D01*
X149860000Y-126820395D01*
X153717591Y-122962804D01*
X153131876Y-122280584D01*
X152148296Y-121732955D01*
X151076777Y-121387735D01*
X149958499Y-121258192D01*
X148836435Y-121349303D01*
X147753706Y-121657567D01*
X146751921Y-122171137D01*
X146588124Y-122280584D01*
X146002409Y-122962804D01*
X135381998Y-122962804D01*
X137716013Y-120628789D01*
X137750273Y-120651680D01*
X138011426Y-120759853D01*
X138288665Y-120815000D01*
X138571335Y-120815000D01*
X138848574Y-120759853D01*
X139109727Y-120651680D01*
X139344759Y-120494637D01*
X139544637Y-120294759D01*
X139701680Y-120059727D01*
X139809853Y-119798574D01*
X139865000Y-119521335D01*
X139865000Y-119238665D01*
X139809853Y-118961426D01*
X139701680Y-118700273D01*
X139544637Y-118465241D01*
X139344759Y-118265363D01*
X139109727Y-118108320D01*
X138848574Y-118000147D01*
X138571335Y-117945000D01*
X138288665Y-117945000D01*
X138011426Y-118000147D01*
X137750273Y-118108320D01*
X137515241Y-118265363D01*
X137315363Y-118465241D01*
X137158320Y-118700273D01*
X137050147Y-118961426D01*
X137004552Y-119190646D01*
X128955199Y-127240000D01*
X127314802Y-127240000D01*
X127177893Y-127103091D01*
X127227399Y-127098215D01*
X127436098Y-127034907D01*
X127500820Y-127069502D01*
X127620518Y-127105812D01*
X127745000Y-127118072D01*
X128795000Y-127118072D01*
X128919482Y-127105812D01*
X129039180Y-127069502D01*
X129149494Y-127010537D01*
X129246185Y-126931185D01*
X129325537Y-126834494D01*
X129384502Y-126724180D01*
X129420812Y-126604482D01*
X129433072Y-126480000D01*
X129433072Y-124980000D01*
X129420812Y-124855518D01*
X129384502Y-124735820D01*
X129325537Y-124625506D01*
X129246185Y-124528815D01*
X129149494Y-124449463D01*
X129039180Y-124390498D01*
X128919482Y-124354188D01*
X128795000Y-124341928D01*
X128462873Y-124341928D01*
X131321004Y-121483798D01*
X131350001Y-121460001D01*
X131444974Y-121344276D01*
X131515546Y-121212247D01*
X131559003Y-121068986D01*
X131570000Y-120957333D01*
X131570000Y-120957325D01*
X131573676Y-120920000D01*
X131570000Y-120882675D01*
X131570000Y-120598043D01*
X131724759Y-120494637D01*
X131924637Y-120294759D01*
X132081680Y-120059727D01*
X132189853Y-119798574D01*
X132245000Y-119521335D01*
X132245000Y-119238665D01*
X132189853Y-118961426D01*
X132081680Y-118700273D01*
X131924637Y-118465241D01*
X131724759Y-118265363D01*
X131489727Y-118108320D01*
X131228574Y-118000147D01*
X130951335Y-117945000D01*
X130668665Y-117945000D01*
X130391426Y-118000147D01*
X130130273Y-118108320D01*
X129895241Y-118265363D01*
X129695363Y-118465241D01*
X129538320Y-118700273D01*
X129430147Y-118961426D01*
X129375000Y-119238665D01*
X129375000Y-119521335D01*
X129430147Y-119798574D01*
X129538320Y-120059727D01*
X129695363Y-120294759D01*
X129895241Y-120494637D01*
X130050000Y-120598044D01*
X130050000Y-120605198D01*
X127135000Y-123520199D01*
X126293804Y-122679003D01*
X126270001Y-122649999D01*
X126154276Y-122555026D01*
X126022247Y-122484454D01*
X125878986Y-122440997D01*
X125767333Y-122430000D01*
X125767322Y-122430000D01*
X125730000Y-122426324D01*
X125692678Y-122430000D01*
X123227322Y-122430000D01*
X123189999Y-122426324D01*
X123152676Y-122430000D01*
X123152667Y-122430000D01*
X123041014Y-122440997D01*
X122897753Y-122484454D01*
X122765724Y-122555026D01*
X122765722Y-122555027D01*
X122765723Y-122555027D01*
X122678996Y-122626201D01*
X122678992Y-122626205D01*
X122649999Y-122649999D01*
X122626205Y-122678992D01*
X120973886Y-124331312D01*
X120791335Y-124295000D01*
X120508665Y-124295000D01*
X120231426Y-124350147D01*
X119970273Y-124458320D01*
X119735241Y-124615363D01*
X119535363Y-124815241D01*
X119378320Y-125050273D01*
X119270147Y-125311426D01*
X119215000Y-125588665D01*
X117085000Y-125588665D01*
X117029853Y-125311426D01*
X116921680Y-125050273D01*
X116764637Y-124815241D01*
X116564759Y-124615363D01*
X116329727Y-124458320D01*
X116068574Y-124350147D01*
X115791335Y-124295000D01*
X115508665Y-124295000D01*
X115231426Y-124350147D01*
X114970273Y-124458320D01*
X114735241Y-124615363D01*
X114535363Y-124815241D01*
X114378320Y-125050273D01*
X114270147Y-125311426D01*
X114215000Y-125588665D01*
X109686231Y-125588665D01*
X109635375Y-125332996D01*
X109204567Y-124292933D01*
X108704952Y-123545206D01*
X112287816Y-119962342D01*
X112317764Y-119937764D01*
X112356141Y-119891003D01*
X112366450Y-119878441D01*
X112415862Y-119818233D01*
X112488754Y-119681860D01*
X112533641Y-119533887D01*
X112545000Y-119418561D01*
X112545000Y-119418554D01*
X112548797Y-119380001D01*
X112545000Y-119341448D01*
X112545000Y-119238665D01*
X114135000Y-119238665D01*
X114135000Y-119521335D01*
X114190147Y-119798574D01*
X114298320Y-120059727D01*
X114455363Y-120294759D01*
X114655241Y-120494637D01*
X114890273Y-120651680D01*
X115151426Y-120759853D01*
X115428665Y-120815000D01*
X115711335Y-120815000D01*
X115988574Y-120759853D01*
X116249727Y-120651680D01*
X116484759Y-120494637D01*
X116684637Y-120294759D01*
X116841680Y-120059727D01*
X116949853Y-119798574D01*
X117005000Y-119521335D01*
X117005000Y-119238665D01*
X121755000Y-119238665D01*
X121755000Y-119521335D01*
X121810147Y-119798574D01*
X121918320Y-120059727D01*
X122075363Y-120294759D01*
X122275241Y-120494637D01*
X122510273Y-120651680D01*
X122771426Y-120759853D01*
X123048665Y-120815000D01*
X123331335Y-120815000D01*
X123608574Y-120759853D01*
X123869727Y-120651680D01*
X124104759Y-120494637D01*
X124304637Y-120294759D01*
X124461680Y-120059727D01*
X124569853Y-119798574D01*
X124625000Y-119521335D01*
X124625000Y-119238665D01*
X124569853Y-118961426D01*
X124461680Y-118700273D01*
X124304637Y-118465241D01*
X124104759Y-118265363D01*
X123869727Y-118108320D01*
X123608574Y-118000147D01*
X123331335Y-117945000D01*
X123048665Y-117945000D01*
X122771426Y-118000147D01*
X122510273Y-118108320D01*
X122275241Y-118265363D01*
X122075363Y-118465241D01*
X121918320Y-118700273D01*
X121810147Y-118961426D01*
X121755000Y-119238665D01*
X117005000Y-119238665D01*
X116949853Y-118961426D01*
X116841680Y-118700273D01*
X116684637Y-118465241D01*
X116484759Y-118265363D01*
X116249727Y-118108320D01*
X115988574Y-118000147D01*
X115711335Y-117945000D01*
X115428665Y-117945000D01*
X115151426Y-118000147D01*
X114890273Y-118108320D01*
X114655241Y-118265363D01*
X114455363Y-118465241D01*
X114298320Y-118700273D01*
X114190147Y-118961426D01*
X114135000Y-119238665D01*
X112545000Y-119238665D01*
X112545000Y-110770000D01*
X147241928Y-110770000D01*
X147241928Y-112750000D01*
X147254188Y-112874482D01*
X147290498Y-112994180D01*
X147349463Y-113104494D01*
X147428815Y-113201185D01*
X147525506Y-113280537D01*
X147635820Y-113339502D01*
X147755518Y-113375812D01*
X147880000Y-113388072D01*
X151840000Y-113388072D01*
X151964482Y-113375812D01*
X152084180Y-113339502D01*
X152194494Y-113280537D01*
X152291185Y-113201185D01*
X152370537Y-113104494D01*
X152429502Y-112994180D01*
X152465812Y-112874482D01*
X152478072Y-112750000D01*
X152478072Y-110770000D01*
X152465812Y-110645518D01*
X152429502Y-110525820D01*
X152370537Y-110415506D01*
X152291185Y-110318815D01*
X152194494Y-110239463D01*
X152084180Y-110180498D01*
X151964482Y-110144188D01*
X151840000Y-110131928D01*
X147880000Y-110131928D01*
X147755518Y-110144188D01*
X147635820Y-110180498D01*
X147525506Y-110239463D01*
X147428815Y-110318815D01*
X147349463Y-110415506D01*
X147290498Y-110525820D01*
X147254188Y-110645518D01*
X147241928Y-110770000D01*
X112545000Y-110770000D01*
X112545000Y-107138865D01*
X147289782Y-107138865D01*
X147320095Y-107264528D01*
X147448304Y-107557205D01*
X147631148Y-107819246D01*
X147861601Y-108040581D01*
X148130806Y-108212704D01*
X148428418Y-108329000D01*
X148743000Y-108385000D01*
X149733000Y-108385000D01*
X149733000Y-106887000D01*
X149987000Y-106887000D01*
X149987000Y-108385000D01*
X150977000Y-108385000D01*
X151291582Y-108329000D01*
X151589194Y-108212704D01*
X151858399Y-108040581D01*
X152088852Y-107819246D01*
X152271696Y-107557205D01*
X152399905Y-107264528D01*
X152430218Y-107138865D01*
X152310740Y-106887000D01*
X149987000Y-106887000D01*
X149733000Y-106887000D01*
X147409260Y-106887000D01*
X147289782Y-107138865D01*
X112545000Y-107138865D01*
X112545000Y-106381135D01*
X147289782Y-106381135D01*
X147409260Y-106633000D01*
X149733000Y-106633000D01*
X149733000Y-105135000D01*
X149987000Y-105135000D01*
X149987000Y-106633000D01*
X152310740Y-106633000D01*
X152430218Y-106381135D01*
X152399905Y-106255472D01*
X152271696Y-105962795D01*
X152088852Y-105700754D01*
X151858399Y-105479419D01*
X151589194Y-105307296D01*
X151291582Y-105191000D01*
X150977000Y-105135000D01*
X149987000Y-105135000D01*
X149733000Y-105135000D01*
X148743000Y-105135000D01*
X148428418Y-105191000D01*
X148130806Y-105307296D01*
X147861601Y-105479419D01*
X147631148Y-105700754D01*
X147448304Y-105962795D01*
X147320095Y-106255472D01*
X147289782Y-106381135D01*
X112545000Y-106381135D01*
X112545000Y-105735157D01*
X113355158Y-104925000D01*
X114368661Y-104925000D01*
X114455363Y-105054759D01*
X114655241Y-105254637D01*
X114890273Y-105411680D01*
X115151426Y-105519853D01*
X115428665Y-105575000D01*
X115711335Y-105575000D01*
X115988574Y-105519853D01*
X116249727Y-105411680D01*
X116484759Y-105254637D01*
X116684637Y-105054759D01*
X116841680Y-104819727D01*
X116949853Y-104558574D01*
X117005000Y-104281335D01*
X117005000Y-103998665D01*
X121755000Y-103998665D01*
X121755000Y-104281335D01*
X121810147Y-104558574D01*
X121918320Y-104819727D01*
X122075363Y-105054759D01*
X122275241Y-105254637D01*
X122510273Y-105411680D01*
X122771426Y-105519853D01*
X123048665Y-105575000D01*
X123331335Y-105575000D01*
X123608574Y-105519853D01*
X123869727Y-105411680D01*
X124104759Y-105254637D01*
X124304637Y-105054759D01*
X124461680Y-104819727D01*
X124569853Y-104558574D01*
X124583684Y-104489040D01*
X129418091Y-104489040D01*
X129512930Y-104753881D01*
X129657615Y-104995131D01*
X129846586Y-105203519D01*
X130072580Y-105371037D01*
X130326913Y-105491246D01*
X130460961Y-105531904D01*
X130683000Y-105409915D01*
X130683000Y-104267000D01*
X130937000Y-104267000D01*
X130937000Y-105409915D01*
X131159039Y-105531904D01*
X131293087Y-105491246D01*
X131547420Y-105371037D01*
X131773414Y-105203519D01*
X131962385Y-104995131D01*
X132107070Y-104753881D01*
X132201909Y-104489040D01*
X137038091Y-104489040D01*
X137132930Y-104753881D01*
X137277615Y-104995131D01*
X137466586Y-105203519D01*
X137692580Y-105371037D01*
X137946913Y-105491246D01*
X138080961Y-105531904D01*
X138303000Y-105409915D01*
X138303000Y-104267000D01*
X138557000Y-104267000D01*
X138557000Y-105409915D01*
X138779039Y-105531904D01*
X138913087Y-105491246D01*
X139167420Y-105371037D01*
X139393414Y-105203519D01*
X139582385Y-104995131D01*
X139727070Y-104753881D01*
X139821909Y-104489040D01*
X139700624Y-104267000D01*
X138557000Y-104267000D01*
X138303000Y-104267000D01*
X137159376Y-104267000D01*
X137038091Y-104489040D01*
X132201909Y-104489040D01*
X132080624Y-104267000D01*
X130937000Y-104267000D01*
X130683000Y-104267000D01*
X129539376Y-104267000D01*
X129418091Y-104489040D01*
X124583684Y-104489040D01*
X124625000Y-104281335D01*
X124625000Y-103998665D01*
X124583685Y-103790960D01*
X129418091Y-103790960D01*
X129539376Y-104013000D01*
X130683000Y-104013000D01*
X130683000Y-102870085D01*
X130937000Y-102870085D01*
X130937000Y-104013000D01*
X132080624Y-104013000D01*
X132201909Y-103790960D01*
X137038091Y-103790960D01*
X137159376Y-104013000D01*
X138303000Y-104013000D01*
X138303000Y-102870085D01*
X138557000Y-102870085D01*
X138557000Y-104013000D01*
X139700624Y-104013000D01*
X139821909Y-103790960D01*
X139727070Y-103526119D01*
X139582385Y-103284869D01*
X139393414Y-103076481D01*
X139167420Y-102908963D01*
X138913087Y-102788754D01*
X138779039Y-102748096D01*
X138557000Y-102870085D01*
X138303000Y-102870085D01*
X138080961Y-102748096D01*
X137946913Y-102788754D01*
X137692580Y-102908963D01*
X137466586Y-103076481D01*
X137277615Y-103284869D01*
X137132930Y-103526119D01*
X137038091Y-103790960D01*
X132201909Y-103790960D01*
X132107070Y-103526119D01*
X131962385Y-103284869D01*
X131773414Y-103076481D01*
X131547420Y-102908963D01*
X131293087Y-102788754D01*
X131159039Y-102748096D01*
X130937000Y-102870085D01*
X130683000Y-102870085D01*
X130460961Y-102748096D01*
X130326913Y-102788754D01*
X130072580Y-102908963D01*
X129846586Y-103076481D01*
X129657615Y-103284869D01*
X129512930Y-103526119D01*
X129418091Y-103790960D01*
X124583685Y-103790960D01*
X124569853Y-103721426D01*
X124461680Y-103460273D01*
X124304637Y-103225241D01*
X124104759Y-103025363D01*
X123869727Y-102868320D01*
X123608574Y-102760147D01*
X123331335Y-102705000D01*
X123048665Y-102705000D01*
X122771426Y-102760147D01*
X122510273Y-102868320D01*
X122275241Y-103025363D01*
X122075363Y-103225241D01*
X121918320Y-103460273D01*
X121810147Y-103721426D01*
X121755000Y-103998665D01*
X117005000Y-103998665D01*
X116949853Y-103721426D01*
X116841680Y-103460273D01*
X116684637Y-103225241D01*
X116484759Y-103025363D01*
X116249727Y-102868320D01*
X115988574Y-102760147D01*
X115711335Y-102705000D01*
X115428665Y-102705000D01*
X115151426Y-102760147D01*
X114890273Y-102868320D01*
X114655241Y-103025363D01*
X114455363Y-103225241D01*
X114368661Y-103355000D01*
X113068552Y-103355000D01*
X113029999Y-103351203D01*
X112991446Y-103355000D01*
X112991439Y-103355000D01*
X112890490Y-103364943D01*
X112876112Y-103366359D01*
X112841672Y-103376806D01*
X112728140Y-103411246D01*
X112591767Y-103484138D01*
X112542894Y-103524248D01*
X112502187Y-103557655D01*
X112502184Y-103557658D01*
X112472236Y-103582236D01*
X112447658Y-103612185D01*
X111232190Y-104827653D01*
X111202236Y-104852236D01*
X111104138Y-104971768D01*
X111031246Y-105108141D01*
X110986359Y-105256114D01*
X110975000Y-105371440D01*
X110975000Y-105371447D01*
X110971203Y-105410000D01*
X110975000Y-105448553D01*
X110975001Y-119054841D01*
X107594794Y-122435048D01*
X106847067Y-121935433D01*
X105807004Y-121504625D01*
X104702878Y-121285000D01*
X103577122Y-121285000D01*
X102472996Y-121504625D01*
X101432933Y-121935433D01*
X100496900Y-122560870D01*
X99700870Y-123356900D01*
X99075433Y-124292933D01*
X98644625Y-125332996D01*
X98425000Y-126437122D01*
X95910000Y-126437122D01*
X95910000Y-111680000D01*
X101517138Y-111680000D01*
X101548513Y-111998556D01*
X101641432Y-112304869D01*
X101792325Y-112587170D01*
X101995392Y-112834608D01*
X102242830Y-113037675D01*
X102525131Y-113188568D01*
X102831444Y-113281487D01*
X103070176Y-113305000D01*
X105209824Y-113305000D01*
X105448556Y-113281487D01*
X105754869Y-113188568D01*
X106037170Y-113037675D01*
X106284608Y-112834608D01*
X106487675Y-112587170D01*
X106638568Y-112304869D01*
X106731487Y-111998556D01*
X106762862Y-111680000D01*
X106731487Y-111361444D01*
X106638568Y-111055131D01*
X106487675Y-110772830D01*
X106284608Y-110525392D01*
X106037170Y-110322325D01*
X105754869Y-110171432D01*
X105448556Y-110078513D01*
X105209824Y-110055000D01*
X103070176Y-110055000D01*
X102831444Y-110078513D01*
X102525131Y-110171432D01*
X102242830Y-110322325D01*
X101995392Y-110525392D01*
X101792325Y-110772830D01*
X101641432Y-111055131D01*
X101548513Y-111361444D01*
X101517138Y-111680000D01*
X95910000Y-111680000D01*
X95910000Y-107670000D01*
X101521928Y-107670000D01*
X101534188Y-107794482D01*
X101570498Y-107914180D01*
X101629463Y-108024494D01*
X101708815Y-108121185D01*
X101805506Y-108200537D01*
X101915820Y-108259502D01*
X102035518Y-108295812D01*
X102160000Y-108308072D01*
X103854250Y-108305000D01*
X104013000Y-108146250D01*
X104013000Y-106807000D01*
X104267000Y-106807000D01*
X104267000Y-108146250D01*
X104425750Y-108305000D01*
X106120000Y-108308072D01*
X106244482Y-108295812D01*
X106364180Y-108259502D01*
X106474494Y-108200537D01*
X106571185Y-108121185D01*
X106650537Y-108024494D01*
X106709502Y-107914180D01*
X106745812Y-107794482D01*
X106758072Y-107670000D01*
X106755000Y-106965750D01*
X106596250Y-106807000D01*
X104267000Y-106807000D01*
X104013000Y-106807000D01*
X101683750Y-106807000D01*
X101525000Y-106965750D01*
X101521928Y-107670000D01*
X95910000Y-107670000D01*
X95910000Y-106701895D01*
X95977210Y-105690000D01*
X101521928Y-105690000D01*
X101525000Y-106394250D01*
X101683750Y-106553000D01*
X104013000Y-106553000D01*
X104013000Y-105213750D01*
X104267000Y-105213750D01*
X104267000Y-106553000D01*
X106596250Y-106553000D01*
X106755000Y-106394250D01*
X106758072Y-105690000D01*
X106745812Y-105565518D01*
X106709502Y-105445820D01*
X106650537Y-105335506D01*
X106571185Y-105238815D01*
X106474494Y-105159463D01*
X106364180Y-105100498D01*
X106244482Y-105064188D01*
X106120000Y-105051928D01*
X104425750Y-105055000D01*
X104267000Y-105213750D01*
X104013000Y-105213750D01*
X103854250Y-105055000D01*
X102160000Y-105051928D01*
X102035518Y-105064188D01*
X101915820Y-105100498D01*
X101805506Y-105159463D01*
X101708815Y-105238815D01*
X101629463Y-105335506D01*
X101570498Y-105445820D01*
X101534188Y-105565518D01*
X101521928Y-105690000D01*
X95977210Y-105690000D01*
X95983738Y-105591723D01*
X96199318Y-104522562D01*
X96554407Y-103491311D01*
X97042768Y-102516076D01*
X97655819Y-101613999D01*
X98382790Y-100800928D01*
X99210907Y-100091145D01*
X100125627Y-99497120D01*
X101110871Y-99029291D01*
X102149332Y-98695877D01*
X103226186Y-98502121D01*
X104158438Y-98450000D01*
X149838105Y-98450000D01*
X150948277Y-98523738D01*
G37*
%TD.AperFunction*%
%TD*%
M02*
