<?xml version="1.0" standalone="no"?>
 <!DOCTYPE svg PUBLIC "-//W3C//DTD SVG 1.1//EN" 
 "http://www.w3.org/Graphics/SVG/1.1/DTD/svg11.dtd"> 
<svg
  xmlns:svg="http://www.w3.org/2000/svg"
  xmlns="http://www.w3.org/2000/svg"
  xmlns:xlink="http://www.w3.org/1999/xlink"
  version="1.1"
  width="29.700220cm" height="21.000720cm" viewBox="0 0 116930 82680">
<title>SVG Picture created as single_transistor_amp-F_Cu.svg date 2022/01/13 23:13:22 </title>
  <desc>Picture generated by PCBNEW </desc>
<g style="fill:#000000; fill-opacity:1;stroke:#000000; stroke-opacity:1;
stroke-linecap:round; stroke-linejoin:round;"
 transform="translate(0 0) scale(1 1)">
</g>
<g style="fill:#000000; fill-opacity:0.0; 
stroke:#000000; stroke-width:-0.000393701; stroke-opacity:1; 
stroke-linecap:round; stroke-linejoin:round;">
</g>
<g style="fill:#000000; fill-opacity:0.0; 
stroke:#000000; stroke-width:39.3701; stroke-opacity:1; 
stroke-linecap:round; stroke-linejoin:round;">
</g>
<g style="fill:#000000; fill-opacity:0.0; 
stroke:#000000; stroke-width:59.0551; stroke-opacity:1; 
stroke-linecap:round; stroke-linejoin:round;">
<rect x="69685.9" y="65357.2" width="42519.7" height="12598.4" rx="0" />
</g>
<g style="fill:#000000; fill-opacity:0.0; 
stroke:#000000; stroke-width:39.3701; stroke-opacity:1; 
stroke-linecap:round; stroke-linejoin:round;">
</g>
<g style="fill:#000000; fill-opacity:0.0; 
stroke:#000000; stroke-width:59.0551; stroke-opacity:1; 
stroke-linecap:round; stroke-linejoin:round;">
<rect x="3937.01" y="3937.01" width="109056" height="74806" rx="0" />
</g>
<g style="fill:#000000; fill-opacity:0.0; 
stroke:#000000; stroke-width:39.3701; stroke-opacity:1; 
stroke-linecap:round; stroke-linejoin:round;">
</g>
<g style="fill:#000000; fill-opacity:0.0; 
stroke:#000000; stroke-width:59.0551; stroke-opacity:1; 
stroke-linecap:round; stroke-linejoin:round;">
<rect x="4724.41" y="4724.41" width="107481" height="73231.2" rx="0" />
</g>
<g style="fill:#000000; fill-opacity:0.0; 
stroke:#000000; stroke-width:39.3701; stroke-opacity:1; 
stroke-linecap:round; stroke-linejoin:round;">
</g>
<g style="fill:#000000; fill-opacity:0.0; 
stroke:#000000; stroke-width:59.0551; stroke-opacity:1; 
stroke-linecap:round; stroke-linejoin:round;">
<path d="M23622 4724
L23622 3937
" />
</g>
<g style="fill:#000000; fill-opacity:0.0; 
stroke:#000000; stroke-width:39.3701; stroke-opacity:1; 
stroke-linecap:round; stroke-linejoin:round;">
</g>
<g style="fill:#000000; fill-opacity:0.0; 
stroke:#000000; stroke-width:59.0551; stroke-opacity:1; 
stroke-linecap:round; stroke-linejoin:round;">
<path d="M43307 4724
L43307 3937
" />
</g>
<g style="fill:#000000; fill-opacity:0.0; 
stroke:#000000; stroke-width:39.3701; stroke-opacity:1; 
stroke-linecap:round; stroke-linejoin:round;">
</g>
<g style="fill:#000000; fill-opacity:0.0; 
stroke:#000000; stroke-width:59.0551; stroke-opacity:1; 
stroke-linecap:round; stroke-linejoin:round;">
<path d="M62992 4724
L62992 3937
" />
</g>
<g style="fill:#000000; fill-opacity:0.0; 
stroke:#000000; stroke-width:39.3701; stroke-opacity:1; 
stroke-linecap:round; stroke-linejoin:round;">
</g>
<g style="fill:#000000; fill-opacity:0.0; 
stroke:#000000; stroke-width:59.0551; stroke-opacity:1; 
stroke-linecap:round; stroke-linejoin:round;">
<path d="M82677 4724
L82677 3937
" />
</g>
<g style="fill:#000000; fill-opacity:0.0; 
stroke:#000000; stroke-width:39.3701; stroke-opacity:1; 
stroke-linecap:round; stroke-linejoin:round;">
</g>
<g style="fill:#000000; fill-opacity:0.0; 
stroke:#000000; stroke-width:59.0551; stroke-opacity:1; 
stroke-linecap:round; stroke-linejoin:round;">
<path d="M102362 4724
L102362 3937
" />
</g>
<g style="fill:#000000; fill-opacity:0.0; 
stroke:#000000; stroke-width:39.3701; stroke-opacity:1; 
stroke-linecap:round; stroke-linejoin:round;">
</g>
<g style="fill:#000000; fill-opacity:0.0; 
stroke:#000000; stroke-width:59.0551; stroke-opacity:1; 
stroke-linecap:round; stroke-linejoin:round;">
<text x="13779.5" y="4586.61"
textLength="546.494" font-size="682.415" lengthAdjust="spacingAndGlyphs"
text-anchor="start" opacity="0">1</text>
<path d="M14199 4562
L13906 4562
" />
<path d="M14052 4562
L14052 4050
L14004 4123
L13955 4172
L13906 4196
" />
</g>
<g style="fill:#000000; fill-opacity:0.0; 
stroke:#000000; stroke-width:39.3701; stroke-opacity:1; 
stroke-linecap:round; stroke-linejoin:round;">
</g>
<g style="fill:#000000; fill-opacity:0.0; 
stroke:#000000; stroke-width:59.0551; stroke-opacity:1; 
stroke-linecap:round; stroke-linejoin:round;">
<text x="33464.6" y="4586.61"
textLength="546.494" font-size="682.415" lengthAdjust="spacingAndGlyphs"
text-anchor="start" opacity="0">2</text>
<path d="M33591 4099
L33615 4074
L33664 4050
L33786 4050
L33835 4074
L33859 4099
L33884 4147
L33884 4196
L33859 4269
L33567 4562
L33884 4562
" />
</g>
<g style="fill:#000000; fill-opacity:0.0; 
stroke:#000000; stroke-width:39.3701; stroke-opacity:1; 
stroke-linecap:round; stroke-linejoin:round;">
</g>
<g style="fill:#000000; fill-opacity:0.0; 
stroke:#000000; stroke-width:59.0551; stroke-opacity:1; 
stroke-linecap:round; stroke-linejoin:round;">
<text x="53149.6" y="4586.61"
textLength="546.494" font-size="682.415" lengthAdjust="spacingAndGlyphs"
text-anchor="start" opacity="0">3</text>
<path d="M53252 4050
L53569 4050
L53398 4245
L53471 4245
L53520 4269
L53544 4294
L53569 4342
L53569 4464
L53544 4513
L53520 4537
L53471 4562
L53325 4562
L53276 4537
L53252 4513
" />
</g>
<g style="fill:#000000; fill-opacity:0.0; 
stroke:#000000; stroke-width:39.3701; stroke-opacity:1; 
stroke-linecap:round; stroke-linejoin:round;">
</g>
<g style="fill:#000000; fill-opacity:0.0; 
stroke:#000000; stroke-width:59.0551; stroke-opacity:1; 
stroke-linecap:round; stroke-linejoin:round;">
<text x="72834.6" y="4586.61"
textLength="546.494" font-size="682.415" lengthAdjust="spacingAndGlyphs"
text-anchor="start" opacity="0">4</text>
<path d="M73205 4221
L73205 4562
" />
<path d="M73083 4026
L72961 4391
L73278 4391
" />
</g>
<g style="fill:#000000; fill-opacity:0.0; 
stroke:#000000; stroke-width:39.3701; stroke-opacity:1; 
stroke-linecap:round; stroke-linejoin:round;">
</g>
<g style="fill:#000000; fill-opacity:0.0; 
stroke:#000000; stroke-width:59.0551; stroke-opacity:1; 
stroke-linecap:round; stroke-linejoin:round;">
<text x="92519.7" y="4586.61"
textLength="546.494" font-size="682.415" lengthAdjust="spacingAndGlyphs"
text-anchor="start" opacity="0">5</text>
<path d="M92914 4050
L92671 4050
L92646 4294
L92671 4269
L92719 4245
L92841 4245
L92890 4269
L92914 4294
L92939 4342
L92939 4464
L92914 4513
L92890 4537
L92841 4562
L92719 4562
L92671 4537
L92646 4513
" />
</g>
<g style="fill:#000000; fill-opacity:0.0; 
stroke:#000000; stroke-width:39.3701; stroke-opacity:1; 
stroke-linecap:round; stroke-linejoin:round;">
</g>
<g style="fill:#000000; fill-opacity:0.0; 
stroke:#000000; stroke-width:59.0551; stroke-opacity:1; 
stroke-linecap:round; stroke-linejoin:round;">
<text x="112205" y="4586.61"
textLength="546.494" font-size="682.415" lengthAdjust="spacingAndGlyphs"
text-anchor="start" opacity="0">6</text>
<path d="M112575 4050
L112477 4050
L112429 4074
L112404 4099
L112356 4172
L112331 4269
L112331 4464
L112356 4513
L112380 4537
L112429 4562
L112526 4562
L112575 4537
L112599 4513
L112624 4464
L112624 4342
L112599 4294
L112575 4269
L112526 4245
L112429 4245
L112380 4269
L112356 4294
L112331 4342
" />
</g>
<g style="fill:#000000; fill-opacity:0.0; 
stroke:#000000; stroke-width:39.3701; stroke-opacity:1; 
stroke-linecap:round; stroke-linejoin:round;">
</g>
<g style="fill:#000000; fill-opacity:0.0; 
stroke:#000000; stroke-width:59.0551; stroke-opacity:1; 
stroke-linecap:round; stroke-linejoin:round;">
<path d="M23622 77955
L23622 78742
" />
</g>
<g style="fill:#000000; fill-opacity:0.0; 
stroke:#000000; stroke-width:39.3701; stroke-opacity:1; 
stroke-linecap:round; stroke-linejoin:round;">
</g>
<g style="fill:#000000; fill-opacity:0.0; 
stroke:#000000; stroke-width:59.0551; stroke-opacity:1; 
stroke-linecap:round; stroke-linejoin:round;">
<path d="M43307 77955
L43307 78742
" />
</g>
<g style="fill:#000000; fill-opacity:0.0; 
stroke:#000000; stroke-width:39.3701; stroke-opacity:1; 
stroke-linecap:round; stroke-linejoin:round;">
</g>
<g style="fill:#000000; fill-opacity:0.0; 
stroke:#000000; stroke-width:59.0551; stroke-opacity:1; 
stroke-linecap:round; stroke-linejoin:round;">
<path d="M62992 77955
L62992 78742
" />
</g>
<g style="fill:#000000; fill-opacity:0.0; 
stroke:#000000; stroke-width:39.3701; stroke-opacity:1; 
stroke-linecap:round; stroke-linejoin:round;">
</g>
<g style="fill:#000000; fill-opacity:0.0; 
stroke:#000000; stroke-width:59.0551; stroke-opacity:1; 
stroke-linecap:round; stroke-linejoin:round;">
<path d="M82677 77955
L82677 78742
" />
</g>
<g style="fill:#000000; fill-opacity:0.0; 
stroke:#000000; stroke-width:39.3701; stroke-opacity:1; 
stroke-linecap:round; stroke-linejoin:round;">
</g>
<g style="fill:#000000; fill-opacity:0.0; 
stroke:#000000; stroke-width:59.0551; stroke-opacity:1; 
stroke-linecap:round; stroke-linejoin:round;">
<path d="M102362 77955
L102362 78742
" />
</g>
<g style="fill:#000000; fill-opacity:0.0; 
stroke:#000000; stroke-width:39.3701; stroke-opacity:1; 
stroke-linecap:round; stroke-linejoin:round;">
</g>
<g style="fill:#000000; fill-opacity:0.0; 
stroke:#000000; stroke-width:59.0551; stroke-opacity:1; 
stroke-linecap:round; stroke-linejoin:round;">
<text x="13779.5" y="78605.2"
textLength="546.494" font-size="682.415" lengthAdjust="spacingAndGlyphs"
text-anchor="start" opacity="0">1</text>
<path d="M14199 78580
L13906 78580
" />
<path d="M14052 78580
L14052 78069
L14004 78142
L13955 78190
L13906 78215
" />
</g>
<g style="fill:#000000; fill-opacity:0.0; 
stroke:#000000; stroke-width:39.3701; stroke-opacity:1; 
stroke-linecap:round; stroke-linejoin:round;">
</g>
<g style="fill:#000000; fill-opacity:0.0; 
stroke:#000000; stroke-width:59.0551; stroke-opacity:1; 
stroke-linecap:round; stroke-linejoin:round;">
<text x="33464.6" y="78605.2"
textLength="546.494" font-size="682.415" lengthAdjust="spacingAndGlyphs"
text-anchor="start" opacity="0">2</text>
<path d="M33591 78117
L33615 78093
L33664 78069
L33786 78069
L33835 78093
L33859 78117
L33884 78166
L33884 78215
L33859 78288
L33567 78580
L33884 78580
" />
</g>
<g style="fill:#000000; fill-opacity:0.0; 
stroke:#000000; stroke-width:39.3701; stroke-opacity:1; 
stroke-linecap:round; stroke-linejoin:round;">
</g>
<g style="fill:#000000; fill-opacity:0.0; 
stroke:#000000; stroke-width:59.0551; stroke-opacity:1; 
stroke-linecap:round; stroke-linejoin:round;">
<text x="53149.6" y="78605.2"
textLength="546.494" font-size="682.415" lengthAdjust="spacingAndGlyphs"
text-anchor="start" opacity="0">3</text>
<path d="M53252 78069
L53569 78069
L53398 78263
L53471 78263
L53520 78288
L53544 78312
L53569 78361
L53569 78483
L53544 78532
L53520 78556
L53471 78580
L53325 78580
L53276 78556
L53252 78532
" />
</g>
<g style="fill:#000000; fill-opacity:0.0; 
stroke:#000000; stroke-width:39.3701; stroke-opacity:1; 
stroke-linecap:round; stroke-linejoin:round;">
</g>
<g style="fill:#000000; fill-opacity:0.0; 
stroke:#000000; stroke-width:59.0551; stroke-opacity:1; 
stroke-linecap:round; stroke-linejoin:round;">
<text x="72834.6" y="78605.2"
textLength="546.494" font-size="682.415" lengthAdjust="spacingAndGlyphs"
text-anchor="start" opacity="0">4</text>
<path d="M73205 78239
L73205 78580
" />
<path d="M73083 78044
L72961 78410
L73278 78410
" />
</g>
<g style="fill:#000000; fill-opacity:0.0; 
stroke:#000000; stroke-width:39.3701; stroke-opacity:1; 
stroke-linecap:round; stroke-linejoin:round;">
</g>
<g style="fill:#000000; fill-opacity:0.0; 
stroke:#000000; stroke-width:59.0551; stroke-opacity:1; 
stroke-linecap:round; stroke-linejoin:round;">
<text x="92519.7" y="78605.2"
textLength="546.494" font-size="682.415" lengthAdjust="spacingAndGlyphs"
text-anchor="start" opacity="0">5</text>
<path d="M92914 78069
L92671 78069
L92646 78312
L92671 78288
L92719 78263
L92841 78263
L92890 78288
L92914 78312
L92939 78361
L92939 78483
L92914 78532
L92890 78556
L92841 78580
L92719 78580
L92671 78556
L92646 78532
" />
</g>
<g style="fill:#000000; fill-opacity:0.0; 
stroke:#000000; stroke-width:39.3701; stroke-opacity:1; 
stroke-linecap:round; stroke-linejoin:round;">
</g>
<g style="fill:#000000; fill-opacity:0.0; 
stroke:#000000; stroke-width:59.0551; stroke-opacity:1; 
stroke-linecap:round; stroke-linejoin:round;">
<text x="112205" y="78605.2"
textLength="546.494" font-size="682.415" lengthAdjust="spacingAndGlyphs"
text-anchor="start" opacity="0">6</text>
<path d="M112575 78069
L112477 78069
L112429 78093
L112404 78117
L112356 78190
L112331 78288
L112331 78483
L112356 78532
L112380 78556
L112429 78580
L112526 78580
L112575 78556
L112599 78532
L112624 78483
L112624 78361
L112599 78312
L112575 78288
L112526 78263
L112429 78263
L112380 78288
L112356 78312
L112331 78361
" />
</g>
<g style="fill:#000000; fill-opacity:0.0; 
stroke:#000000; stroke-width:39.3701; stroke-opacity:1; 
stroke-linecap:round; stroke-linejoin:round;">
</g>
<g style="fill:#000000; fill-opacity:0.0; 
stroke:#000000; stroke-width:59.0551; stroke-opacity:1; 
stroke-linecap:round; stroke-linejoin:round;">
<path d="M3937 23622
L4724 23622
" />
</g>
<g style="fill:#000000; fill-opacity:0.0; 
stroke:#000000; stroke-width:39.3701; stroke-opacity:1; 
stroke-linecap:round; stroke-linejoin:round;">
</g>
<g style="fill:#000000; fill-opacity:0.0; 
stroke:#000000; stroke-width:59.0551; stroke-opacity:1; 
stroke-linecap:round; stroke-linejoin:round;">
<path d="M3937 43307
L4724 43307
" />
</g>
<g style="fill:#000000; fill-opacity:0.0; 
stroke:#000000; stroke-width:39.3701; stroke-opacity:1; 
stroke-linecap:round; stroke-linejoin:round;">
</g>
<g style="fill:#000000; fill-opacity:0.0; 
stroke:#000000; stroke-width:59.0551; stroke-opacity:1; 
stroke-linecap:round; stroke-linejoin:round;">
<path d="M3937 62992
L4724 62992
" />
</g>
<g style="fill:#000000; fill-opacity:0.0; 
stroke:#000000; stroke-width:39.3701; stroke-opacity:1; 
stroke-linecap:round; stroke-linejoin:round;">
</g>
<g style="fill:#000000; fill-opacity:0.0; 
stroke:#000000; stroke-width:59.0551; stroke-opacity:1; 
stroke-linecap:round; stroke-linejoin:round;">
<text x="4330.71" y="14035.4"
textLength="497.75" font-size="682.415" lengthAdjust="spacingAndGlyphs"
text-anchor="middle" opacity="0">A</text>
<path d="M4208 13864
L4452 13864
" />
<path d="M4160 14011
L4330 13499
L4501 14011
" />
</g>
<g style="fill:#000000; fill-opacity:0.0; 
stroke:#000000; stroke-width:39.3701; stroke-opacity:1; 
stroke-linecap:round; stroke-linejoin:round;">
</g>
<g style="fill:#000000; fill-opacity:0.0; 
stroke:#000000; stroke-width:59.0551; stroke-opacity:1; 
stroke-linecap:round; stroke-linejoin:round;">
<text x="4330.71" y="33720.5"
textLength="570.866" font-size="682.415" lengthAdjust="spacingAndGlyphs"
text-anchor="middle" opacity="0">B</text>
<path d="M4367 33428
L4440 33452
L4464 33476
L4489 33525
L4489 33598
L4464 33647
L4440 33671
L4391 33696
L4196 33696
L4196 33184
L4367 33184
L4416 33208
L4440 33233
L4464 33281
L4464 33330
L4440 33379
L4416 33403
L4367 33428
L4196 33428
" />
</g>
<g style="fill:#000000; fill-opacity:0.0; 
stroke:#000000; stroke-width:39.3701; stroke-opacity:1; 
stroke-linecap:round; stroke-linejoin:round;">
</g>
<g style="fill:#000000; fill-opacity:0.0; 
stroke:#000000; stroke-width:59.0551; stroke-opacity:1; 
stroke-linecap:round; stroke-linejoin:round;">
<text x="4330.71" y="53405.5"
textLength="570.866" font-size="682.415" lengthAdjust="spacingAndGlyphs"
text-anchor="middle" opacity="0">C</text>
<path d="M4489 53332
L4464 53356
L4391 53381
L4342 53381
L4269 53356
L4221 53308
L4196 53259
L4172 53161
L4172 53088
L4196 52991
L4221 52942
L4269 52893
L4342 52869
L4391 52869
L4464 52893
L4489 52918
" />
</g>
<g style="fill:#000000; fill-opacity:0.0; 
stroke:#000000; stroke-width:39.3701; stroke-opacity:1; 
stroke-linecap:round; stroke-linejoin:round;">
</g>
<g style="fill:#000000; fill-opacity:0.0; 
stroke:#000000; stroke-width:59.0551; stroke-opacity:1; 
stroke-linecap:round; stroke-linejoin:round;">
<text x="4330.71" y="73090.6"
textLength="570.866" font-size="682.415" lengthAdjust="spacingAndGlyphs"
text-anchor="middle" opacity="0">D</text>
<path d="M4196 73066
L4196 72554
L4318 72554
L4391 72578
L4440 72627
L4464 72676
L4489 72773
L4489 72846
L4464 72944
L4440 72993
L4391 73041
L4318 73066
L4196 73066
" />
</g>
<g style="fill:#000000; fill-opacity:0.0; 
stroke:#000000; stroke-width:39.3701; stroke-opacity:1; 
stroke-linecap:round; stroke-linejoin:round;">
</g>
<g style="fill:#000000; fill-opacity:0.0; 
stroke:#000000; stroke-width:59.0551; stroke-opacity:1; 
stroke-linecap:round; stroke-linejoin:round;">
<path d="M112992 23622
L112205 23622
" />
</g>
<g style="fill:#000000; fill-opacity:0.0; 
stroke:#000000; stroke-width:39.3701; stroke-opacity:1; 
stroke-linecap:round; stroke-linejoin:round;">
</g>
<g style="fill:#000000; fill-opacity:0.0; 
stroke:#000000; stroke-width:59.0551; stroke-opacity:1; 
stroke-linecap:round; stroke-linejoin:round;">
<path d="M112992 43307
L112205 43307
" />
</g>
<g style="fill:#000000; fill-opacity:0.0; 
stroke:#000000; stroke-width:39.3701; stroke-opacity:1; 
stroke-linecap:round; stroke-linejoin:round;">
</g>
<g style="fill:#000000; fill-opacity:0.0; 
stroke:#000000; stroke-width:59.0551; stroke-opacity:1; 
stroke-linecap:round; stroke-linejoin:round;">
<path d="M112992 62992
L112205 62992
" />
</g>
<g style="fill:#000000; fill-opacity:0.0; 
stroke:#000000; stroke-width:39.3701; stroke-opacity:1; 
stroke-linecap:round; stroke-linejoin:round;">
</g>
<g style="fill:#000000; fill-opacity:0.0; 
stroke:#000000; stroke-width:59.0551; stroke-opacity:1; 
stroke-linecap:round; stroke-linejoin:round;">
<text x="112599" y="14035.4"
textLength="497.75" font-size="682.415" lengthAdjust="spacingAndGlyphs"
text-anchor="middle" opacity="0">A</text>
<path d="M112477 13864
L112721 13864
" />
<path d="M112428 14011
L112599 13499
L112769 14011
" />
</g>
<g style="fill:#000000; fill-opacity:0.0; 
stroke:#000000; stroke-width:39.3701; stroke-opacity:1; 
stroke-linecap:round; stroke-linejoin:round;">
</g>
<g style="fill:#000000; fill-opacity:0.0; 
stroke:#000000; stroke-width:59.0551; stroke-opacity:1; 
stroke-linecap:round; stroke-linejoin:round;">
<text x="112599" y="33720.5"
textLength="570.866" font-size="682.415" lengthAdjust="spacingAndGlyphs"
text-anchor="middle" opacity="0">B</text>
<path d="M112635 33428
L112708 33452
L112733 33476
L112757 33525
L112757 33598
L112733 33647
L112708 33671
L112660 33696
L112465 33696
L112465 33184
L112635 33184
L112684 33208
L112708 33233
L112733 33281
L112733 33330
L112708 33379
L112684 33403
L112635 33428
L112465 33428
" />
</g>
<g style="fill:#000000; fill-opacity:0.0; 
stroke:#000000; stroke-width:39.3701; stroke-opacity:1; 
stroke-linecap:round; stroke-linejoin:round;">
</g>
<g style="fill:#000000; fill-opacity:0.0; 
stroke:#000000; stroke-width:59.0551; stroke-opacity:1; 
stroke-linecap:round; stroke-linejoin:round;">
<text x="112599" y="53405.5"
textLength="570.866" font-size="682.415" lengthAdjust="spacingAndGlyphs"
text-anchor="middle" opacity="0">C</text>
<path d="M112757 53332
L112733 53356
L112660 53381
L112611 53381
L112538 53356
L112489 53308
L112465 53259
L112440 53161
L112440 53088
L112465 52991
L112489 52942
L112538 52893
L112611 52869
L112660 52869
L112733 52893
L112757 52918
" />
</g>
<g style="fill:#000000; fill-opacity:0.0; 
stroke:#000000; stroke-width:39.3701; stroke-opacity:1; 
stroke-linecap:round; stroke-linejoin:round;">
</g>
<g style="fill:#000000; fill-opacity:0.0; 
stroke:#000000; stroke-width:59.0551; stroke-opacity:1; 
stroke-linecap:round; stroke-linejoin:round;">
<text x="112599" y="73090.6"
textLength="570.866" font-size="682.415" lengthAdjust="spacingAndGlyphs"
text-anchor="middle" opacity="0">D</text>
<path d="M112465 73066
L112465 72554
L112587 72554
L112660 72578
L112708 72627
L112733 72676
L112757 72773
L112757 72846
L112733 72944
L112708 72993
L112660 73041
L112587 73066
L112465 73066
" />
</g>
<g style="fill:#000000; fill-opacity:0.0; 
stroke:#000000; stroke-width:39.3701; stroke-opacity:1; 
stroke-linecap:round; stroke-linejoin:round;">
</g>
<g style="fill:#000000; fill-opacity:0.0; 
stroke:#000000; stroke-width:59.0551; stroke-opacity:1; 
stroke-linecap:round; stroke-linejoin:round;">
<text x="78741" y="76321.7"
textLength="8720.47" font-size="787.402" lengthAdjust="spacingAndGlyphs"
text-anchor="start" opacity="0">Date: 2021-12-08</text>
<path d="M78911 76293
L78911 75703
L79051 75703
L79136 75731
L79192 75787
L79220 75843
L79248 75956
L79248 76040
L79220 76153
L79192 76209
L79136 76265
L79051 76293
L78911 76293
" />
<path d="M79754 76293
L79754 75984
L79726 75928
L79670 75899
L79557 75899
L79501 75928
" />
<path d="M79754 76265
L79698 76293
L79557 76293
L79501 76265
L79473 76209
L79473 76153
L79501 76096
L79557 76068
L79698 76068
L79754 76040
" />
<path d="M79951 75899
L80176 75899
" />
<path d="M80036 75703
L80036 76209
L80064 76265
L80120 76293
L80176 76293
" />
<path d="M80598 76265
L80542 76293
L80429 76293
L80373 76265
L80345 76209
L80345 75984
L80373 75928
L80429 75899
L80542 75899
L80598 75928
L80626 75984
L80626 76040
L80345 76096
" />
<path d="M80879 76237
L80907 76265
L80879 76293
L80851 76265
L80879 76237
L80879 76293
" />
<path d="M80879 75928
L80907 75956
L80879 75984
L80851 75956
L80879 75928
L80879 75984
" />
<path d="M81582 75759
L81610 75731
L81667 75703
L81807 75703
L81863 75731
L81892 75759
L81920 75815
L81920 75871
L81892 75956
L81554 76293
L81920 76293
" />
<path d="M82285 75703
L82341 75703
L82398 75731
L82426 75759
L82454 75815
L82482 75928
L82482 76068
L82454 76181
L82426 76237
L82398 76265
L82341 76293
L82285 76293
L82229 76265
L82201 76237
L82173 76181
L82145 76068
L82145 75928
L82173 75815
L82201 75759
L82229 75731
L82285 75703
" />
<path d="M82707 75759
L82735 75731
L82791 75703
L82932 75703
L82988 75731
L83016 75759
L83045 75815
L83045 75871
L83016 75956
L82679 76293
L83045 76293
" />
<path d="M83607 76293
L83269 76293
" />
<path d="M83438 76293
L83438 75703
L83382 75787
L83326 75843
L83269 75871
" />
<path d="M83860 76068
L84310 76068
" />
<path d="M84901 76293
L84563 76293
" />
<path d="M84732 76293
L84732 75703
L84676 75787
L84619 75843
L84563 75871
" />
<path d="M85126 75759
L85154 75731
L85210 75703
L85350 75703
L85407 75731
L85435 75759
L85463 75815
L85463 75871
L85435 75956
L85097 76293
L85463 76293
" />
<path d="M85716 76068
L86166 76068
" />
<path d="M86560 75703
L86616 75703
L86672 75731
L86700 75759
L86728 75815
L86757 75928
L86757 76068
L86728 76181
L86700 76237
L86672 76265
L86616 76293
L86560 76293
L86503 76265
L86475 76237
L86447 76181
L86419 76068
L86419 75928
L86447 75815
L86475 75759
L86503 75731
L86560 75703
" />
<path d="M87094 75956
L87038 75928
L87010 75899
L86982 75843
L86982 75815
L87010 75759
L87038 75731
L87094 75703
L87206 75703
L87263 75731
L87291 75759
L87319 75815
L87319 75843
L87291 75899
L87263 75928
L87206 75956
L87094 75956
L87038 75984
L87010 76012
L86982 76068
L86982 76181
L87010 76237
L87038 76265
L87094 76293
L87206 76293
L87263 76265
L87291 76237
L87319 76181
L87319 76068
L87291 76012
L87263 75984
L87206 75956
" />
</g>
<g style="fill:#000000; fill-opacity:0.0; 
stroke:#000000; stroke-width:39.3701; stroke-opacity:1; 
stroke-linecap:round; stroke-linejoin:round;">
</g>
<g style="fill:#000000; fill-opacity:0.0; 
stroke:#000000; stroke-width:59.0551; stroke-opacity:1; 
stroke-linecap:round; stroke-linejoin:round;">
<path d="M69685 76577
L112205 76577
" />
</g>
<g style="fill:#000000; fill-opacity:0.0; 
stroke:#000000; stroke-width:39.3701; stroke-opacity:1; 
stroke-linecap:round; stroke-linejoin:round;">
</g>
<g style="fill:#000000; fill-opacity:0.0; 
stroke:#000000; stroke-width:59.0551; stroke-opacity:1; 
stroke-linecap:round; stroke-linejoin:round;">
<text x="70079.6" y="77424.1"
textLength="14429.1" font-size="787.402" lengthAdjust="spacingAndGlyphs"
text-anchor="start" opacity="0">KiCad E.D.A.  pcbnew (5.1.7)-1</text>
<path d="M70249 77395
L70249 76805
" />
<path d="M70587 77395
L70334 77058
" />
<path d="M70587 76805
L70249 77142
" />
<path d="M70840 77395
L70840 77002
" />
<path d="M70840 76805
L70812 76833
L70840 76861
L70868 76833
L70840 76805
L70840 76861
" />
<path d="M71458 77339
L71430 77367
L71346 77395
L71290 77395
L71205 77367
L71149 77311
L71121 77255
L71093 77142
L71093 77058
L71121 76946
L71149 76889
L71205 76833
L71290 76805
L71346 76805
L71430 76833
L71458 76861
" />
<path d="M71965 77395
L71965 77086
L71937 77030
L71880 77002
L71768 77002
L71712 77030
" />
<path d="M71965 77367
L71908 77395
L71768 77395
L71712 77367
L71683 77311
L71683 77255
L71712 77199
L71768 77171
L71908 77171
L71965 77142
" />
<path d="M72499 77395
L72499 76805
" />
<path d="M72499 77367
L72443 77395
L72330 77395
L72274 77367
L72246 77339
L72218 77283
L72218 77114
L72246 77058
L72274 77030
L72330 77002
L72443 77002
L72499 77030
" />
<path d="M73230 77086
L73427 77086
" />
<path d="M73511 77395
L73230 77395
L73230 76805
L73511 76805
" />
<path d="M73764 77339
L73793 77367
L73764 77395
L73736 77367
L73764 77339
L73764 77395
" />
<path d="M74046 77395
L74046 76805
L74186 76805
L74271 76833
L74327 76889
L74355 76946
L74383 77058
L74383 77142
L74355 77255
L74327 77311
L74271 77367
L74186 77395
L74046 77395
" />
<path d="M74636 77339
L74664 77367
L74636 77395
L74608 77367
L74636 77339
L74636 77395
" />
<path d="M74889 77227
L75171 77227
" />
<path d="M74833 77395
L75030 76805
L75227 77395
" />
<path d="M75424 77339
L75452 77367
L75424 77395
L75395 77367
L75424 77339
L75424 77395
" />
<path d="M76605 77002
L76605 77592
" />
<path d="M76605 77030
L76661 77002
L76773 77002
L76830 77030
L76858 77058
L76886 77114
L76886 77283
L76858 77339
L76830 77367
L76773 77395
L76661 77395
L76605 77367
" />
<path d="M77392 77367
L77336 77395
L77223 77395
L77167 77367
L77139 77339
L77111 77283
L77111 77114
L77139 77058
L77167 77030
L77223 77002
L77336 77002
L77392 77030
" />
<path d="M77645 77395
L77645 76805
" />
<path d="M77645 77030
L77701 77002
L77814 77002
L77870 77030
L77898 77058
L77926 77114
L77926 77283
L77898 77339
L77870 77367
L77814 77395
L77701 77395
L77645 77367
" />
<path d="M78180 77002
L78180 77395
" />
<path d="M78180 77058
L78208 77030
L78264 77002
L78348 77002
L78404 77030
L78433 77086
L78433 77395
" />
<path d="M78939 77367
L78883 77395
L78770 77395
L78714 77367
L78686 77311
L78686 77086
L78714 77030
L78770 77002
L78883 77002
L78939 77030
L78967 77086
L78967 77142
L78686 77199
" />
<path d="M79164 77002
L79276 77395
L79389 77114
L79501 77395
L79614 77002
" />
<path d="M80457 77620
L80429 77592
L80373 77508
L80345 77452
L80317 77367
L80289 77227
L80289 77114
L80317 76974
L80345 76889
L80373 76833
L80429 76749
L80457 76721
" />
<path d="M80964 76805
L80682 76805
L80654 77086
L80682 77058
L80739 77030
L80879 77030
L80935 77058
L80964 77086
L80992 77142
L80992 77283
L80964 77339
L80935 77367
L80879 77395
L80739 77395
L80682 77367
L80654 77339
" />
<path d="M81245 77339
L81273 77367
L81245 77395
L81217 77367
L81245 77339
L81245 77395
" />
<path d="M81835 77395
L81498 77395
" />
<path d="M81667 77395
L81667 76805
L81610 76889
L81554 76946
L81498 76974
" />
<path d="M82088 77339
L82117 77367
L82088 77395
L82060 77367
L82088 77339
L82088 77395
" />
<path d="M82313 76805
L82707 76805
L82454 77395
" />
<path d="M82876 77620
L82904 77592
L82960 77508
L82988 77452
L83016 77367
L83045 77227
L83045 77114
L83016 76974
L82988 76889
L82960 76833
L82904 76749
L82876 76721
" />
<path d="M83326 77171
L83776 77171
" />
<path d="M84366 77395
L84029 77395
" />
<path d="M84197 77395
L84197 76805
L84141 76889
L84085 76946
L84029 76974
" />
</g>
<g style="fill:#000000; fill-opacity:0.0; 
stroke:#000000; stroke-width:39.3701; stroke-opacity:1; 
stroke-linecap:round; stroke-linejoin:round;">
</g>
<g style="fill:#000000; fill-opacity:0.0; 
stroke:#000000; stroke-width:59.0551; stroke-opacity:1; 
stroke-linecap:round; stroke-linejoin:round;">
<path d="M69685 75396
L112205 75396
" />
</g>
<g style="fill:#000000; fill-opacity:0.0; 
stroke:#000000; stroke-width:39.3701; stroke-opacity:1; 
stroke-linecap:round; stroke-linejoin:round;">
</g>
<g style="fill:#000000; fill-opacity:0.0; 
stroke:#000000; stroke-width:118.11; stroke-opacity:1; 
stroke-linecap:round; stroke-linejoin:round;">
<text x="103544" y="76321.7"
textLength="4249.16" font-size="787.402" lengthAdjust="spacingAndGlyphs"
text-anchor="start" opacity="0">Rev: V1.0</text>
<path d="M104099 76293
L103902 76012
" />
<path d="M103761 76293
L103761 75703
L103986 75703
L104042 75731
L104070 75759
L104099 75815
L104099 75899
L104070 75956
L104042 75984
L103986 76012
L103761 76012
" />
<path d="M104577 76265
L104520 76293
L104408 76293
L104352 76265
L104323 76209
L104323 75984
L104352 75928
L104408 75899
L104520 75899
L104577 75928
L104605 75984
L104605 76040
L104323 76096
" />
<path d="M104802 75899
L104942 76293
L105083 75899
" />
<path d="M105308 76237
L105336 76265
L105308 76293
L105280 76265
L105308 76237
L105308 76293
" />
<path d="M105308 75928
L105336 75956
L105308 75984
L105280 75956
L105308 75928
L105308 75984
" />
<path d="M105955 75703
L106151 76293
L106348 75703
" />
<path d="M106854 76293
L106517 76293
" />
<path d="M106686 76293
L106686 75703
L106629 75787
L106573 75843
L106517 75871
" />
<path d="M107108 76237
L107136 76265
L107108 76293
L107079 76265
L107108 76237
L107108 76293
" />
<path d="M107501 75703
L107557 75703
L107614 75731
L107642 75759
L107670 75815
L107698 75928
L107698 76068
L107670 76181
L107642 76237
L107614 76265
L107557 76293
L107501 76293
L107445 76265
L107417 76237
L107389 76181
L107361 76068
L107361 75928
L107389 75815
L107417 75759
L107445 75731
L107501 75703
" />
</g>
<g style="fill:#000000; fill-opacity:0.0; 
stroke:#000000; stroke-width:39.3701; stroke-opacity:1; 
stroke-linecap:round; stroke-linejoin:round;">
</g>
<g style="fill:#000000; fill-opacity:0.0; 
stroke:#000000; stroke-width:59.0551; stroke-opacity:1; 
stroke-linecap:round; stroke-linejoin:round;">
<text x="70079.6" y="76321.7"
textLength="3781.21" font-size="787.402" lengthAdjust="spacingAndGlyphs"
text-anchor="start" opacity="0">Size: A4</text>
<path d="M70221 76265
L70305 76293
L70446 76293
L70502 76265
L70530 76237
L70559 76181
L70559 76124
L70530 76068
L70502 76040
L70446 76012
L70334 75984
L70277 75956
L70249 75928
L70221 75871
L70221 75815
L70249 75759
L70277 75731
L70334 75703
L70474 75703
L70559 75731
" />
<path d="M70812 76293
L70812 75899
" />
<path d="M70812 75703
L70784 75731
L70812 75759
L70840 75731
L70812 75703
L70812 75759
" />
<path d="M71037 75899
L71346 75899
L71037 76293
L71346 76293
" />
<path d="M71796 76265
L71740 76293
L71627 76293
L71571 76265
L71543 76209
L71543 75984
L71571 75928
L71627 75899
L71740 75899
L71796 75928
L71824 75984
L71824 76040
L71543 76096
" />
<path d="M72077 76237
L72105 76265
L72077 76293
L72049 76265
L72077 76237
L72077 76293
" />
<path d="M72077 75928
L72105 75956
L72077 75984
L72049 75956
L72077 75928
L72077 75984
" />
<path d="M72780 76124
L73061 76124
" />
<path d="M72724 76293
L72921 75703
L73118 76293
" />
<path d="M73568 75899
L73568 76293
" />
<path d="M73427 75674
L73286 76096
L73652 76096
" />
</g>
<g style="fill:#000000; fill-opacity:0.0; 
stroke:#000000; stroke-width:39.3701; stroke-opacity:1; 
stroke-linecap:round; stroke-linejoin:round;">
</g>
<g style="fill:#000000; fill-opacity:0.0; 
stroke:#000000; stroke-width:59.0551; stroke-opacity:1; 
stroke-linecap:round; stroke-linejoin:round;">
<text x="103544" y="77424.1"
textLength="3349.27" font-size="787.402" lengthAdjust="spacingAndGlyphs"
text-anchor="start" opacity="0">Id: 1/1</text>
<path d="M103714 77395
L103714 76805
" />
<path d="M104248 77395
L104248 76805
" />
<path d="M104248 77367
L104192 77395
L104079 77395
L104023 77367
L103995 77339
L103967 77283
L103967 77114
L103995 77058
L104023 77030
L104079 77002
L104192 77002
L104248 77030
" />
<path d="M104529 77339
L104557 77367
L104529 77395
L104501 77367
L104529 77339
L104529 77395
" />
<path d="M104529 77030
L104557 77058
L104529 77086
L104501 77058
L104529 77030
L104529 77086
" />
<path d="M105570 77395
L105232 77395
" />
<path d="M105401 77395
L105401 76805
L105345 76889
L105289 76946
L105232 76974
" />
<path d="M106245 76777
L105739 77536
" />
<path d="M106751 77395
L106413 77395
" />
<path d="M106582 77395
L106582 76805
L106526 76889
L106470 76946
L106413 76974
" />
</g>
<g style="fill:#000000; fill-opacity:0.0; 
stroke:#000000; stroke-width:39.3701; stroke-opacity:1; 
stroke-linecap:round; stroke-linejoin:round;">
</g>
<g style="fill:#000000; fill-opacity:0.0; 
stroke:#000000; stroke-width:59.0551; stroke-opacity:1; 
stroke-linecap:round; stroke-linejoin:round;">
<path d="M69685 73821
L112205 73821
" />
</g>
<g style="fill:#000000; fill-opacity:0.0; 
stroke:#000000; stroke-width:39.3701; stroke-opacity:1; 
stroke-linecap:round; stroke-linejoin:round;">
</g>
<g style="fill:#000000; fill-opacity:0.0; 
stroke:#000000; stroke-width:157.48; stroke-opacity:1; 
stroke-linecap:round; stroke-linejoin:round;">
<text x="70079.6" y="74924.1"
textLength="8425.55" font-size="1049.87" lengthAdjust="spacingAndGlyphs"
text-anchor="start" opacity="0">Title: TestPCB</text>
<path d="M70360 74099
L70810 74099
" />
<path d="M70486 74886
L70585 74099
" />
<path d="M70974 74886
L71039 74361
" />
<path d="M71072 74099
L71030 74136
L71063 74174
L71105 74136
L71072 74099
L71063 74174
" />
<path d="M71302 74361
L71602 74361
" />
<path d="M71447 74099
L71363 74774
L71391 74849
L71461 74886
L71536 74886
" />
<path d="M71911 74886
L71841 74849
L71813 74774
L71897 74099
" />
<path d="M72516 74849
L72436 74886
L72286 74886
L72216 74849
L72187 74774
L72225 74474
L72272 74399
L72352 74361
L72501 74361
L72572 74399
L72600 74474
L72591 74549
L72206 74624
" />
<path d="M72895 74811
L72928 74849
L72886 74886
L72853 74849
L72895 74811
L72886 74886
" />
<path d="M72947 74399
L72980 74436
L72937 74474
L72905 74436
L72947 74399
L72937 74474
" />
<path d="M73847 74099
L74297 74099
" />
<path d="M73973 74886
L74072 74099
" />
<path d="M74765 74849
L74686 74886
L74536 74886
L74465 74849
L74437 74774
L74475 74474
L74522 74399
L74601 74361
L74751 74361
L74822 74399
L74850 74474
L74840 74549
L74456 74624
" />
<path d="M75103 74849
L75173 74886
L75323 74886
L75403 74849
L75450 74774
L75454 74736
L75426 74661
L75356 74624
L75243 74624
L75173 74586
L75145 74511
L75150 74474
L75196 74399
L75276 74361
L75389 74361
L75459 74399
" />
<path d="M75726 74361
L76026 74361
" />
<path d="M75871 74099
L75787 74774
L75815 74849
L75885 74886
L75960 74886
" />
<path d="M76223 74886
L76321 74099
L76621 74099
L76692 74136
L76724 74174
L76753 74249
L76738 74361
L76692 74436
L76649 74474
L76570 74511
L76270 74511
" />
<path d="M77470 74811
L77427 74849
L77310 74886
L77235 74886
L77127 74849
L77062 74774
L77034 74699
L77015 74549
L77029 74436
L77085 74286
L77132 74211
L77217 74136
L77334 74099
L77409 74099
L77516 74136
L77549 74174
" />
<path d="M78112 74474
L78220 74511
L78252 74549
L78280 74624
L78266 74736
L78220 74811
L78177 74849
L78098 74886
L77798 74886
L77896 74099
L78159 74099
L78229 74136
L78262 74174
L78290 74249
L78280 74324
L78234 74399
L78191 74436
L78112 74474
L77849 74474
" />
</g>
<g style="fill:#000000; fill-opacity:0.0; 
stroke:#000000; stroke-width:39.3701; stroke-opacity:1; 
stroke-linecap:round; stroke-linejoin:round;">
</g>
<g style="fill:#000000; fill-opacity:0.0; 
stroke:#000000; stroke-width:59.0551; stroke-opacity:1; 
stroke-linecap:round; stroke-linejoin:round;">
<text x="70079.6" y="73408.3"
textLength="16824.5" font-size="787.402" lengthAdjust="spacingAndGlyphs"
text-anchor="start" opacity="0">File: single_transistor_amp.kicad_pcb</text>
<path d="M70446 73070
L70249 73070
" />
<path d="M70249 73380
L70249 72789
L70530 72789
" />
<path d="M70755 73380
L70755 72986
" />
<path d="M70755 72789
L70727 72817
L70755 72845
L70784 72817
L70755 72789
L70755 72845
" />
<path d="M71121 73380
L71065 73352
L71037 73295
L71037 72789
" />
<path d="M71571 73352
L71515 73380
L71402 73380
L71346 73352
L71318 73295
L71318 73070
L71346 73014
L71402 72986
L71515 72986
L71571 73014
L71599 73070
L71599 73127
L71318 73183
" />
<path d="M71852 73323
L71880 73352
L71852 73380
L71824 73352
L71852 73323
L71852 73380
" />
<path d="M71852 73014
L71880 73042
L71852 73070
L71824 73042
L71852 73014
L71852 73070
" />
<path d="M72555 73352
L72611 73380
L72724 73380
L72780 73352
L72808 73295
L72808 73267
L72780 73211
L72724 73183
L72640 73183
L72583 73155
L72555 73099
L72555 73070
L72583 73014
L72640 72986
L72724 72986
L72780 73014
" />
<path d="M73061 73380
L73061 72986
" />
<path d="M73061 72789
L73033 72817
L73061 72845
L73090 72817
L73061 72789
L73061 72845
" />
<path d="M73343 72986
L73343 73380
" />
<path d="M73343 73042
L73371 73014
L73427 72986
L73511 72986
L73568 73014
L73596 73070
L73596 73380
" />
<path d="M74130 72986
L74130 73464
L74102 73520
L74074 73548
L74018 73577
L73933 73577
L73877 73548
" />
<path d="M74130 73352
L74074 73380
L73961 73380
L73905 73352
L73877 73323
L73849 73267
L73849 73099
L73877 73042
L73905 73014
L73961 72986
L74074 72986
L74130 73014
" />
<path d="M74496 73380
L74439 73352
L74411 73295
L74411 72789
" />
<path d="M74946 73352
L74889 73380
L74777 73380
L74721 73352
L74692 73295
L74692 73070
L74721 73014
L74777 72986
L74889 72986
L74946 73014
L74974 73070
L74974 73127
L74692 73183
" />
<path d="M75086 73436
L75536 73436
" />
<path d="M75592 72986
L75817 72986
" />
<path d="M75677 72789
L75677 73295
L75705 73352
L75761 73380
L75817 73380
" />
<path d="M76014 73380
L76014 72986
" />
<path d="M76014 73099
L76042 73042
L76070 73014
L76127 72986
L76183 72986
" />
<path d="M76633 73380
L76633 73070
L76605 73014
L76548 72986
L76436 72986
L76380 73014
" />
<path d="M76633 73352
L76577 73380
L76436 73380
L76380 73352
L76352 73295
L76352 73239
L76380 73183
L76436 73155
L76577 73155
L76633 73127
" />
<path d="M76914 72986
L76914 73380
" />
<path d="M76914 73042
L76942 73014
L76998 72986
L77083 72986
L77139 73014
L77167 73070
L77167 73380
" />
<path d="M77420 73352
L77476 73380
L77589 73380
L77645 73352
L77673 73295
L77673 73267
L77645 73211
L77589 73183
L77505 73183
L77448 73155
L77420 73099
L77420 73070
L77448 73014
L77505 72986
L77589 72986
L77645 73014
" />
<path d="M77926 73380
L77926 72986
" />
<path d="M77926 72789
L77898 72817
L77926 72845
L77955 72817
L77926 72789
L77926 72845
" />
<path d="M78180 73352
L78236 73380
L78348 73380
L78404 73352
L78433 73295
L78433 73267
L78404 73211
L78348 73183
L78264 73183
L78208 73155
L78180 73099
L78180 73070
L78208 73014
L78264 72986
L78348 72986
L78404 73014
" />
<path d="M78601 72986
L78826 72986
" />
<path d="M78686 72789
L78686 73295
L78714 73352
L78770 73380
L78826 73380
" />
<path d="M79108 73380
L79051 73352
L79023 73323
L78995 73267
L78995 73099
L79023 73042
L79051 73014
L79108 72986
L79192 72986
L79248 73014
L79276 73042
L79304 73099
L79304 73267
L79276 73323
L79248 73352
L79192 73380
L79108 73380
" />
<path d="M79557 73380
L79557 72986
" />
<path d="M79557 73099
L79586 73042
L79614 73014
L79670 72986
L79726 72986
" />
<path d="M79782 73436
L80232 73436
" />
<path d="M80626 73380
L80626 73070
L80598 73014
L80542 72986
L80429 72986
L80373 73014
" />
<path d="M80626 73352
L80570 73380
L80429 73380
L80373 73352
L80345 73295
L80345 73239
L80373 73183
L80429 73155
L80570 73155
L80626 73127
" />
<path d="M80907 73380
L80907 72986
" />
<path d="M80907 73042
L80935 73014
L80992 72986
L81076 72986
L81132 73014
L81160 73070
L81160 73380
" />
<path d="M81160 73070
L81188 73014
L81245 72986
L81329 72986
L81385 73014
L81413 73070
L81413 73380
" />
<path d="M81695 72986
L81695 73577
" />
<path d="M81695 73014
L81751 72986
L81863 72986
L81920 73014
L81948 73042
L81976 73099
L81976 73267
L81948 73323
L81920 73352
L81863 73380
L81751 73380
L81695 73352
" />
<path d="M82229 73323
L82257 73352
L82229 73380
L82201 73352
L82229 73323
L82229 73380
" />
<path d="M82510 73380
L82510 72789
" />
<path d="M82566 73155
L82735 73380
" />
<path d="M82735 72986
L82510 73211
" />
<path d="M82988 73380
L82988 72986
" />
<path d="M82988 72789
L82960 72817
L82988 72845
L83016 72817
L82988 72789
L82988 72845
" />
<path d="M83523 73352
L83466 73380
L83354 73380
L83298 73352
L83269 73323
L83241 73267
L83241 73099
L83269 73042
L83298 73014
L83354 72986
L83466 72986
L83523 73014
" />
<path d="M84029 73380
L84029 73070
L84001 73014
L83944 72986
L83832 72986
L83776 73014
" />
<path d="M84029 73352
L83973 73380
L83832 73380
L83776 73352
L83748 73295
L83748 73239
L83776 73183
L83832 73155
L83973 73155
L84029 73127
" />
<path d="M84563 73380
L84563 72789
" />
<path d="M84563 73352
L84507 73380
L84394 73380
L84338 73352
L84310 73323
L84282 73267
L84282 73099
L84310 73042
L84338 73014
L84394 72986
L84507 72986
L84563 73014
" />
<path d="M84704 73436
L85154 73436
" />
<path d="M85294 72986
L85294 73577
" />
<path d="M85294 73014
L85350 72986
L85463 72986
L85519 73014
L85547 73042
L85575 73099
L85575 73267
L85547 73323
L85519 73352
L85463 73380
L85350 73380
L85294 73352
" />
<path d="M86082 73352
L86025 73380
L85913 73380
L85857 73352
L85829 73323
L85800 73267
L85800 73099
L85829 73042
L85857 73014
L85913 72986
L86025 72986
L86082 73014
" />
<path d="M86335 73380
L86335 72789
" />
<path d="M86335 73014
L86391 72986
L86503 72986
L86560 73014
L86588 73042
L86616 73099
L86616 73267
L86588 73323
L86560 73352
L86503 73380
L86391 73380
L86335 73352
" />
</g>
<g style="fill:#000000; fill-opacity:0.0; 
stroke:#000000; stroke-width:39.3701; stroke-opacity:1; 
stroke-linecap:round; stroke-linejoin:round;">
</g>
<g style="fill:#000000; fill-opacity:0.0; 
stroke:#000000; stroke-width:59.0551; stroke-opacity:1; 
stroke-linecap:round; stroke-linejoin:round;">
<path d="M69685 71459
L112205 71459
" />
</g>
<g style="fill:#000000; fill-opacity:0.0; 
stroke:#000000; stroke-width:39.3701; stroke-opacity:1; 
stroke-linecap:round; stroke-linejoin:round;">
</g>
<g style="fill:#000000; fill-opacity:0.0; 
stroke:#000000; stroke-width:59.0551; stroke-opacity:1; 
stroke-linecap:round; stroke-linejoin:round;">
<text x="70079.6" y="72345.4"
textLength="3236.78" font-size="787.402" lengthAdjust="spacingAndGlyphs"
text-anchor="start" opacity="0">Sheet: </text>
<path d="M70221 72289
L70305 72317
L70446 72317
L70502 72289
L70530 72260
L70559 72204
L70559 72148
L70530 72092
L70502 72064
L70446 72036
L70334 72007
L70277 71979
L70249 71951
L70221 71895
L70221 71839
L70249 71782
L70277 71754
L70334 71726
L70474 71726
L70559 71754
" />
<path d="M70812 72317
L70812 71726
" />
<path d="M71065 72317
L71065 72007
L71037 71951
L70980 71923
L70896 71923
L70840 71951
L70812 71979
" />
<path d="M71571 72289
L71515 72317
L71402 72317
L71346 72289
L71318 72232
L71318 72007
L71346 71951
L71402 71923
L71515 71923
L71571 71951
L71599 72007
L71599 72064
L71318 72120
" />
<path d="M72077 72289
L72021 72317
L71908 72317
L71852 72289
L71824 72232
L71824 72007
L71852 71951
L71908 71923
L72021 71923
L72077 71951
L72105 72007
L72105 72064
L71824 72120
" />
<path d="M72274 71923
L72499 71923
" />
<path d="M72358 71726
L72358 72232
L72386 72289
L72443 72317
L72499 72317
" />
<path d="M72696 72260
L72724 72289
L72696 72317
L72668 72289
L72696 72260
L72696 72317
" />
<path d="M72696 71951
L72724 71979
L72696 72007
L72668 71979
L72696 71951
L72696 72007
" />
</g>
<g style="fill:#000000; fill-opacity:0.0; 
stroke:#000000; stroke-width:39.3701; stroke-opacity:1; 
stroke-linecap:round; stroke-linejoin:round;">
</g>
<g style="fill:#000000; fill-opacity:0.0; 
stroke:#000000; stroke-width:118.11; stroke-opacity:1; 
stroke-linecap:round; stroke-linejoin:round;">
<text x="70079.6" y="71164.3"
textLength="9198.54" font-size="787.402" lengthAdjust="spacingAndGlyphs"
text-anchor="start" opacity="0">Ventspils Augstskola</text>
<path d="M70212 70545
L70409 71136
L70606 70545
" />
<path d="M71028 71108
L70971 71136
L70859 71136
L70803 71108
L70775 71051
L70775 70826
L70803 70770
L70859 70742
L70971 70742
L71028 70770
L71056 70826
L71056 70883
L70775 70939
" />
<path d="M71309 70742
L71309 71136
" />
<path d="M71309 70798
L71337 70770
L71393 70742
L71478 70742
L71534 70770
L71562 70826
L71562 71136
" />
<path d="M71759 70742
L71984 70742
" />
<path d="M71843 70545
L71843 71051
L71871 71108
L71928 71136
L71984 71136
" />
<path d="M72153 71108
L72209 71136
L72321 71136
L72377 71108
L72406 71051
L72406 71023
L72377 70967
L72321 70939
L72237 70939
L72181 70911
L72153 70854
L72153 70826
L72181 70770
L72237 70742
L72321 70742
L72377 70770
" />
<path d="M72659 70742
L72659 71332
" />
<path d="M72659 70770
L72715 70742
L72827 70742
L72884 70770
L72912 70798
L72940 70854
L72940 71023
L72912 71079
L72884 71108
L72827 71136
L72715 71136
L72659 71108
" />
<path d="M73193 71136
L73193 70742
" />
<path d="M73193 70545
L73165 70573
L73193 70601
L73221 70573
L73193 70545
L73193 70601
" />
<path d="M73559 71136
L73502 71108
L73474 71051
L73474 70545
" />
<path d="M73755 71108
L73812 71136
L73924 71136
L73980 71108
L74009 71051
L74009 71023
L73980 70967
L73924 70939
L73840 70939
L73784 70911
L73755 70854
L73755 70826
L73784 70770
L73840 70742
L73924 70742
L73980 70770
" />
<path d="M74683 70967
L74965 70967
" />
<path d="M74627 71136
L74824 70545
L75021 71136
" />
<path d="M75471 70742
L75471 71136
" />
<path d="M75218 70742
L75218 71051
L75246 71108
L75302 71136
L75386 71136
L75443 71108
L75471 71079
" />
<path d="M76005 70742
L76005 71220
L75977 71276
L75949 71304
L75893 71332
L75808 71332
L75752 71304
" />
<path d="M76005 71108
L75949 71136
L75836 71136
L75780 71108
L75752 71079
L75724 71023
L75724 70854
L75752 70798
L75780 70770
L75836 70742
L75949 70742
L76005 70770
" />
<path d="M76258 71108
L76314 71136
L76427 71136
L76483 71108
L76511 71051
L76511 71023
L76483 70967
L76427 70939
L76343 70939
L76286 70911
L76258 70854
L76258 70826
L76286 70770
L76343 70742
L76427 70742
L76483 70770
" />
<path d="M76680 70742
L76905 70742
" />
<path d="M76764 70545
L76764 71051
L76793 71108
L76849 71136
L76905 71136
" />
<path d="M77074 71108
L77130 71136
L77242 71136
L77299 71108
L77327 71051
L77327 71023
L77299 70967
L77242 70939
L77158 70939
L77102 70911
L77074 70854
L77074 70826
L77102 70770
L77158 70742
L77242 70742
L77299 70770
" />
<path d="M77580 71136
L77580 70545
" />
<path d="M77636 70911
L77805 71136
" />
<path d="M77805 70742
L77580 70967
" />
<path d="M78142 71136
L78086 71108
L78058 71079
L78030 71023
L78030 70854
L78058 70798
L78086 70770
L78142 70742
L78227 70742
L78283 70770
L78311 70798
L78339 70854
L78339 71023
L78311 71079
L78283 71108
L78227 71136
L78142 71136
" />
<path d="M78677 71136
L78620 71108
L78592 71051
L78592 70545
" />
<path d="M79155 71136
L79155 70826
L79127 70770
L79070 70742
L78958 70742
L78902 70770
" />
<path d="M79155 71108
L79099 71136
L78958 71136
L78902 71108
L78874 71051
L78874 70995
L78902 70939
L78958 70911
L79099 70911
L79155 70883
" />
</g>
<g style="fill:#000000; fill-opacity:0.0; 
stroke:#000000; stroke-width:39.3701; stroke-opacity:1; 
stroke-linecap:round; stroke-linejoin:round;">
</g>
<g style="fill:#000000; fill-opacity:0.0; 
stroke:#000000; stroke-width:59.0551; stroke-opacity:1; 
stroke-linecap:round; stroke-linejoin:round;">
<text x="70079.6" y="69983.1"
textLength="7183.91" font-size="787.402" lengthAdjust="spacingAndGlyphs"
text-anchor="start" opacity="0">Kristers Cipkins</text>
<path d="M70249 69955
L70249 69364
" />
<path d="M70587 69955
L70334 69617
" />
<path d="M70587 69364
L70249 69701
" />
<path d="M70840 69955
L70840 69561
" />
<path d="M70840 69673
L70868 69617
L70896 69589
L70952 69561
L71009 69561
" />
<path d="M71205 69955
L71205 69561
" />
<path d="M71205 69364
L71177 69392
L71205 69420
L71233 69392
L71205 69364
L71205 69420
" />
<path d="M71458 69926
L71515 69955
L71627 69955
L71683 69926
L71712 69870
L71712 69842
L71683 69786
L71627 69758
L71543 69758
L71487 69730
L71458 69673
L71458 69645
L71487 69589
L71543 69561
L71627 69561
L71683 69589
" />
<path d="M71880 69561
L72105 69561
" />
<path d="M71965 69364
L71965 69870
L71993 69926
L72049 69955
L72105 69955
" />
<path d="M72527 69926
L72471 69955
L72358 69955
L72302 69926
L72274 69870
L72274 69645
L72302 69589
L72358 69561
L72471 69561
L72527 69589
L72555 69645
L72555 69701
L72274 69758
" />
<path d="M72808 69955
L72808 69561
" />
<path d="M72808 69673
L72836 69617
L72865 69589
L72921 69561
L72977 69561
" />
<path d="M73146 69926
L73202 69955
L73314 69955
L73371 69926
L73399 69870
L73399 69842
L73371 69786
L73314 69758
L73230 69758
L73174 69730
L73146 69673
L73146 69645
L73174 69589
L73230 69561
L73314 69561
L73371 69589
" />
<path d="M74439 69898
L74411 69926
L74327 69955
L74271 69955
L74186 69926
L74130 69870
L74102 69814
L74074 69701
L74074 69617
L74102 69505
L74130 69448
L74186 69392
L74271 69364
L74327 69364
L74411 69392
L74439 69420
" />
<path d="M74692 69955
L74692 69561
" />
<path d="M74692 69364
L74664 69392
L74692 69420
L74721 69392
L74692 69364
L74692 69420
" />
<path d="M74974 69561
L74974 70151
" />
<path d="M74974 69589
L75030 69561
L75142 69561
L75199 69589
L75227 69617
L75255 69673
L75255 69842
L75227 69898
L75199 69926
L75142 69955
L75030 69955
L74974 69926
" />
<path d="M75508 69955
L75508 69364
" />
<path d="M75564 69730
L75733 69955
" />
<path d="M75733 69561
L75508 69786
" />
<path d="M75986 69955
L75986 69561
" />
<path d="M75986 69364
L75958 69392
L75986 69420
L76014 69392
L75986 69364
L75986 69420
" />
<path d="M76267 69561
L76267 69955
" />
<path d="M76267 69617
L76295 69589
L76352 69561
L76436 69561
L76492 69589
L76520 69645
L76520 69955
" />
<path d="M76773 69926
L76830 69955
L76942 69955
L76998 69926
L77027 69870
L77027 69842
L76998 69786
L76942 69758
L76858 69758
L76802 69730
L76773 69673
L76773 69645
L76802 69589
L76858 69561
L76942 69561
L76998 69589
" />
</g>
<g style="fill:#000000; fill-opacity:0.0; 
stroke:#000000; stroke-width:39.3701; stroke-opacity:1; 
stroke-linecap:round; stroke-linejoin:round;">
</g>
<g style="fill:#000000; fill-opacity:0.0; 
stroke:#000000; stroke-width:59.0551; stroke-opacity:1; 
stroke-linecap:round; stroke-linejoin:round;">
<text x="70079.6" y="68802"
textLength="2814.96" font-size="787.402" lengthAdjust="spacingAndGlyphs"
text-anchor="start" opacity="0">Autors</text>
<path d="M70221 68605
L70502 68605
" />
<path d="M70165 68773
L70362 68183
L70559 68773
" />
<path d="M71009 68380
L71009 68773
" />
<path d="M70755 68380
L70755 68689
L70784 68745
L70840 68773
L70924 68773
L70980 68745
L71009 68717
" />
<path d="M71205 68380
L71430 68380
" />
<path d="M71290 68183
L71290 68689
L71318 68745
L71374 68773
L71430 68773
" />
<path d="M71712 68773
L71655 68745
L71627 68717
L71599 68661
L71599 68492
L71627 68436
L71655 68408
L71712 68380
L71796 68380
L71852 68408
L71880 68436
L71908 68492
L71908 68661
L71880 68717
L71852 68745
L71796 68773
L71712 68773
" />
<path d="M72162 68773
L72162 68380
" />
<path d="M72162 68492
L72190 68436
L72218 68408
L72274 68380
L72330 68380
" />
<path d="M72499 68745
L72555 68773
L72668 68773
L72724 68745
L72752 68689
L72752 68661
L72724 68605
L72668 68577
L72583 68577
L72527 68548
L72499 68492
L72499 68464
L72527 68408
L72583 68380
L72668 68380
L72724 68408
" />
</g>
<g style="fill:#000000; fill-opacity:0.0; 
stroke:#000000; stroke-width:39.3701; stroke-opacity:1; 
stroke-linecap:round; stroke-linejoin:round;">
</g>
<g style="fill:#000000; fill-opacity:0.0; 
stroke:#000000; stroke-width:59.0551; stroke-opacity:1; 
stroke-linecap:round; stroke-linejoin:round;">
<text x="70079.6" y="67620.9"
textLength="6751.97" font-size="787.402" lengthAdjust="spacingAndGlyphs"
text-anchor="start" opacity="0">PCB_CAD kurss</text>
<path d="M70249 67592
L70249 67002
L70474 67002
L70530 67030
L70559 67058
L70587 67114
L70587 67199
L70559 67255
L70530 67283
L70474 67311
L70249 67311
" />
<path d="M71177 67536
L71149 67564
L71065 67592
L71009 67592
L70924 67564
L70868 67508
L70840 67452
L70812 67339
L70812 67255
L70840 67142
L70868 67086
L70924 67030
L71009 67002
L71065 67002
L71149 67030
L71177 67058
" />
<path d="M71627 67283
L71712 67311
L71740 67339
L71768 67395
L71768 67480
L71740 67536
L71712 67564
L71655 67592
L71430 67592
L71430 67002
L71627 67002
L71683 67030
L71712 67058
L71740 67114
L71740 67171
L71712 67227
L71683 67255
L71627 67283
L71430 67283
" />
<path d="M71880 67649
L72330 67649
" />
<path d="M72808 67536
L72780 67564
L72696 67592
L72640 67592
L72555 67564
L72499 67508
L72471 67452
L72443 67339
L72443 67255
L72471 67142
L72499 67086
L72555 67030
L72640 67002
L72696 67002
L72780 67030
L72808 67058
" />
<path d="M73033 67424
L73314 67424
" />
<path d="M72977 67592
L73174 67002
L73371 67592
" />
<path d="M73568 67592
L73568 67002
L73708 67002
L73793 67030
L73849 67086
L73877 67142
L73905 67255
L73905 67339
L73877 67452
L73849 67508
L73793 67564
L73708 67592
L73568 67592
" />
<path d="M74608 67592
L74608 67002
" />
<path d="M74664 67367
L74833 67592
" />
<path d="M74833 67199
L74608 67424
" />
<path d="M75339 67199
L75339 67592
" />
<path d="M75086 67199
L75086 67508
L75114 67564
L75171 67592
L75255 67592
L75311 67564
L75339 67536
" />
<path d="M75620 67592
L75620 67199
" />
<path d="M75620 67311
L75649 67255
L75677 67227
L75733 67199
L75789 67199
" />
<path d="M75958 67564
L76014 67592
L76127 67592
L76183 67564
L76211 67508
L76211 67480
L76183 67424
L76127 67395
L76042 67395
L75986 67367
L75958 67311
L75958 67283
L75986 67227
L76042 67199
L76127 67199
L76183 67227
" />
<path d="M76436 67564
L76492 67592
L76605 67592
L76661 67564
L76689 67508
L76689 67480
L76661 67424
L76605 67395
L76520 67395
L76464 67367
L76436 67311
L76436 67283
L76464 67227
L76520 67199
L76605 67199
L76661 67227
" />
</g>
<g style="fill:#000000; fill-opacity:0.0; 
stroke:#000000; stroke-width:39.3701; stroke-opacity:1; 
stroke-linecap:round; stroke-linejoin:round;">
</g>
<g style="fill:#000000; fill-opacity:0.0; 
stroke:#000000; stroke-width:59.0551; stroke-opacity:1; 
stroke-linecap:round; stroke-linejoin:round;">
<path d="M77559 75396
L77559 76577
" />
</g>
<g style="fill:#000000; fill-opacity:0.0; 
stroke:#000000; stroke-width:39.3701; stroke-opacity:1; 
stroke-linecap:round; stroke-linejoin:round;">
</g>
<g style="fill:#000000; fill-opacity:0.0; 
stroke:#000000; stroke-width:59.0551; stroke-opacity:1; 
stroke-linecap:round; stroke-linejoin:round;">
<path d="M102756 75396
L102756 77955
" />
<g >
</g>
<g style="fill:#848400; fill-opacity:0.0; 
stroke:#848400; stroke-width:59.0551; stroke-opacity:1; 
stroke-linecap:round; stroke-linejoin:round;">
</g>
<g style="fill:#848400; fill-opacity:1.0; 
stroke:#848400; stroke-width:0; stroke-opacity:1; 
stroke-linecap:round; stroke-linejoin:round;">
<circle cx="59000" cy="50000" r="2000" /> 
</g>
<g style="fill:#848400; fill-opacity:1.0; 
stroke:#848400; stroke-width:39.3701; stroke-opacity:1; 
stroke-linecap:round; stroke-linejoin:round;">
</g>
<g >
</g>
<g style="fill:#848400; fill-opacity:1.0; 
stroke:#848400; stroke-width:39.3701; stroke-opacity:1; 
stroke-linecap:round; stroke-linejoin:round;">
</g>
<g style="fill:#848400; fill-opacity:1.0; 
stroke:#848400; stroke-width:0; stroke-opacity:1; 
stroke-linecap:round; stroke-linejoin:round;">
<circle cx="41000" cy="50000" r="2000" /> 
</g>
<g style="fill:#848400; fill-opacity:1.0; 
stroke:#848400; stroke-width:39.3701; stroke-opacity:1; 
stroke-linecap:round; stroke-linejoin:round;">
</g>
<g >
</g>
<g style="fill:#848400; fill-opacity:1.0; 
stroke:#848400; stroke-width:39.3701; stroke-opacity:1; 
stroke-linecap:round; stroke-linejoin:round;">
</g>
<g style="fill:#848400; fill-opacity:1.0; 
stroke:#848400; stroke-width:0; stroke-opacity:1; 
stroke-linecap:round; stroke-linejoin:round;">
<circle cx="47500" cy="49500" r="314.961" /> 
</g>
<g style="fill:#848400; fill-opacity:1.0; 
stroke:#848400; stroke-width:39.3701; stroke-opacity:1; 
stroke-linecap:round; stroke-linejoin:round;">
</g>
<g style="fill:#848400; fill-opacity:1.0; 
stroke:#848400; stroke-width:0; stroke-opacity:1; 
stroke-linecap:round; stroke-linejoin:round;">
<circle cx="45531.5" cy="49500" r="314.961" /> 
</g>
<g style="fill:#848400; fill-opacity:1.0; 
stroke:#848400; stroke-width:39.3701; stroke-opacity:1; 
stroke-linecap:round; stroke-linejoin:round;">
</g>
<g >
</g>
<g style="fill:#848400; fill-opacity:1.0; 
stroke:#848400; stroke-width:39.3701; stroke-opacity:1; 
stroke-linecap:round; stroke-linejoin:round;">
</g>
<g style="fill:#848400; fill-opacity:1.0; 
stroke:#848400; stroke-width:0; stroke-opacity:1; 
stroke-linecap:round; stroke-linejoin:round;">
<circle cx="52531.5" cy="49500" r="314.961" /> 
</g>
<g style="fill:#848400; fill-opacity:1.0; 
stroke:#848400; stroke-width:39.3701; stroke-opacity:1; 
stroke-linecap:round; stroke-linejoin:round;">
</g>
<g style="fill:#848400; fill-opacity:1.0; 
stroke:#848400; stroke-width:0; stroke-opacity:1; 
stroke-linecap:round; stroke-linejoin:round;">
<circle cx="54500" cy="49500" r="314.961" /> 
</g>
<g style="fill:#848400; fill-opacity:1.0; 
stroke:#848400; stroke-width:39.3701; stroke-opacity:1; 
stroke-linecap:round; stroke-linejoin:round;">
</g>
<g >
</g>
<g style="fill:#848400; fill-opacity:1.0; 
stroke:#848400; stroke-width:39.3701; stroke-opacity:1; 
stroke-linecap:round; stroke-linejoin:round;">
</g>
<g style="fill:#848400; fill-opacity:1.0; 
stroke:#848400; stroke-width:0; stroke-opacity:1; 
stroke-linecap:round; stroke-linejoin:round;">
<circle cx="51000" cy="52500" r="314.961" /> 
</g>
<g style="fill:#848400; fill-opacity:1.0; 
stroke:#848400; stroke-width:39.3701; stroke-opacity:1; 
stroke-linecap:round; stroke-linejoin:round;">
</g>
<g style="fill:#848400; fill-opacity:1.0; 
stroke:#848400; stroke-width:0; stroke-opacity:1; 
stroke-linecap:round; stroke-linejoin:round;">
<circle cx="49031.5" cy="52500" r="314.961" /> 
</g>
<g style="fill:#848400; fill-opacity:1.0; 
stroke:#848400; stroke-width:39.3701; stroke-opacity:1; 
stroke-linecap:round; stroke-linejoin:round;">
</g>
<g >
</g>
<g style="fill:#848400; fill-opacity:1.0; 
stroke:#848400; stroke-width:39.3701; stroke-opacity:1; 
stroke-linecap:round; stroke-linejoin:round;">
</g>
<g style="fill:#848400; fill-opacity:1.0; 
stroke:#848400; stroke-width:0; stroke-opacity:1; 
stroke-linecap:round; stroke-linejoin:round;">
<path style="fill:#848400; fill-opacity:1.0; 
stroke:#848400; stroke-width:0; stroke-opacity:1; 
stroke-linecap:round; stroke-linejoin:round;fill-rule:evenodd;"
d="M 40220.5,41610.2
41779.5,41610.2
41779.5,42389.8
40220.5,42389.8
Z" /> 
</g>
<g style="fill:#848400; fill-opacity:1.0; 
stroke:#848400; stroke-width:779.528; stroke-opacity:1; 
stroke-linecap:round; stroke-linejoin:round;">
</g>
<g style="fill:#848400; fill-opacity:0.0; 
stroke:#848400; stroke-width:779.528; stroke-opacity:1; 
stroke-linecap:round; stroke-linejoin:round;">
<path d="M41389 43968
L40610 43968
" />
</g>
<g >
</g>
<g style="fill:#848400; fill-opacity:0.0; 
stroke:#848400; stroke-width:779.528; stroke-opacity:1; 
stroke-linecap:round; stroke-linejoin:round;">
<path d="M58610 42031
L59389 42031
" />
</g>
<g style="fill:#848400; fill-opacity:0.0; 
stroke:#848400; stroke-width:0; stroke-opacity:1; 
stroke-linecap:round; stroke-linejoin:round;">
</g>
<g style="fill:#848400; fill-opacity:1.0; 
stroke:#848400; stroke-width:0; stroke-opacity:1; 
stroke-linecap:round; stroke-linejoin:round;">
<path style="fill:#848400; fill-opacity:1.0; 
stroke:#848400; stroke-width:0; stroke-opacity:1; 
stroke-linecap:round; stroke-linejoin:round;fill-rule:evenodd;"
d="M 59779.5,44389.8
58220.5,44389.8
58220.5,43610.2
59779.5,43610.2
Z" /> 
</g>
<g >
</g>
<g style="fill:#848400; fill-opacity:1.0; 
stroke:#848400; stroke-width:0; stroke-opacity:1; 
stroke-linecap:round; stroke-linejoin:round;">
</g>
<g style="fill:#848400; fill-opacity:1.0; 
stroke:#848400; stroke-width:413.386; stroke-opacity:1; 
stroke-linecap:round; stroke-linejoin:round;">
</g>
<g style="fill:#848400; fill-opacity:0.0; 
stroke:#848400; stroke-width:413.386; stroke-opacity:1; 
stroke-linecap:round; stroke-linejoin:round;">
<path d="M50000 49588
L50000 49411
" />
<path d="M49500 49588
L49500 49411
" />
</g>
<g style="fill:#848400; fill-opacity:0.0; 
stroke:#848400; stroke-width:0; stroke-opacity:1; 
stroke-linecap:round; stroke-linejoin:round;">
</g>
<g style="fill:#848400; fill-opacity:1.0; 
stroke:#848400; stroke-width:0; stroke-opacity:1; 
stroke-linecap:round; stroke-linejoin:round;">
<path style="fill:#848400; fill-opacity:1.0; 
stroke:#848400; stroke-width:0; stroke-opacity:1; 
stroke-linecap:round; stroke-linejoin:round;fill-rule:evenodd;"
d="M 50706.7,49204.7
50706.7,49795.3
50293.3,49795.3
50293.3,49204.7
Z" /> 
</g>
<g >
</g>
<g style="fill:#848400; fill-opacity:1.0; 
stroke:#848400; stroke-width:0; stroke-opacity:1; 
stroke-linecap:round; stroke-linejoin:round;">
<circle cx="45500" cy="47000" r="314.961" /> 
<circle cx="45500" cy="41000" r="314.961" /> 
</g>
<g style="fill:#848400; fill-opacity:1.0; 
stroke:#848400; stroke-width:39.3701; stroke-opacity:1; 
stroke-linecap:round; stroke-linejoin:round;">
</g>
<g >
</g>
<g style="fill:#848400; fill-opacity:1.0; 
stroke:#848400; stroke-width:39.3701; stroke-opacity:1; 
stroke-linecap:round; stroke-linejoin:round;">
</g>
<g style="fill:#848400; fill-opacity:1.0; 
stroke:#848400; stroke-width:0; stroke-opacity:1; 
stroke-linecap:round; stroke-linejoin:round;">
<circle cx="51500" cy="47000" r="314.961" /> 
</g>
<g style="fill:#848400; fill-opacity:1.0; 
stroke:#848400; stroke-width:39.3701; stroke-opacity:1; 
stroke-linecap:round; stroke-linejoin:round;">
</g>
<g style="fill:#848400; fill-opacity:1.0; 
stroke:#848400; stroke-width:0; stroke-opacity:1; 
stroke-linecap:round; stroke-linejoin:round;">
<circle cx="51500" cy="41000" r="314.961" /> 
</g>
<g >
</g>
<g style="fill:#848400; fill-opacity:1.0; 
stroke:#848400; stroke-width:0; stroke-opacity:1; 
stroke-linecap:round; stroke-linejoin:round;">
<circle cx="48500" cy="41000" r="314.961" /> 
</g>
<g style="fill:#848400; fill-opacity:1.0; 
stroke:#848400; stroke-width:39.3701; stroke-opacity:1; 
stroke-linecap:round; stroke-linejoin:round;">
</g>
<g style="fill:#848400; fill-opacity:1.0; 
stroke:#848400; stroke-width:0; stroke-opacity:1; 
stroke-linecap:round; stroke-linejoin:round;">
<circle cx="48500" cy="47000" r="314.961" /> 
</g>
<g >
</g>
<g style="fill:#848400; fill-opacity:1.0; 
stroke:#848400; stroke-width:0; stroke-opacity:1; 
stroke-linecap:round; stroke-linejoin:round;">
<circle cx="54500" cy="41000" r="314.961" /> 
<circle cx="54500" cy="47000" r="314.961" /> 
</g>
<g style="fill:#848400; fill-opacity:1.0; 
stroke:#848400; stroke-width:39.3701; stroke-opacity:1; 
stroke-linecap:round; stroke-linejoin:round;">
</g>
<g >
</g>
<g >
</g>
<g style="fill:#840000; fill-opacity:1.0; 
stroke:#840000; stroke-width:39.3701; stroke-opacity:1; 
stroke-linecap:round; stroke-linejoin:round;">
</g>
<g style="fill:#840000; fill-opacity:1.0; 
stroke:#840000; stroke-width:98.4252; stroke-opacity:1; 
stroke-linecap:round; stroke-linejoin:round;">
</g>
<g style="fill:#840000; fill-opacity:0.0; 
stroke:#840000; stroke-width:98.4252; stroke-opacity:1; 
stroke-linecap:round; stroke-linejoin:round;">
<path d="M45500 47500
L47500 49500
" />
<path d="M45500 47000
L45500 47500
" />
<path d="M45531 49500
L44500 49500
" />
<path d="M41000 46000
L41000 43968
" />
<path d="M44500 49500
L41000 46000
" />
<path d="M50500 49500
L52531 49500
" />
<path d="M48500 47106
L48500 47000
" />
<path d="M50500 49106
L48500 47106
" />
<path d="M50500 49500
L50500 49106
" />
<path d="M59000 45000
L54500 49500
" />
<path d="M59000 44000
L59000 45000
" />
</g>
<g style="fill:#840000; fill-opacity:0.0; 
stroke:#840000; stroke-width:118.11; stroke-opacity:1; 
stroke-linecap:round; stroke-linejoin:round;">
<path d="M57968 41000
L59000 42031
" />
<path d="M54500 41000
L57968 41000
" />
<path d="M54500 41000
L51500 41000
" />
<path d="M43000 40000
L41000 42000
" />
<path d="M50500 40000
L43000 40000
" />
<path d="M51500 41000
L50500 40000
" />
</g>
<g style="fill:#840000; fill-opacity:0.0; 
stroke:#840000; stroke-width:98.4252; stroke-opacity:1; 
stroke-linecap:round; stroke-linejoin:round;">
<path d="M49500 52031
L49031 52500
" />
<path d="M49500 49500
L49500 52031
" />
</g>
<g style="fill:#840000; fill-opacity:0.0; 
stroke:#840000; stroke-width:118.11; stroke-opacity:1; 
stroke-linecap:round; stroke-linejoin:round;">
<path d="M48500 41000
L45500 41000
" />
</g>
<g >
</g>
<g style="fill:#840000; fill-opacity:0.0; 
stroke:#840000; stroke-width:118.11; stroke-opacity:1; 
stroke-linecap:round; stroke-linejoin:round;">
<g >
</g>
<g style="fill:#840000; fill-opacity:1.0; 
stroke:#840000; stroke-width:100; stroke-opacity:1; 
stroke-linecap:round; stroke-linejoin:round;">
<path style="fill:#840000; fill-opacity:1.0; 
stroke:#840000; stroke-width:100; stroke-opacity:1; 
stroke-linecap:round; stroke-linejoin:round;fill-rule:evenodd;"
d="M 59428.5,38788.9
59849.4,38873.7
60255.4,39013.5
60639.3,39205.8
60994.5,39447.2
61314.6,39733.4
61594,40059.4
61827.9,40419.5
62012.1,40807.4
62143.4,41216.3
62219.6,41640.2
62240.2,42007.3
62240.2,50491.4
62211.1,50928.5
62126.3,51349.4
61986.5,51755.4
61794.2,52139.3
61552.8,52494.5
61266.6,52814.6
60940.6,53094
60580.5,53327.9
60192.6,53512.1
59783.7,53643.4
59359.8,53719.6
58992.7,53740.2
41008.6,53740.2
40571.5,53711.1
40150.6,53626.3
39744.6,53486.5
39360.7,53294.2
39005.5,53052.8
38685.4,52766.6
38406,52440.6
38172.1,52080.5
37987.9,51692.6
37856.6,51283.7
37780.4,50859.8
37759.8,50492.7
37759.8,49778.4
38750,49778.4
38750,50221.6
38836.5,50656.3
39006.1,51065.8
39252.3,51434.3
39565.7,51747.7
39934.2,51993.9
40343.7,52163.5
40778.4,52250
41221.6,52250
41656.3,52163.5
42065.8,51993.9
42434.3,51747.7
42747.7,51434.3
42993.9,51065.8
43163.5,50656.3
43250,50221.6
43250,49778.4
43163.5,49343.7
42993.9,48934.2
42747.7,48565.7
42434.3,48252.3
42065.8,48006.1
41656.3,47836.5
41221.6,47750
40778.4,47750
40343.7,47836.5
39934.2,48006.1
39565.7,48252.3
39252.3,48565.7
39006.1,48934.2
38836.5,49343.7
38750,49778.4
37759.8,49778.4
37759.8,43968.5
39967.4,43968.5
39979.7,44093.9
40016.3,44214.5
40075.7,44325.7
40155.7,44423.1
40253.1,44503
40364.2,44562.4
40484.8,44599
40578.8,44608.3
40700.8,44608.3
40700.8,45985.3
40699.3,46000
40700.8,46014.7
40700.8,46014.7
40705.1,46058.7
40722.2,46115.1
40750,46167
40765.7,46186.2
40787.4,46212.6
40798.8,46222
44278,49701.2
44287.4,49712.6
44298.8,49722
44333,49750
44384.9,49777.8
44441.3,49794.9
44500,49800.7
44514.7,49799.2
45052,49799.2
45092.7,49860.1
45171.4,49938.8
45263.9,50000.7
45366.7,50043.2
45475.9,50065
45587.1,50065
45696.3,50043.2
45799.1,50000.7
45891.6,49938.8
45970.3,49860.1
46032.2,49767.6
46074.7,49664.8
46096.5,49555.6
46096.5,49444.4
46074.7,49335.2
46032.2,49232.4
45970.3,49139.9
45891.6,49061.2
45799.1,48999.3
45696.3,48956.8
45587.1,48935
45475.9,48935
45366.7,48956.8
45263.9,48999.3
45171.4,49061.2
45092.7,49139.9
45052,49200.8
44623.9,49200.8
42367.5,46944.4
44935,46944.4
44935,47055.6
44956.8,47164.8
44999.3,47267.6
45061.2,47360.1
45139.9,47438.8
45200.8,47479.5
45200.8,47485.3
45199.3,47500
45205.1,47558.7
45222.2,47615.1
45250,47667
45278,47701.2
45287.4,47712.6
45298.8,47722
46949.3,49372.5
46935,49444.4
46935,49555.6
46956.8,49664.8
46999.3,49767.6
47061.2,49860.1
47139.9,49938.8
47232.4,50000.7
47335.2,50043.2
47444.4,50065
47555.6,50065
47664.8,50043.2
47767.6,50000.7
47860.1,49938.8
47938.8,49860.1
48000.7,49767.6
48043.2,49664.8
48065,49555.6
48065,49444.4
48043.2,49335.2
48000.7,49232.4
47938.8,49139.9
47860.1,49061.2
47767.6,48999.3
47664.8,48956.8
47555.6,48935
47444.4,48935
47372.5,48949.3
45861.1,47437.9
45938.8,47360.1
46000.7,47267.6
46043.2,47164.8
46065,47055.6
46065,46944.4
47935,46944.4
47935,47055.6
47956.8,47164.8
47999.3,47267.6
48061.2,47360.1
48139.9,47438.8
48232.4,47500.7
48335.2,47543.2
48444.4,47565
48535.5,47565
49930,48959.4
49910.5,48961.3
49824.4,48987.4
49750,49027.2
49675.6,48987.4
49589.5,48961.3
49500,48952.5
49410.5,48961.3
49324.4,48987.4
49245,49029.9
49175.5,49086.9
49118.4,49156.5
49076,49235.8
49049.9,49321.9
49043.3,49389
49043.3,49611
49049.9,49678.1
49076,49764.2
49118.4,49843.5
49175.5,49913.1
49200.8,49933.8
49200.8,51907.6
49159,51949.3
49087.1,51935
48975.9,51935
48866.7,51956.8
48763.9,51999.3
48671.4,52061.2
48592.7,52139.9
48530.8,52232.4
48488.2,52335.2
48466.5,52444.4
48466.5,52555.6
48488.2,52664.8
48530.8,52767.6
48592.7,52860.1
48671.4,52938.8
48763.9,53000.7
48866.7,53043.2
48975.9,53065
49087.1,53065
49196.3,53043.2
49299.1,53000.7
49391.6,52938.8
49439.6,52890.8
50679.9,52890.8
50708.1,52986.9
50808.7,53034.5
50916.6,53061.5
51027.8,53067
51137.8,53050.7
51242.6,53013.2
51291.9,52986.9
51320.1,52890.8
51000,52570.7
50679.9,52890.8
49439.6,52890.8
49470.3,52860.1
49532.2,52767.6
49574.7,52664.8
49596.5,52555.6
49596.5,52527.8
50433,52527.8
50449.3,52637.8
50486.8,52742.6
50513.1,52791.9
50609.2,52820.1
50929.3,52500
51070.7,52500
51390.8,52820.1
51486.9,52791.9
51534.5,52691.3
51561.5,52583.4
51567,52472.2
51550.7,52362.2
51513.2,52257.4
51486.9,52208.1
51390.8,52179.9
51070.7,52500
50929.3,52500
50609.2,52179.9
50513.1,52208.1
50465.5,52308.7
50438.5,52416.6
50433,52527.8
49596.5,52527.8
49596.5,52444.4
49582.2,52372.5
49701.2,52253.5
49712.6,52244.1
49728.5,52224.7
49750,52198.5
49777.8,52146.6
49784.3,52125.1
49789.1,52109.2
50679.9,52109.2
51000,52429.3
51320.1,52109.2
51291.9,52013.1
51191.3,51965.5
51083.4,51938.5
50972.2,51933
50862.2,51949.3
50757.4,51986.8
50708.1,52013.1
50679.9,52109.2
49789.1,52109.2
49794.9,52090.2
49799.2,52046.2
49799.2,52046.2
49800.7,52031.5
49799.2,52016.8
49799.2,51589.4
57481.3,51589.4
57711.9,51858
58099.1,52073.6
58521,52209.6
58961.2,52260.6
59403,52224.7
59829.2,52103.3
60223.7,51901.1
60288.1,51858
60518.7,51589.4
59000,50070.7
57481.3,51589.4
49799.2,51589.4
49799.2,49999.1
49824.4,50012.6
49910.5,50038.7
50000,50047.5
50089.5,50038.7
50171.7,50013.7
50197.2,50027.4
50244.3,50041.7
50293.3,50046.5
50706.7,50046.5
50755.7,50041.7
50802.8,50027.4
50846.3,50004.1
50884.3,49972.9
50915.6,49934.8
50938.8,49891.4
50953.1,49844.3
50957.5,49799.2
52052,49799.2
52092.7,49860.1
52171.4,49938.8
52263.9,50000.7
52366.7,50043.2
52475.9,50065
52587.1,50065
52696.3,50043.2
52799.1,50000.7
52891.6,49938.8
52970.3,49860.1
53032.2,49767.6
53074.7,49664.8
53096.5,49555.6
53096.5,49444.4
53935,49444.4
53935,49555.6
53956.8,49664.8
53999.3,49767.6
54061.2,49860.1
54139.9,49938.8
54232.4,50000.7
54335.2,50043.2
54444.4,50065
54555.6,50065
54664.8,50043.2
54767.6,50000.7
54826.6,49961.2
56739.4,49961.2
56775.3,50403
56896.7,50829.2
57098.9,51223.7
57142,51288.1
57410.6,51518.7
58929.3,50000
59070.7,50000
60589.4,51518.7
60858,51288.1
61073.6,50900.9
61209.6,50479
61260.6,50038.8
61224.7,49597
61103.3,49170.8
60901.1,48776.3
60858,48711.9
60589.4,48481.3
59070.7,50000
58929.3,50000
57410.6,48481.3
57142,48711.9
56926.4,49099.1
56790.4,49521
56739.4,49961.2
54826.6,49961.2
54860.1,49938.8
54938.8,49860.1
55000.7,49767.6
55043.2,49664.8
55065,49555.6
55065,49444.4
55050.7,49372.5
56012.6,48410.6
57481.3,48410.6
59000,49929.3
60518.7,48410.6
60288.1,48142
59900.9,47926.4
59479,47790.4
59038.8,47739.4
58597,47775.3
58170.8,47896.7
57776.3,48098.9
57711.9,48142
57481.3,48410.6
56012.6,48410.6
59201.2,45222
59212.6,45212.6
59223,45200
59250,45167
59277.8,45115.1
59294.9,45058.7
59299.2,45014.7
59299.2,45014.7
59300.7,45000
59299.2,44985.3
59299.2,44641
59779.5,44641
59828.5,44636.1
59875.7,44621.9
59919.1,44598.6
59957.2,44567.4
59988.4,44529.3
60011.6,44485.9
60025.9,44438.8
60030.7,44389.8
60030.7,43610.2
60025.9,43561.2
60011.6,43514.1
59988.4,43470.7
59957.2,43432.6
59919.1,43401.4
59875.7,43378.1
59828.5,43363.9
59779.5,43359
58220.5,43359
58171.5,43363.9
58124.3,43378.1
58080.9,43401.4
58042.8,43432.6
58011.6,43470.7
57988.4,43514.1
57974.1,43561.2
57969.3,43610.2
57969.3,44389.8
57974.1,44438.8
57988.4,44485.9
58011.6,44529.3
58042.8,44567.4
58080.9,44598.6
58124.3,44621.9
58171.5,44636.1
58220.5,44641
58700.8,44641
58700.8,44876.1
54627.5,48949.3
54555.6,48935
54444.4,48935
54335.2,48956.8
54232.4,48999.3
54139.9,49061.2
54061.2,49139.9
53999.3,49232.4
53956.8,49335.2
53935,49444.4
53096.5,49444.4
53074.7,49335.2
53032.2,49232.4
52970.3,49139.9
52891.6,49061.2
52799.1,48999.3
52696.3,48956.8
52587.1,48935
52475.9,48935
52366.7,48956.8
52263.9,48999.3
52171.4,49061.2
52092.7,49139.9
52052,49200.8
50957.5,49200.8
50953.1,49155.7
50938.8,49108.6
50915.6,49065.2
50884.3,49027.1
50846.3,48995.9
50802.8,48972.6
50761.1,48960
50757.1,48952.5
50750,48939.3
50722,48905.1
50712.6,48893.7
50701.2,48884.3
49025.2,47208.4
49043.2,47164.8
49065,47055.6
49065,46944.4
50935,46944.4
50935,47055.6
50956.8,47164.8
50999.3,47267.6
51061.2,47360.1
51139.9,47438.8
51232.4,47500.7
51335.2,47543.2
51444.4,47565
51555.6,47565
51664.8,47543.2
51767.6,47500.7
51860.1,47438.8
51938.8,47360.1
52000.7,47267.6
52043.2,47164.8
52065,47055.6
52065,46944.4
53935,46944.4
53935,47055.6
53956.8,47164.8
53999.3,47267.6
54061.2,47360.1
54139.9,47438.8
54232.4,47500.7
54335.2,47543.2
54444.4,47565
54555.6,47565
54664.8,47543.2
54767.6,47500.7
54860.1,47438.8
54938.8,47360.1
55000.7,47267.6
55043.2,47164.8
55065,47055.6
55065,46944.4
55043.2,46835.2
55000.7,46732.4
54938.8,46639.9
54860.1,46561.2
54767.6,46499.3
54664.8,46456.8
54555.6,46435
54444.4,46435
54335.2,46456.8
54232.4,46499.3
54139.9,46561.2
54061.2,46639.9
53999.3,46732.4
53956.8,46835.2
53935,46944.4
52065,46944.4
52043.2,46835.2
52000.7,46732.4
51938.8,46639.9
51860.1,46561.2
51767.6,46499.3
51664.8,46456.8
51555.6,46435
51444.4,46435
51335.2,46456.8
51232.4,46499.3
51139.9,46561.2
51061.2,46639.9
50999.3,46732.4
50956.8,46835.2
50935,46944.4
49065,46944.4
49043.2,46835.2
49000.7,46732.4
48938.8,46639.9
48860.1,46561.2
48767.6,46499.3
48664.8,46456.8
48555.6,46435
48444.4,46435
48335.2,46456.8
48232.4,46499.3
48139.9,46561.2
48061.2,46639.9
47999.3,46732.4
47956.8,46835.2
47935,46944.4
46065,46944.4
46043.2,46835.2
46000.7,46732.4
45938.8,46639.9
45860.1,46561.2
45767.6,46499.3
45664.8,46456.8
45555.6,46435
45444.4,46435
45335.2,46456.8
45232.4,46499.3
45139.9,46561.2
45061.2,46639.9
44999.3,46732.4
44956.8,46835.2
44935,46944.4
42367.5,46944.4
41299.2,45876.1
41299.2,44608.3
41421.2,44608.3
41515.2,44599
41635.8,44562.4
41746.9,44503
41844.3,44423.1
41924.3,44325.7
41983.7,44214.5
42020.3,44093.9
42032.6,43968.5
42020.3,43843.1
41983.7,43722.5
41924.3,43611.4
41844.3,43513.9
41746.9,43434
41635.8,43374.6
41515.2,43338
41421.2,43328.7
40578.8,43328.7
40484.8,43338
40364.2,43374.6
40253.1,43434
40155.7,43513.9
40075.7,43611.4
40016.3,43722.5
39979.7,43843.1
39967.4,43968.5
37759.8,43968.5
37759.8,42389.8
39969.3,42389.8
39974.1,42438.8
39988.4,42485.9
40011.6,42529.3
40042.8,42567.4
40080.9,42598.6
40124.3,42621.9
40171.5,42636.1
40220.5,42641
40887.5,42639.8
40950,42577.3
40950,42050
41050,42050
41050,42577.3
41112.5,42639.8
41779.5,42641
41828.5,42636.1
41875.7,42621.9
41919.1,42598.6
41957.2,42567.4
41988.4,42529.3
42011.6,42485.9
42025.9,42438.8
42030.7,42389.8
42029.8,42180.7
57988.1,42180.7
58000,42230.1
58050.5,42345.4
58122.5,42448.5
58213.2,42535.7
58319.2,42603.4
58436.4,42649.2
58560.2,42671.3
58950,42671.3
58950,42081.5
59050,42081.5
59050,42671.3
59439.8,42671.3
59563.6,42649.2
59680.8,42603.4
59786.8,42535.7
59877.5,42448.5
59949.5,42345.4
60000,42230.1
60011.9,42180.7
59964.9,42081.5
59050,42081.5
58950,42081.5
58035.1,42081.5
57988.1,42180.7
42029.8,42180.7
42029.5,42112.5
41967,42050
41050,42050
40950,42050
40033,42050
39970.5,42112.5
39969.3,42389.8
37759.8,42389.8
37759.8,42008.6
37786.3,41610.2
39969.3,41610.2
39970.5,41887.5
40033,41950
40950,41950
40950,41422.7
41050,41422.7
41050,41950
41967,41950
42029.5,41887.5
42029.6,41882.3
57988.1,41882.3
58035.1,41981.5
58950,41981.5
58950,41391.7
59050,41391.7
59050,41981.5
59964.9,41981.5
60011.9,41882.3
60000,41832.9
59949.5,41717.6
59877.5,41614.5
59786.8,41527.3
59680.8,41459.6
59563.6,41413.8
59439.8,41391.7
59050,41391.7
58950,41391.7
58560.2,41391.7
58436.4,41413.8
58319.2,41459.6
58213.2,41527.3
58122.5,41614.5
58050.5,41717.6
58000,41832.9
57988.1,41882.3
42029.6,41882.3
42030.7,41610.2
42025.9,41561.2
42011.6,41514.1
41988.4,41470.7
41957.2,41432.6
41919.1,41401.4
41875.7,41378.1
41828.5,41363.9
41779.5,41359
41112.5,41360.2
41050,41422.7
40950,41422.7
40887.5,41360.2
40220.5,41359
40171.5,41363.9
40124.3,41378.1
40080.9,41401.4
40042.8,41432.6
40011.6,41470.7
39988.4,41514.1
39974.1,41561.2
39969.3,41610.2
37786.3,41610.2
37788.9,41571.5
37873.7,41150.6
37944.8,40944.4
44935,40944.4
44935,41055.6
44956.8,41164.8
44999.3,41267.6
45061.2,41360.1
45139.9,41438.8
45232.4,41500.7
45335.2,41543.2
45444.4,41565
45555.6,41565
45664.8,41543.2
45767.6,41500.7
45860.1,41438.8
45938.8,41360.1
45973,41309.1
48027,41309.1
48061.2,41360.1
48139.9,41438.8
48232.4,41500.7
48335.2,41543.2
48444.4,41565
48555.6,41565
48664.8,41543.2
48767.6,41500.7
48860.1,41438.8
48938.8,41360.1
49000.7,41267.6
49043.2,41164.8
49048.7,41137.4
50952,41137.4
50989.3,41241.7
51046.3,41336.7
51120.7,41418.7
51209.7,41484.7
51309.8,41532
51362.6,41548
51450,41500
51450,41050
51550,41050
51550,41500
51637.4,41548
51690.2,41532
51790.3,41484.7
51879.3,41418.7
51953.7,41336.7
52010.7,41241.7
52048,41137.4
53952,41137.4
53989.3,41241.7
54046.3,41336.7
54120.7,41418.7
54209.7,41484.7
54309.8,41532
54362.6,41548
54450,41500
54450,41050
54550,41050
54550,41500
54637.4,41548
54690.2,41532
54790.3,41484.7
54879.3,41418.7
54953.7,41336.7
55010.7,41241.7
55048,41137.4
55000.2,41050
54550,41050
54450,41050
53999.8,41050
53952,41137.4
52048,41137.4
52000.2,41050
51550,41050
51450,41050
50999.8,41050
50952,41137.4
49048.7,41137.4
49065,41055.6
49065,40944.4
49048.7,40862.6
50952,40862.6
50999.8,40950
51450,40950
51450,40500
51550,40500
51550,40950
52000.2,40950
52048,40862.6
53952,40862.6
53999.8,40950
54450,40950
54450,40500
54550,40500
54550,40950
55000.2,40950
55048,40862.6
55010.7,40758.3
54953.7,40663.3
54879.3,40581.3
54790.3,40515.3
54690.2,40468
54637.4,40452
54550,40500
54450,40500
54362.6,40452
54309.8,40468
54209.7,40515.3
54120.7,40581.3
54046.3,40663.3
53989.3,40758.3
53952,40862.6
52048,40862.6
52010.7,40758.3
51953.7,40663.3
51879.3,40581.3
51790.3,40515.3
51690.2,40468
51637.4,40452
51550,40500
51450,40500
51362.6,40452
51309.8,40468
51209.7,40515.3
51120.7,40581.3
51046.3,40663.3
50989.3,40758.3
50952,40862.6
49048.7,40862.6
49043.2,40835.2
49000.7,40732.4
48938.8,40639.9
48860.1,40561.2
48767.6,40499.3
48664.8,40456.8
48555.6,40435
48444.4,40435
48335.2,40456.8
48232.4,40499.3
48139.9,40561.2
48061.2,40639.9
48027,40690.9
45973,40690.9
45938.8,40639.9
45860.1,40561.2
45767.6,40499.3
45664.8,40456.8
45555.6,40435
45444.4,40435
45335.2,40456.8
45232.4,40499.3
45139.9,40561.2
45061.2,40639.9
44999.3,40732.4
44956.8,40835.2
44935,40944.4
37944.8,40944.4
38013.5,40744.6
38205.8,40360.7
38447.2,40005.5
38733.4,39685.4
39059.4,39406
39419.5,39172.1
39807.4,38987.9
40216.3,38856.6
40640.2,38780.4
41007.3,38759.8
58991.4,38759.8
Z" /> 
</g>
</g>
</g>
<g style="fill:#FFFFFF; fill-opacity:1.0; 
stroke:#FFFFFF; stroke-width:100; stroke-opacity:1; 
stroke-linecap:round; stroke-linejoin:round;">
</g>
<g style="fill:#FFFFFF; fill-opacity:1.0; 
stroke:#FFFFFF; stroke-width:0; stroke-opacity:1; 
stroke-linecap:round; stroke-linejoin:round;">
<circle cx="59000" cy="50000" r="1200.79" /> 
</g>
<g style="fill:#FFFFFF; fill-opacity:1.0; 
stroke:#FFFFFF; stroke-width:39.3701; stroke-opacity:1; 
stroke-linecap:round; stroke-linejoin:round;">
</g>
<g style="fill:#FFFFFF; fill-opacity:1.0; 
stroke:#FFFFFF; stroke-width:0; stroke-opacity:1; 
stroke-linecap:round; stroke-linejoin:round;">
<circle cx="41000" cy="50000" r="1200.79" /> 
</g>
<g style="fill:#FFFFFF; fill-opacity:1.0; 
stroke:#FFFFFF; stroke-width:39.3701; stroke-opacity:1; 
stroke-linecap:round; stroke-linejoin:round;">
</g>
<g style="fill:#FFFFFF; fill-opacity:1.0; 
stroke:#FFFFFF; stroke-width:0; stroke-opacity:1; 
stroke-linecap:round; stroke-linejoin:round;">
<circle cx="47500" cy="49500" r="157.48" /> 
</g>
<g style="fill:#FFFFFF; fill-opacity:1.0; 
stroke:#FFFFFF; stroke-width:39.3701; stroke-opacity:1; 
stroke-linecap:round; stroke-linejoin:round;">
</g>
<g style="fill:#FFFFFF; fill-opacity:1.0; 
stroke:#FFFFFF; stroke-width:0; stroke-opacity:1; 
stroke-linecap:round; stroke-linejoin:round;">
<circle cx="45531.5" cy="49500" r="157.48" /> 
</g>
<g style="fill:#FFFFFF; fill-opacity:1.0; 
stroke:#FFFFFF; stroke-width:39.3701; stroke-opacity:1; 
stroke-linecap:round; stroke-linejoin:round;">
</g>
<g style="fill:#FFFFFF; fill-opacity:1.0; 
stroke:#FFFFFF; stroke-width:0; stroke-opacity:1; 
stroke-linecap:round; stroke-linejoin:round;">
<circle cx="52531.5" cy="49500" r="157.48" /> 
</g>
<g style="fill:#FFFFFF; fill-opacity:1.0; 
stroke:#FFFFFF; stroke-width:39.3701; stroke-opacity:1; 
stroke-linecap:round; stroke-linejoin:round;">
</g>
<g style="fill:#FFFFFF; fill-opacity:1.0; 
stroke:#FFFFFF; stroke-width:0; stroke-opacity:1; 
stroke-linecap:round; stroke-linejoin:round;">
<circle cx="54500" cy="49500" r="157.48" /> 
</g>
<g style="fill:#FFFFFF; fill-opacity:1.0; 
stroke:#FFFFFF; stroke-width:39.3701; stroke-opacity:1; 
stroke-linecap:round; stroke-linejoin:round;">
</g>
<g style="fill:#FFFFFF; fill-opacity:1.0; 
stroke:#FFFFFF; stroke-width:0; stroke-opacity:1; 
stroke-linecap:round; stroke-linejoin:round;">
<circle cx="51000" cy="52500" r="157.48" /> 
</g>
<g style="fill:#FFFFFF; fill-opacity:1.0; 
stroke:#FFFFFF; stroke-width:39.3701; stroke-opacity:1; 
stroke-linecap:round; stroke-linejoin:round;">
</g>
<g style="fill:#FFFFFF; fill-opacity:1.0; 
stroke:#FFFFFF; stroke-width:0; stroke-opacity:1; 
stroke-linecap:round; stroke-linejoin:round;">
<circle cx="49031.5" cy="52500" r="157.48" /> 
</g>
<g style="fill:#FFFFFF; fill-opacity:1.0; 
stroke:#FFFFFF; stroke-width:39.3701; stroke-opacity:1; 
stroke-linecap:round; stroke-linejoin:round;">
</g>
<g style="fill:#FFFFFF; fill-opacity:1.0; 
stroke:#FFFFFF; stroke-width:0; stroke-opacity:1; 
stroke-linecap:round; stroke-linejoin:round;">
<circle cx="41000" cy="42000" r="259.843" /> 
</g>
<g style="fill:#FFFFFF; fill-opacity:1.0; 
stroke:#FFFFFF; stroke-width:39.3701; stroke-opacity:1; 
stroke-linecap:round; stroke-linejoin:round;">
</g>
<g style="fill:#FFFFFF; fill-opacity:1.0; 
stroke:#FFFFFF; stroke-width:0; stroke-opacity:1; 
stroke-linecap:round; stroke-linejoin:round;">
<circle cx="41000" cy="43968.5" r="259.843" /> 
</g>
<g style="fill:#FFFFFF; fill-opacity:1.0; 
stroke:#FFFFFF; stroke-width:39.3701; stroke-opacity:1; 
stroke-linecap:round; stroke-linejoin:round;">
</g>
<g style="fill:#FFFFFF; fill-opacity:1.0; 
stroke:#FFFFFF; stroke-width:0; stroke-opacity:1; 
stroke-linecap:round; stroke-linejoin:round;">
<circle cx="59000" cy="42031.5" r="259.843" /> 
</g>
<g style="fill:#FFFFFF; fill-opacity:1.0; 
stroke:#FFFFFF; stroke-width:39.3701; stroke-opacity:1; 
stroke-linecap:round; stroke-linejoin:round;">
</g>
<g style="fill:#FFFFFF; fill-opacity:1.0; 
stroke:#FFFFFF; stroke-width:0; stroke-opacity:1; 
stroke-linecap:round; stroke-linejoin:round;">
<circle cx="59000" cy="44000" r="259.843" /> 
</g>
<g style="fill:#FFFFFF; fill-opacity:1.0; 
stroke:#FFFFFF; stroke-width:39.3701; stroke-opacity:1; 
stroke-linecap:round; stroke-linejoin:round;">
</g>
<g style="fill:#FFFFFF; fill-opacity:1.0; 
stroke:#FFFFFF; stroke-width:0; stroke-opacity:1; 
stroke-linecap:round; stroke-linejoin:round;">
<circle cx="50000" cy="49500" r="147.638" /> 
</g>
<g style="fill:#FFFFFF; fill-opacity:1.0; 
stroke:#FFFFFF; stroke-width:39.3701; stroke-opacity:1; 
stroke-linecap:round; stroke-linejoin:round;">
</g>
<g style="fill:#FFFFFF; fill-opacity:1.0; 
stroke:#FFFFFF; stroke-width:0; stroke-opacity:1; 
stroke-linecap:round; stroke-linejoin:round;">
<circle cx="49500" cy="49500" r="147.638" /> 
</g>
<g style="fill:#FFFFFF; fill-opacity:1.0; 
stroke:#FFFFFF; stroke-width:39.3701; stroke-opacity:1; 
stroke-linecap:round; stroke-linejoin:round;">
</g>
<g style="fill:#FFFFFF; fill-opacity:1.0; 
stroke:#FFFFFF; stroke-width:0; stroke-opacity:1; 
stroke-linecap:round; stroke-linejoin:round;">
<circle cx="50500" cy="49500" r="147.638" /> 
</g>
<g style="fill:#FFFFFF; fill-opacity:1.0; 
stroke:#FFFFFF; stroke-width:39.3701; stroke-opacity:1; 
stroke-linecap:round; stroke-linejoin:round;">
</g>
<g style="fill:#FFFFFF; fill-opacity:1.0; 
stroke:#FFFFFF; stroke-width:0; stroke-opacity:1; 
stroke-linecap:round; stroke-linejoin:round;">
<circle cx="45500" cy="47000" r="157.48" /> 
</g>
<g style="fill:#FFFFFF; fill-opacity:1.0; 
stroke:#FFFFFF; stroke-width:39.3701; stroke-opacity:1; 
stroke-linecap:round; stroke-linejoin:round;">
</g>
<g style="fill:#FFFFFF; fill-opacity:1.0; 
stroke:#FFFFFF; stroke-width:0; stroke-opacity:1; 
stroke-linecap:round; stroke-linejoin:round;">
<circle cx="45500" cy="41000" r="157.48" /> 
</g>
<g style="fill:#FFFFFF; fill-opacity:1.0; 
stroke:#FFFFFF; stroke-width:39.3701; stroke-opacity:1; 
stroke-linecap:round; stroke-linejoin:round;">
</g>
<g style="fill:#FFFFFF; fill-opacity:1.0; 
stroke:#FFFFFF; stroke-width:0; stroke-opacity:1; 
stroke-linecap:round; stroke-linejoin:round;">
<circle cx="51500" cy="47000" r="157.48" /> 
</g>
<g style="fill:#FFFFFF; fill-opacity:1.0; 
stroke:#FFFFFF; stroke-width:39.3701; stroke-opacity:1; 
stroke-linecap:round; stroke-linejoin:round;">
</g>
<g style="fill:#FFFFFF; fill-opacity:1.0; 
stroke:#FFFFFF; stroke-width:0; stroke-opacity:1; 
stroke-linecap:round; stroke-linejoin:round;">
<circle cx="51500" cy="41000" r="157.48" /> 
</g>
<g style="fill:#FFFFFF; fill-opacity:1.0; 
stroke:#FFFFFF; stroke-width:39.3701; stroke-opacity:1; 
stroke-linecap:round; stroke-linejoin:round;">
</g>
<g style="fill:#FFFFFF; fill-opacity:1.0; 
stroke:#FFFFFF; stroke-width:0; stroke-opacity:1; 
stroke-linecap:round; stroke-linejoin:round;">
<circle cx="48500" cy="41000" r="157.48" /> 
</g>
<g style="fill:#FFFFFF; fill-opacity:1.0; 
stroke:#FFFFFF; stroke-width:39.3701; stroke-opacity:1; 
stroke-linecap:round; stroke-linejoin:round;">
</g>
<g style="fill:#FFFFFF; fill-opacity:1.0; 
stroke:#FFFFFF; stroke-width:0; stroke-opacity:1; 
stroke-linecap:round; stroke-linejoin:round;">
<circle cx="48500" cy="47000" r="157.48" /> 
</g>
<g style="fill:#FFFFFF; fill-opacity:1.0; 
stroke:#FFFFFF; stroke-width:39.3701; stroke-opacity:1; 
stroke-linecap:round; stroke-linejoin:round;">
</g>
<g style="fill:#FFFFFF; fill-opacity:1.0; 
stroke:#FFFFFF; stroke-width:0; stroke-opacity:1; 
stroke-linecap:round; stroke-linejoin:round;">
<circle cx="54500" cy="41000" r="157.48" /> 
</g>
<g style="fill:#FFFFFF; fill-opacity:1.0; 
stroke:#FFFFFF; stroke-width:39.3701; stroke-opacity:1; 
stroke-linecap:round; stroke-linejoin:round;">
</g>
<g style="fill:#FFFFFF; fill-opacity:1.0; 
stroke:#FFFFFF; stroke-width:0; stroke-opacity:1; 
stroke-linecap:round; stroke-linejoin:round;">
<circle cx="54500" cy="47000" r="157.48" /> 
</g>
<g style="fill:#FFFFFF; fill-opacity:1.0; 
stroke:#FFFFFF; stroke-width:39.3701; stroke-opacity:1; 
stroke-linecap:round; stroke-linejoin:round;">
</g>
<g style="fill:#000000; fill-opacity:1.0; 
stroke:#000000; stroke-width:39.3701; stroke-opacity:1; 
stroke-linecap:round; stroke-linejoin:round;">
</g>
<g style="fill:#C2C200; fill-opacity:1.0; 
stroke:#C2C200; stroke-width:39.3701; stroke-opacity:1; 
stroke-linecap:round; stroke-linejoin:round;">
</g>
<g style="fill:#C2C200; fill-opacity:0.0; 
stroke:#C2C200; stroke-width:19.685; stroke-opacity:1; 
stroke-linecap:round; stroke-linejoin:round;">
<path d="M59000 54000 A3500 3500 0.0 0 0 62500 50500" />
<path d="M41000 54000
L59000 54000
" />
<path d="M37500 50500
L37500 42000
" />
<path d="M37500 50500 A3500 3500 0.0 0 0 41000 54000" />
<path d="M62500 50500
L62500 42000
" />
<path d="M59000 38500
L41000 38500
" />
<path d="M41000 38500 A3500 3500 0.0 0 0 37500 42000" />
<path d="M62500 42000 A3500 3500 0.0 0 0 59000 38500" />
<g >
</g>
<g >
</g>
<g >
</g>
<g >
</g>
<g >
</g>
<g >
</g>
<g >
</g>
<g >
</g>
<g >
</g>
<g >
</g>
<g >
</g>
<g >
</g>
<g >
</g>
</g> 
</svg>
