M48
; DRILL file {KiCad (5.1.7)-1} date 12/08/21 22:40:48
; FORMAT={-:-/ absolute / inch / decimal}
; #@! TF.CreationDate,2021-12-08T22:40:48+02:00
; #@! TF.GenerationSoftware,Kicad,Pcbnew,(5.1.7)-1
; #@! TF.FileFunction,Plated,1,2,PTH
FMAT,2
INCH
T1C0.0295
T2C0.0315
T3C0.0520
T4C0.2402
%
G90
G05
T1
X4.95Y-4.95
X5.0Y-4.95
X5.05Y-4.95
T2
X5.2531Y-4.95
X5.45Y-4.95
X5.45Y-4.1
X5.45Y-4.7
X4.55Y-4.1
X4.55Y-4.7
X4.85Y-4.1
X4.85Y-4.7
X5.15Y-4.1
X5.15Y-4.7
X4.9031Y-5.25
X5.1Y-5.25
X4.5531Y-4.95
X4.75Y-4.95
T3
X5.9Y-4.2031
X5.9Y-4.4
X4.1Y-4.2
X4.1Y-4.3969
T4
X4.1Y-5.0
X5.9Y-5.0
T0
M30
