%TF.GenerationSoftware,KiCad,Pcbnew,(5.1.7)-1*%
%TF.CreationDate,2021-12-08T22:40:21+02:00*%
%TF.ProjectId,single_transistor_amp,73696e67-6c65-45f7-9472-616e73697374,V1.0*%
%TF.SameCoordinates,Original*%
%TF.FileFunction,Legend,Top*%
%TF.FilePolarity,Positive*%
%FSLAX46Y46*%
G04 Gerber Fmt 4.6, Leading zero omitted, Abs format (unit mm)*
G04 Created by KiCad (PCBNEW (5.1.7)-1) date 2021-12-08 22:40:21*
%MOMM*%
%LPD*%
G01*
G04 APERTURE LIST*
%ADD10C,0.120000*%
%ADD11C,0.150000*%
G04 APERTURE END LIST*
D10*
%TO.C,J4*%
X155360000Y-127000000D02*
G75*
G03*
X155360000Y-127000000I-5500000J0D01*
G01*
%TO.C,J3*%
X109640000Y-127000000D02*
G75*
G03*
X109640000Y-127000000I-5500000J0D01*
G01*
%TO.C,C1*%
X115530000Y-124675000D02*
X115530000Y-124360000D01*
X115530000Y-127100000D02*
X115530000Y-126785000D01*
X120770000Y-124675000D02*
X120770000Y-124360000D01*
X120770000Y-127100000D02*
X120770000Y-126785000D01*
X120770000Y-124360000D02*
X115530000Y-124360000D01*
X120770000Y-127100000D02*
X115530000Y-127100000D01*
%TO.C,C2*%
X138550000Y-127100000D02*
X133310000Y-127100000D01*
X138550000Y-124360000D02*
X133310000Y-124360000D01*
X138550000Y-127100000D02*
X138550000Y-126785000D01*
X138550000Y-124675000D02*
X138550000Y-124360000D01*
X133310000Y-127100000D02*
X133310000Y-126785000D01*
X133310000Y-124675000D02*
X133310000Y-124360000D01*
%TO.C,C3*%
X124420000Y-132295000D02*
X124420000Y-131980000D01*
X124420000Y-134720000D02*
X124420000Y-134405000D01*
X129660000Y-132295000D02*
X129660000Y-131980000D01*
X129660000Y-134720000D02*
X129660000Y-134405000D01*
X129660000Y-131980000D02*
X124420000Y-131980000D01*
X129660000Y-134720000D02*
X124420000Y-134720000D01*
%TO.C,J1*%
X110440000Y-114880000D02*
X110440000Y-104030000D01*
X105340000Y-114880000D02*
X110440000Y-114880000D01*
X105640000Y-114380000D02*
X105340000Y-114880000D01*
X100240000Y-114380000D02*
X105640000Y-114380000D01*
X100490000Y-114880000D02*
X100240000Y-114380000D01*
X100440000Y-114880000D02*
X100490000Y-114880000D01*
X98540000Y-114880000D02*
X100440000Y-114880000D01*
X98790000Y-114380000D02*
X98540000Y-114880000D01*
X97840000Y-114380000D02*
X98790000Y-114380000D01*
X97840000Y-104030000D02*
X97840000Y-114380000D01*
X110440000Y-104030000D02*
X97840000Y-104030000D01*
%TO.C,J2*%
X143560000Y-114410000D02*
X156160000Y-114410000D01*
X156160000Y-114410000D02*
X156160000Y-104060000D01*
X156160000Y-104060000D02*
X155210000Y-104060000D01*
X155210000Y-104060000D02*
X155460000Y-103560000D01*
X155460000Y-103560000D02*
X153560000Y-103560000D01*
X153560000Y-103560000D02*
X153510000Y-103560000D01*
X153510000Y-103560000D02*
X153760000Y-104060000D01*
X153760000Y-104060000D02*
X148360000Y-104060000D01*
X148360000Y-104060000D02*
X148660000Y-103560000D01*
X148660000Y-103560000D02*
X143560000Y-103560000D01*
X143560000Y-103560000D02*
X143560000Y-114410000D01*
%TO.C,Q1*%
X128800000Y-123880000D02*
X125200000Y-123880000D01*
X128838478Y-123891522D02*
G75*
G02*
X127000000Y-128330000I-1838478J-1838478D01*
G01*
X125161522Y-123891522D02*
G75*
G03*
X127000000Y-128330000I1838478J-1838478D01*
G01*
%TO.C,R1*%
X117290000Y-107140000D02*
X113850000Y-107140000D01*
X113850000Y-107140000D02*
X113850000Y-116380000D01*
X113850000Y-116380000D02*
X117290000Y-116380000D01*
X117290000Y-116380000D02*
X117290000Y-107140000D01*
X115570000Y-105180000D02*
X115570000Y-107140000D01*
X115570000Y-118340000D02*
X115570000Y-116380000D01*
%TO.C,R2*%
X130810000Y-105180000D02*
X130810000Y-107140000D01*
X130810000Y-118340000D02*
X130810000Y-116380000D01*
X129090000Y-107140000D02*
X129090000Y-116380000D01*
X132530000Y-107140000D02*
X129090000Y-107140000D01*
X132530000Y-116380000D02*
X132530000Y-107140000D01*
X129090000Y-116380000D02*
X132530000Y-116380000D01*
%TO.C,R3*%
X123190000Y-118340000D02*
X123190000Y-116380000D01*
X123190000Y-105180000D02*
X123190000Y-107140000D01*
X124910000Y-116380000D02*
X124910000Y-107140000D01*
X121470000Y-116380000D02*
X124910000Y-116380000D01*
X121470000Y-107140000D02*
X121470000Y-116380000D01*
X124910000Y-107140000D02*
X121470000Y-107140000D01*
%TO.C,R4*%
X136710000Y-116380000D02*
X140150000Y-116380000D01*
X140150000Y-116380000D02*
X140150000Y-107140000D01*
X140150000Y-107140000D02*
X136710000Y-107140000D01*
X136710000Y-107140000D02*
X136710000Y-116380000D01*
X138430000Y-118340000D02*
X138430000Y-116380000D01*
X138430000Y-105180000D02*
X138430000Y-107140000D01*
%TO.C,J4*%
D11*
X149526666Y-119952380D02*
X149526666Y-120666666D01*
X149479047Y-120809523D01*
X149383809Y-120904761D01*
X149240952Y-120952380D01*
X149145714Y-120952380D01*
X150431428Y-120285714D02*
X150431428Y-120952380D01*
X150193333Y-119904761D02*
X149955238Y-120619047D01*
X150574285Y-120619047D01*
%TO.C,J3*%
X103806666Y-119952380D02*
X103806666Y-120666666D01*
X103759047Y-120809523D01*
X103663809Y-120904761D01*
X103520952Y-120952380D01*
X103425714Y-120952380D01*
X104187619Y-119952380D02*
X104806666Y-119952380D01*
X104473333Y-120333333D01*
X104616190Y-120333333D01*
X104711428Y-120380952D01*
X104759047Y-120428571D01*
X104806666Y-120523809D01*
X104806666Y-120761904D01*
X104759047Y-120857142D01*
X104711428Y-120904761D01*
X104616190Y-120952380D01*
X104330476Y-120952380D01*
X104235238Y-120904761D01*
X104187619Y-120857142D01*
%TO.C,C1*%
X117983333Y-128587142D02*
X117935714Y-128634761D01*
X117792857Y-128682380D01*
X117697619Y-128682380D01*
X117554761Y-128634761D01*
X117459523Y-128539523D01*
X117411904Y-128444285D01*
X117364285Y-128253809D01*
X117364285Y-128110952D01*
X117411904Y-127920476D01*
X117459523Y-127825238D01*
X117554761Y-127730000D01*
X117697619Y-127682380D01*
X117792857Y-127682380D01*
X117935714Y-127730000D01*
X117983333Y-127777619D01*
X118935714Y-128682380D02*
X118364285Y-128682380D01*
X118650000Y-128682380D02*
X118650000Y-127682380D01*
X118554761Y-127825238D01*
X118459523Y-127920476D01*
X118364285Y-127968095D01*
%TO.C,C2*%
X135763333Y-128587142D02*
X135715714Y-128634761D01*
X135572857Y-128682380D01*
X135477619Y-128682380D01*
X135334761Y-128634761D01*
X135239523Y-128539523D01*
X135191904Y-128444285D01*
X135144285Y-128253809D01*
X135144285Y-128110952D01*
X135191904Y-127920476D01*
X135239523Y-127825238D01*
X135334761Y-127730000D01*
X135477619Y-127682380D01*
X135572857Y-127682380D01*
X135715714Y-127730000D01*
X135763333Y-127777619D01*
X136144285Y-127777619D02*
X136191904Y-127730000D01*
X136287142Y-127682380D01*
X136525238Y-127682380D01*
X136620476Y-127730000D01*
X136668095Y-127777619D01*
X136715714Y-127872857D01*
X136715714Y-127968095D01*
X136668095Y-128110952D01*
X136096666Y-128682380D01*
X136715714Y-128682380D01*
%TO.C,C3*%
X126873333Y-136207142D02*
X126825714Y-136254761D01*
X126682857Y-136302380D01*
X126587619Y-136302380D01*
X126444761Y-136254761D01*
X126349523Y-136159523D01*
X126301904Y-136064285D01*
X126254285Y-135873809D01*
X126254285Y-135730952D01*
X126301904Y-135540476D01*
X126349523Y-135445238D01*
X126444761Y-135350000D01*
X126587619Y-135302380D01*
X126682857Y-135302380D01*
X126825714Y-135350000D01*
X126873333Y-135397619D01*
X127206666Y-135302380D02*
X127825714Y-135302380D01*
X127492380Y-135683333D01*
X127635238Y-135683333D01*
X127730476Y-135730952D01*
X127778095Y-135778571D01*
X127825714Y-135873809D01*
X127825714Y-136111904D01*
X127778095Y-136207142D01*
X127730476Y-136254761D01*
X127635238Y-136302380D01*
X127349523Y-136302380D01*
X127254285Y-136254761D01*
X127206666Y-136207142D01*
%TO.C,J1*%
X110582380Y-105093333D02*
X111296666Y-105093333D01*
X111439523Y-105140952D01*
X111534761Y-105236190D01*
X111582380Y-105379047D01*
X111582380Y-105474285D01*
X111582380Y-104093333D02*
X111582380Y-104664761D01*
X111582380Y-104379047D02*
X110582380Y-104379047D01*
X110725238Y-104474285D01*
X110820476Y-104569523D01*
X110868095Y-104664761D01*
%TO.C,J2*%
X142322380Y-114013333D02*
X143036666Y-114013333D01*
X143179523Y-114060952D01*
X143274761Y-114156190D01*
X143322380Y-114299047D01*
X143322380Y-114394285D01*
X142417619Y-113584761D02*
X142370000Y-113537142D01*
X142322380Y-113441904D01*
X142322380Y-113203809D01*
X142370000Y-113108571D01*
X142417619Y-113060952D01*
X142512857Y-113013333D01*
X142608095Y-113013333D01*
X142750952Y-113060952D01*
X143322380Y-113632380D01*
X143322380Y-113013333D01*
%TO.C,Q1*%
X126904761Y-129837619D02*
X126809523Y-129790000D01*
X126714285Y-129694761D01*
X126571428Y-129551904D01*
X126476190Y-129504285D01*
X126380952Y-129504285D01*
X126428571Y-129742380D02*
X126333333Y-129694761D01*
X126238095Y-129599523D01*
X126190476Y-129409047D01*
X126190476Y-129075714D01*
X126238095Y-128885238D01*
X126333333Y-128790000D01*
X126428571Y-128742380D01*
X126619047Y-128742380D01*
X126714285Y-128790000D01*
X126809523Y-128885238D01*
X126857142Y-129075714D01*
X126857142Y-129409047D01*
X126809523Y-129599523D01*
X126714285Y-129694761D01*
X126619047Y-129742380D01*
X126428571Y-129742380D01*
X127809523Y-129742380D02*
X127238095Y-129742380D01*
X127523809Y-129742380D02*
X127523809Y-128742380D01*
X127428571Y-128885238D01*
X127333333Y-128980476D01*
X127238095Y-129028095D01*
%TO.C,R1*%
X118742380Y-111926666D02*
X118266190Y-112260000D01*
X118742380Y-112498095D02*
X117742380Y-112498095D01*
X117742380Y-112117142D01*
X117790000Y-112021904D01*
X117837619Y-111974285D01*
X117932857Y-111926666D01*
X118075714Y-111926666D01*
X118170952Y-111974285D01*
X118218571Y-112021904D01*
X118266190Y-112117142D01*
X118266190Y-112498095D01*
X118742380Y-110974285D02*
X118742380Y-111545714D01*
X118742380Y-111260000D02*
X117742380Y-111260000D01*
X117885238Y-111355238D01*
X117980476Y-111450476D01*
X118028095Y-111545714D01*
%TO.C,R2*%
X128542380Y-111926666D02*
X128066190Y-112260000D01*
X128542380Y-112498095D02*
X127542380Y-112498095D01*
X127542380Y-112117142D01*
X127590000Y-112021904D01*
X127637619Y-111974285D01*
X127732857Y-111926666D01*
X127875714Y-111926666D01*
X127970952Y-111974285D01*
X128018571Y-112021904D01*
X128066190Y-112117142D01*
X128066190Y-112498095D01*
X127637619Y-111545714D02*
X127590000Y-111498095D01*
X127542380Y-111402857D01*
X127542380Y-111164761D01*
X127590000Y-111069523D01*
X127637619Y-111021904D01*
X127732857Y-110974285D01*
X127828095Y-110974285D01*
X127970952Y-111021904D01*
X128542380Y-111593333D01*
X128542380Y-110974285D01*
%TO.C,R3*%
X126362380Y-111926666D02*
X125886190Y-112260000D01*
X126362380Y-112498095D02*
X125362380Y-112498095D01*
X125362380Y-112117142D01*
X125410000Y-112021904D01*
X125457619Y-111974285D01*
X125552857Y-111926666D01*
X125695714Y-111926666D01*
X125790952Y-111974285D01*
X125838571Y-112021904D01*
X125886190Y-112117142D01*
X125886190Y-112498095D01*
X125362380Y-111593333D02*
X125362380Y-110974285D01*
X125743333Y-111307619D01*
X125743333Y-111164761D01*
X125790952Y-111069523D01*
X125838571Y-111021904D01*
X125933809Y-110974285D01*
X126171904Y-110974285D01*
X126267142Y-111021904D01*
X126314761Y-111069523D01*
X126362380Y-111164761D01*
X126362380Y-111450476D01*
X126314761Y-111545714D01*
X126267142Y-111593333D01*
%TO.C,R4*%
X136162380Y-111926666D02*
X135686190Y-112260000D01*
X136162380Y-112498095D02*
X135162380Y-112498095D01*
X135162380Y-112117142D01*
X135210000Y-112021904D01*
X135257619Y-111974285D01*
X135352857Y-111926666D01*
X135495714Y-111926666D01*
X135590952Y-111974285D01*
X135638571Y-112021904D01*
X135686190Y-112117142D01*
X135686190Y-112498095D01*
X135495714Y-111069523D02*
X136162380Y-111069523D01*
X135114761Y-111307619D02*
X135829047Y-111545714D01*
X135829047Y-110926666D01*
%TD*%
M02*
